{"glyphs":{"0":{"ha":801,"x_min":62,"x_max":739,"o":"m 739 582 l 739 406 q 697 168 739 261 q 578 31 654 75 q 401 -14 502 -14 q 224 31 301 -14 q 105 168 148 75 q 62 406 62 261 l 62 582 q 104 820 62 728 q 223 957 147 913 q 400 1001 300 1001 q 577 957 500 1001 q 696 820 654 913 q 739 582 739 728 m 528 380 l 528 610 q 512 744 528 694 q 469 815 497 793 q 400 837 440 837 q 332 815 360 837 q 289 744 304 793 q 273 610 273 694 l 273 380 q 289 245 273 295 q 333 173 304 195 q 401 151 361 151 q 469 173 441 151 q 512 245 497 195 q 528 380 528 295 z "},"1":{"ha":801,"x_min":114,"x_max":555,"o":"m 555 988 l 555 0 l 343 0 l 343 747 l 114 677 l 114 841 l 534 988 l 555 988 z "},"2":{"ha":801,"x_min":44,"x_max":747,"o":"m 747 165 l 747 0 l 64 0 l 64 140 l 383 477 q 455 568 428 529 q 494 640 481 608 q 506 699 506 672 q 475 801 506 765 q 387 837 444 837 q 317 816 347 837 q 273 758 288 795 q 257 674 257 721 l 44 674 q 87 839 44 764 q 209 957 131 913 q 391 1002 287 1002 q 635 927 552 1002 q 718 719 718 852 q 690 591 718 652 q 611 467 663 529 q 490 334 560 404 l 340 165 l 747 165 z "},"3":{"ha":801,"x_min":38,"x_max":741,"o":"m 269 584 l 376 584 q 453 600 422 584 q 497 646 483 616 q 512 716 512 676 q 498 778 512 751 q 457 821 485 805 q 387 837 430 837 q 327 824 355 837 q 281 788 299 812 q 264 732 264 765 l 52 732 q 97 876 52 815 q 217 969 142 936 q 380 1002 292 1002 q 561 969 483 1002 q 681 874 638 937 q 724 720 724 812 q 702 627 724 671 q 637 548 679 583 q 538 494 595 514 q 411 474 481 474 l 269 474 l 269 584 m 269 425 l 269 532 l 411 532 q 549 515 488 532 q 653 464 610 497 q 718 383 696 431 q 741 277 741 336 q 693 120 741 185 q 564 21 646 55 q 380 -14 483 -14 q 258 3 319 -14 q 147 55 197 20 q 68 144 98 90 q 38 273 38 198 l 250 273 q 268 211 250 238 q 318 167 286 183 q 387 151 349 151 q 491 188 454 151 q 528 281 528 224 q 510 364 528 332 q 458 410 492 395 q 376 425 424 425 l 269 425 z "},"4":{"ha":801,"x_min":39,"x_max":762,"o":"m 762 377 l 762 213 l 51 213 l 39 342 l 444 987 l 611 987 l 429 686 l 245 377 l 762 377 m 656 987 l 656 0 l 444 0 l 444 987 l 656 987 z "},"5":{"ha":801,"x_min":63,"x_max":742,"o":"m 254 445 l 85 485 l 143 987 l 709 987 l 709 820 l 317 820 l 293 612 q 351 636 311 623 q 439 649 390 649 q 603 610 535 649 q 706 497 671 571 q 742 317 742 422 q 706 156 742 231 q 594 33 669 80 q 404 -14 519 -14 q 278 6 339 -14 q 169 63 217 26 q 92 155 120 101 q 63 277 64 210 l 275 277 q 314 185 279 219 q 403 151 348 151 q 478 175 450 151 q 518 240 506 199 q 530 330 530 281 q 514 419 530 381 q 466 477 498 456 q 380 498 433 498 q 299 481 328 498 q 254 445 270 465 z "},"6":{"ha":801,"x_min":62,"x_max":758,"o":"m 574 1000 l 606 1000 l 606 831 l 594 831 q 464 811 523 831 q 363 751 406 791 q 297 653 320 711 q 275 520 275 595 l 275 352 q 291 240 275 285 q 339 173 308 195 q 413 151 370 151 q 483 174 453 151 q 529 236 512 197 q 545 325 545 275 q 528 417 545 377 q 480 478 511 456 q 407 500 449 500 q 330 479 362 500 q 279 427 297 459 q 261 362 262 395 l 205 409 q 237 529 205 471 q 330 626 269 588 q 477 663 391 663 q 631 618 569 663 q 726 496 694 572 q 758 326 758 419 q 715 153 758 231 q 596 31 672 76 q 418 -14 519 -14 q 275 14 340 -14 q 162 94 210 42 q 89 218 115 146 q 62 381 62 291 l 62 460 q 101 683 62 584 q 208 853 139 782 q 370 962 277 924 q 574 1000 464 1000 z "},"7":{"ha":801,"x_min":38,"x_max":743,"o":"m 743 987 l 743 873 l 368 0 l 144 0 l 519 823 l 38 823 l 38 987 l 743 987 z "},"8":{"ha":801,"x_min":61,"x_max":740,"o":"m 740 271 q 696 114 740 178 q 575 18 652 50 q 401 -14 499 -14 q 228 18 304 -14 q 106 114 151 50 q 61 271 61 178 q 105 418 61 356 q 227 513 150 479 q 400 547 303 547 q 575 513 498 547 q 696 418 652 479 q 740 271 740 356 m 527 287 q 511 360 527 330 q 467 407 495 391 q 400 424 438 424 q 334 407 362 424 q 289 360 305 391 q 273 287 273 330 q 290 214 273 245 q 334 167 306 183 q 401 151 363 151 q 468 167 440 151 q 511 214 496 183 q 527 287 527 245 m 719 725 q 679 590 719 648 q 566 500 638 532 q 401 468 494 468 q 236 500 309 468 q 123 590 164 532 q 82 725 82 648 q 123 876 82 814 q 236 970 164 938 q 400 1002 308 1002 q 566 970 494 1002 q 678 876 637 938 q 719 725 719 814 m 507 714 q 495 779 507 751 q 458 822 482 806 q 400 837 435 837 q 343 822 367 837 q 307 780 319 808 q 294 714 294 753 q 307 648 294 676 q 343 604 319 620 q 401 588 368 588 q 459 604 436 588 q 495 648 483 620 q 507 714 507 676 z "},"9":{"ha":801,"x_min":56,"x_max":734,"o":"m 205 159 l 219 159 q 350 177 294 159 q 445 229 406 194 q 503 316 483 264 q 522 441 522 369 l 522 636 q 506 748 522 704 q 460 815 490 793 q 393 837 431 837 q 326 810 353 837 q 283 741 298 783 q 269 652 269 699 q 283 562 269 603 q 328 497 298 522 q 401 473 357 473 q 459 485 435 473 q 502 517 484 497 q 528 562 519 538 q 536 610 536 586 l 602 566 q 582 477 602 521 q 526 397 562 433 q 445 339 491 361 q 346 318 398 318 q 190 361 255 318 q 91 478 125 404 q 56 651 56 553 q 99 826 56 747 q 218 954 142 906 q 394 1002 294 1002 q 530 974 468 1002 q 637 893 591 945 q 709 766 684 841 q 734 598 734 692 l 734 525 q 711 340 734 425 q 644 191 688 256 q 537 81 600 126 q 395 12 474 35 q 222 -12 316 -12 l 205 -12 l 205 159 z "},"\u0000":{"ha":0,"x_min":0,"x_max":0,"o":""},"A":{"ha":939,"x_min":1,"x_max":939,"o":"m 492 800 l 237 0 l 1 0 l 366 987 l 515 987 l 492 800 m 703 0 l 448 800 l 421 987 l 572 987 l 939 0 l 703 0 m 692 368 l 692 197 l 178 197 l 178 368 l 692 368 z "},"Æ":{"ha":1305,"x_min":7,"x_max":1259,"o":"m 679 881 l 254 0 l 7 0 l 522 987 l 656 987 l 679 881 m 741 399 l 741 226 l 231 226 l 231 399 l 741 399 m 1259 167 l 1259 0 l 762 0 l 762 167 l 1259 167 m 823 987 l 864 0 l 652 0 l 611 987 l 823 987 m 1162 589 l 1162 422 l 735 422 l 735 589 l 1162 589 m 1217 987 l 1217 821 l 721 821 l 721 987 l 1217 987 z "},"Ǽ":{"ha":1305,"x_min":7,"x_max":1259,"o":"m 679 881 l 254 0 l 7 0 l 522 987 l 656 987 l 679 881 m 741 399 l 741 226 l 231 226 l 231 399 l 741 399 m 1259 167 l 1259 0 l 762 0 l 762 167 l 1259 167 m 823 987 l 864 0 l 652 0 l 611 987 l 823 987 m 1162 589 l 1162 422 l 735 422 l 735 589 l 1162 589 m 1217 987 l 1217 821 l 721 821 l 721 987 l 1217 987 m 535 1049 l 669 1260 l 896 1260 l 708 1049 l 535 1049 z "},"Á":{"ha":939,"x_min":1,"x_max":939,"o":"m 492 800 l 237 0 l 1 0 l 366 987 l 515 987 l 492 800 m 703 0 l 448 800 l 421 987 l 572 987 l 939 0 l 703 0 m 692 368 l 692 197 l 178 197 l 178 368 l 692 368 m 372 1041 l 507 1252 l 733 1252 l 545 1041 l 372 1041 z "},"Ă":{"ha":939,"x_min":1,"x_max":939,"o":"m 492 800 l 237 0 l 1 0 l 366 987 l 515 987 l 492 800 m 703 0 l 448 800 l 421 987 l 572 987 l 939 0 l 703 0 m 692 368 l 692 197 l 178 197 l 178 368 l 692 368 m 567 1249 l 715 1249 q 649 1102 715 1158 q 471 1045 583 1045 q 294 1102 359 1045 q 228 1249 228 1158 l 375 1249 q 397 1187 375 1214 q 471 1160 418 1160 q 546 1187 524 1160 q 567 1249 567 1214 z "},"Â":{"ha":939,"x_min":1,"x_max":939,"o":"m 492 800 l 237 0 l 1 0 l 366 987 l 515 987 l 492 800 m 703 0 l 448 800 l 421 987 l 572 987 l 939 0 l 703 0 m 692 368 l 692 197 l 178 197 l 178 368 l 692 368 m 532 1252 l 746 1062 l 746 1054 l 578 1054 l 471 1149 l 365 1054 l 201 1054 l 201 1065 l 410 1252 l 532 1252 z "},"Ä":{"ha":939,"x_min":1,"x_max":939,"o":"m 492 800 l 237 0 l 1 0 l 366 987 l 515 987 l 492 800 m 703 0 l 448 800 l 421 987 l 572 987 l 939 0 l 703 0 m 692 368 l 692 197 l 178 197 l 178 368 l 692 368 m 201 1137 q 229 1199 201 1173 q 298 1224 258 1224 q 368 1199 340 1224 q 397 1137 397 1173 q 368 1075 397 1100 q 298 1050 340 1050 q 229 1075 258 1050 q 201 1137 201 1100 m 543 1137 q 572 1198 543 1173 q 641 1223 600 1223 q 710 1198 682 1223 q 739 1137 739 1173 q 710 1075 739 1100 q 641 1049 682 1049 q 572 1075 600 1049 q 543 1137 543 1100 z "},"À":{"ha":939,"x_min":1,"x_max":939,"o":"m 492 800 l 237 0 l 1 0 l 366 987 l 515 987 l 492 800 m 703 0 l 448 800 l 421 987 l 572 987 l 939 0 l 703 0 m 692 368 l 692 197 l 178 197 l 178 368 l 692 368 m 439 1252 l 574 1041 l 401 1041 l 212 1252 l 439 1252 z "},"Ā":{"ha":939,"x_min":1,"x_max":939,"o":"m 492 800 l 237 0 l 1 0 l 366 987 l 515 987 l 492 800 m 703 0 l 448 800 l 421 987 l 572 987 l 939 0 l 703 0 m 692 368 l 692 197 l 178 197 l 178 368 l 692 368 m 706 1195 l 706 1081 l 238 1081 l 238 1195 l 706 1195 z "},"Ą":{"ha":939,"x_min":1,"x_max":939,"o":"m 492 800 l 237 0 l 1 0 l 366 987 l 515 987 l 492 800 m 703 0 l 448 800 l 421 987 l 572 987 l 939 0 l 703 0 m 692 368 l 692 197 l 178 197 l 178 368 l 692 368 m 760 41 l 874 0 q 797 -54 821 -28 q 772 -116 772 -80 q 782 -147 772 -134 q 815 -159 791 -159 q 845 -155 833 -159 q 865 -146 856 -150 l 889 -255 q 845 -275 872 -265 q 777 -285 818 -285 q 664 -249 711 -285 q 618 -142 618 -212 q 630 -76 618 -109 q 674 -14 643 -44 q 760 41 705 16 z "},"Å":{"ha":939,"x_min":1,"x_max":939,"o":"m 492 800 l 237 0 l 1 0 l 366 987 l 515 987 l 492 800 m 703 0 l 448 800 l 421 987 l 572 987 l 939 0 l 703 0 m 692 368 l 692 197 l 178 197 l 178 368 l 692 368 m 321 1173 q 364 1270 321 1230 q 472 1311 407 1311 q 581 1270 538 1311 q 623 1173 623 1230 q 581 1077 623 1117 q 472 1038 538 1038 q 364 1077 407 1038 q 321 1173 321 1117 m 401 1173 q 420 1122 401 1143 q 472 1101 439 1101 q 525 1122 505 1101 q 544 1173 544 1143 q 525 1224 544 1203 q 472 1246 505 1246 q 420 1224 439 1246 q 401 1173 401 1203 z "},"Ǻ":{"ha":939,"x_min":1,"x_max":939,"o":"m 492 800 l 237 0 l 1 0 l 366 987 l 515 987 l 492 800 m 703 0 l 448 800 l 421 987 l 572 987 l 939 0 l 703 0 m 692 368 l 692 197 l 178 197 l 178 368 l 692 368 m 416 1218 l 553 1360 l 740 1360 l 549 1218 l 416 1218 m 328 1063 q 370 1155 328 1118 q 471 1192 411 1192 q 570 1155 530 1192 q 610 1063 610 1118 q 570 973 610 1008 q 471 937 530 937 q 370 973 411 937 q 328 1063 328 1008 m 409 1063 q 427 1020 409 1037 q 471 1003 444 1003 q 513 1020 497 1003 q 529 1063 529 1037 q 513 1108 529 1090 q 471 1125 497 1125 q 427 1108 444 1125 q 409 1063 409 1090 z "},"Ã":{"ha":939,"x_min":1,"x_max":939,"o":"m 492 800 l 237 0 l 1 0 l 366 987 l 515 987 l 492 800 m 703 0 l 448 800 l 421 987 l 572 987 l 939 0 l 703 0 m 692 368 l 692 197 l 178 197 l 178 368 l 692 368 m 610 1251 l 730 1244 q 710 1153 730 1194 q 655 1087 690 1112 q 575 1062 620 1062 q 519 1070 543 1062 q 475 1091 496 1079 q 434 1112 455 1103 q 387 1120 413 1120 q 349 1104 365 1120 q 333 1057 333 1088 l 212 1063 q 232 1153 212 1112 q 287 1220 252 1195 q 367 1245 321 1245 q 417 1237 394 1245 q 463 1217 441 1228 q 507 1196 485 1205 q 555 1187 530 1187 q 594 1204 577 1187 q 610 1251 610 1220 z "},"B":{"ha":892,"x_min":81,"x_max":831,"o":"m 476 427 l 222 427 l 221 574 l 431 574 q 551 605 514 574 q 589 692 589 635 q 551 787 589 758 q 431 816 513 816 l 302 816 l 302 0 l 81 0 l 81 987 l 431 987 q 709 921 609 987 q 810 716 810 854 q 783 604 810 656 q 697 519 756 551 q 539 484 638 486 l 476 427 m 467 0 l 166 0 l 246 171 l 467 171 q 577 206 543 171 q 612 294 612 241 q 598 364 612 334 q 554 410 584 394 q 476 427 525 427 l 278 427 l 279 574 l 522 574 l 573 516 q 724 486 667 518 q 806 401 781 454 q 831 291 831 349 q 738 74 831 147 q 467 0 645 0 z "},"C":{"ha":910,"x_min":53,"x_max":870,"o":"m 649 331 l 869 331 q 813 152 863 229 q 675 30 764 74 q 466 -14 587 -14 q 244 44 337 -14 q 102 209 151 102 q 53 463 53 316 l 53 524 q 104 778 53 671 q 248 943 155 885 q 465 1002 340 1002 q 678 956 591 1002 q 813 831 765 911 q 870 650 861 752 l 650 650 q 604 782 645 736 q 465 828 563 828 q 360 796 402 828 q 297 697 318 764 q 277 525 277 630 l 277 463 q 295 292 277 359 q 356 193 314 225 q 466 160 398 160 q 564 179 525 160 q 625 235 604 197 q 649 331 646 273 z "},"\r":{"ha":346,"x_min":0,"x_max":0,"o":""},"Ć":{"ha":910,"x_min":53,"x_max":870,"o":"m 649 331 l 869 331 q 813 152 863 229 q 675 30 764 74 q 466 -14 587 -14 q 244 44 337 -14 q 102 209 151 102 q 53 463 53 316 l 53 524 q 104 778 53 671 q 248 943 155 885 q 465 1002 340 1002 q 678 956 591 1002 q 813 831 765 911 q 870 650 861 752 l 650 650 q 604 782 645 736 q 465 828 563 828 q 360 796 402 828 q 297 697 318 764 q 277 525 277 630 l 277 463 q 295 292 277 359 q 356 193 314 225 q 466 160 398 160 q 564 179 525 160 q 625 235 604 197 q 649 331 646 273 m 369 1044 l 503 1255 l 730 1255 l 542 1044 l 369 1044 z "},"Č":{"ha":910,"x_min":53,"x_max":870,"o":"m 649 331 l 869 331 q 813 152 863 229 q 675 30 764 74 q 466 -14 587 -14 q 244 44 337 -14 q 102 209 151 102 q 53 463 53 316 l 53 524 q 104 778 53 671 q 248 943 155 885 q 465 1002 340 1002 q 678 956 591 1002 q 813 831 765 911 q 870 650 861 752 l 650 650 q 604 782 645 736 q 465 828 563 828 q 360 796 402 828 q 297 697 318 764 q 277 525 277 630 l 277 463 q 295 292 277 359 q 356 193 314 225 q 466 160 398 160 q 564 179 525 160 q 625 235 604 197 q 649 331 646 273 m 368 1256 l 468 1161 l 568 1256 l 749 1256 l 749 1249 l 536 1057 l 400 1057 l 186 1250 l 186 1256 l 368 1256 z "},"Ç":{"ha":910,"x_min":53,"x_max":870,"o":"m 649 331 l 869 331 q 813 152 863 229 q 675 30 764 74 q 466 -14 587 -14 q 244 44 337 -14 q 102 209 151 102 q 53 463 53 316 l 53 524 q 104 778 53 671 q 248 943 155 885 q 465 1002 340 1002 q 678 956 591 1002 q 813 831 765 911 q 870 650 861 752 l 650 650 q 604 782 645 736 q 465 828 563 828 q 360 796 402 828 q 297 697 318 764 q 277 525 277 630 l 277 463 q 295 292 277 359 q 356 193 314 225 q 466 160 398 160 q 564 179 525 160 q 625 235 604 197 q 649 331 646 273 m 388 4 l 549 4 l 541 -36 q 611 -69 579 -43 q 643 -153 643 -95 q 581 -272 643 -227 q 397 -317 518 -317 l 392 -200 q 428 -194 412 -200 q 452 -177 443 -189 q 461 -145 461 -165 q 439 -107 461 -118 q 367 -94 417 -96 l 388 4 z "},"Ĉ":{"ha":910,"x_min":53,"x_max":870,"o":"m 649 331 l 869 331 q 813 152 863 229 q 675 30 764 74 q 466 -14 587 -14 q 244 44 337 -14 q 102 209 151 102 q 53 463 53 316 l 53 524 q 104 778 53 671 q 248 943 155 885 q 465 1002 340 1002 q 678 956 591 1002 q 813 831 765 911 q 870 650 861 752 l 650 650 q 604 782 645 736 q 465 828 563 828 q 360 796 402 828 q 297 697 318 764 q 277 525 277 630 l 277 463 q 295 292 277 359 q 356 193 314 225 q 466 160 398 160 q 564 179 525 160 q 625 235 604 197 q 649 331 646 273 m 529 1255 l 743 1065 l 743 1057 l 575 1057 l 468 1153 l 361 1057 l 197 1057 l 197 1068 l 407 1255 l 529 1255 z "},"D":{"ha":901,"x_min":81,"x_max":847,"o":"m 394 0 l 177 0 l 178 171 l 394 171 q 519 205 468 171 q 596 307 570 239 q 623 471 623 374 l 623 517 q 596 681 623 614 q 518 782 570 748 q 393 816 467 816 l 173 816 l 173 987 l 393 987 q 629 928 526 987 q 789 762 731 869 q 847 515 847 656 l 847 471 q 789 225 847 331 q 629 59 732 119 q 394 0 527 0 m 302 987 l 302 0 l 81 0 l 81 987 l 302 987 z "},"Ď":{"ha":901,"x_min":59,"x_max":847,"o":"m 394 0 l 177 0 l 178 171 l 394 171 q 519 205 468 171 q 596 307 570 239 q 623 471 623 374 l 623 517 q 596 681 623 614 q 518 782 570 748 q 393 816 467 816 l 173 816 l 173 987 l 393 987 q 629 928 526 987 q 789 762 731 869 q 847 515 847 656 l 847 471 q 789 225 847 331 q 629 59 732 119 q 394 0 527 0 m 302 987 l 302 0 l 81 0 l 81 987 l 302 987 m 240 1254 l 340 1159 l 441 1254 l 621 1254 l 621 1246 l 409 1055 l 273 1055 l 59 1248 l 59 1254 l 240 1254 z "},"Đ":{"ha":921,"x_min":3,"x_max":867,"o":"m 414 0 l 197 0 l 199 171 l 414 171 q 539 205 488 171 q 616 307 590 239 q 643 471 643 374 l 643 517 q 616 681 643 614 q 539 782 590 748 q 413 816 488 816 l 193 816 l 193 987 l 413 987 q 649 928 547 987 q 809 762 751 869 q 867 515 867 656 l 867 471 q 810 225 867 331 q 650 59 752 119 q 414 0 547 0 m 323 987 l 323 0 l 102 0 l 102 987 l 323 987 m 489 559 l 489 434 l 3 434 l 3 559 l 489 559 z "},"∆":{"ha":1025,"x_min":13,"x_max":1024,"o":"m 581 905 l 245 0 l 13 0 l 400 987 l 519 987 l 581 905 m 791 0 l 452 911 l 516 987 l 635 987 l 1024 0 l 791 0 m 810 171 l 810 0 l 193 0 l 193 171 l 810 171 z "},"E":{"ha":779,"x_min":81,"x_max":753,"o":"m 753 171 l 753 0 l 227 0 l 227 171 l 753 171 m 302 987 l 302 0 l 81 0 l 81 987 l 302 987 m 685 590 l 685 425 l 227 425 l 227 590 l 685 590 m 753 987 l 753 816 l 227 816 l 227 987 l 753 987 z "},"É":{"ha":779,"x_min":81,"x_max":753,"o":"m 753 171 l 753 0 l 227 0 l 227 171 l 753 171 m 302 987 l 302 0 l 81 0 l 81 987 l 302 987 m 685 590 l 685 425 l 227 425 l 227 590 l 685 590 m 753 987 l 753 816 l 227 816 l 227 987 l 753 987 m 335 1042 l 469 1253 l 696 1253 l 508 1042 l 335 1042 z "},"Ĕ":{"ha":779,"x_min":81,"x_max":753,"o":"m 753 171 l 753 0 l 227 0 l 227 171 l 753 171 m 302 987 l 302 0 l 81 0 l 81 987 l 302 987 m 685 590 l 685 425 l 227 425 l 227 590 l 685 590 m 753 987 l 753 816 l 227 816 l 227 987 l 753 987 m 530 1250 l 678 1250 q 612 1103 678 1160 q 435 1046 547 1046 q 257 1103 323 1046 q 191 1250 191 1160 l 338 1250 q 360 1188 338 1215 q 435 1162 382 1162 q 509 1188 488 1162 q 530 1250 530 1215 z "},"Ě":{"ha":779,"x_min":81,"x_max":753,"o":"m 753 171 l 753 0 l 227 0 l 227 171 l 753 171 m 302 987 l 302 0 l 81 0 l 81 987 l 302 987 m 685 590 l 685 425 l 227 425 l 227 590 l 685 590 m 753 987 l 753 816 l 227 816 l 227 987 l 753 987 m 334 1254 l 434 1159 l 534 1254 l 715 1254 l 715 1246 l 503 1055 l 366 1055 l 153 1248 l 153 1254 l 334 1254 z "},"Ê":{"ha":779,"x_min":81,"x_max":753,"o":"m 753 171 l 753 0 l 227 0 l 227 171 l 753 171 m 302 987 l 302 0 l 81 0 l 81 987 l 302 987 m 685 590 l 685 425 l 227 425 l 227 590 l 685 590 m 753 987 l 753 816 l 227 816 l 227 987 l 753 987 m 495 1253 l 709 1063 l 709 1055 l 541 1055 l 434 1151 l 328 1055 l 163 1055 l 163 1066 l 373 1253 l 495 1253 z "},"Ë":{"ha":779,"x_min":81,"x_max":753,"o":"m 753 171 l 753 0 l 227 0 l 227 171 l 753 171 m 302 987 l 302 0 l 81 0 l 81 987 l 302 987 m 685 590 l 685 425 l 227 425 l 227 590 l 685 590 m 753 987 l 753 816 l 227 816 l 227 987 l 753 987 m 164 1138 q 193 1200 164 1175 q 262 1225 221 1225 q 332 1200 303 1225 q 360 1138 360 1175 q 332 1076 360 1101 q 262 1051 303 1051 q 193 1076 221 1051 q 164 1138 164 1101 m 507 1138 q 535 1200 507 1175 q 604 1225 564 1225 q 674 1200 646 1225 q 702 1138 702 1175 q 674 1076 702 1101 q 604 1050 646 1050 q 535 1076 564 1050 q 507 1138 507 1101 z "},"Ė":{"ha":779,"x_min":81,"x_max":753,"o":"m 753 171 l 753 0 l 227 0 l 227 171 l 753 171 m 302 987 l 302 0 l 81 0 l 81 987 l 302 987 m 685 590 l 685 425 l 227 425 l 227 590 l 685 590 m 753 987 l 753 816 l 227 816 l 227 987 l 753 987 m 328 1158 q 357 1226 328 1200 q 433 1253 387 1253 q 511 1226 481 1253 q 540 1158 540 1200 q 511 1090 540 1117 q 433 1063 481 1063 q 357 1090 387 1063 q 328 1158 328 1117 z "},"È":{"ha":779,"x_min":81,"x_max":753,"o":"m 753 171 l 753 0 l 227 0 l 227 171 l 753 171 m 302 987 l 302 0 l 81 0 l 81 987 l 302 987 m 685 590 l 685 425 l 227 425 l 227 590 l 685 590 m 753 987 l 753 816 l 227 816 l 227 987 l 753 987 m 402 1253 l 536 1042 l 363 1042 l 175 1253 l 402 1253 z "},"Ē":{"ha":779,"x_min":81,"x_max":753,"o":"m 753 171 l 753 0 l 227 0 l 227 171 l 753 171 m 302 987 l 302 0 l 81 0 l 81 987 l 302 987 m 685 590 l 685 425 l 227 425 l 227 590 l 685 590 m 753 987 l 753 816 l 227 816 l 227 987 l 753 987 m 669 1196 l 669 1082 l 201 1082 l 201 1196 l 669 1196 z "},"Ŋ":{"ha":982,"x_min":82,"x_max":899,"o":"m 82 987 l 302 987 l 302 0 l 82 0 l 82 987 m 147 906 l 302 987 l 835 81 l 679 0 l 147 906 m 679 987 l 899 987 l 899 -13 q 826 -223 899 -150 q 626 -296 753 -296 q 573 -294 598 -296 q 520 -285 549 -292 l 530 -117 q 560 -123 546 -121 q 597 -125 574 -125 q 658 -96 637 -125 q 679 -13 679 -68 l 679 987 z "},"Ę":{"ha":779,"x_min":81,"x_max":753,"o":"m 753 171 l 753 0 l 227 0 l 227 171 l 753 171 m 302 987 l 302 0 l 81 0 l 81 987 l 302 987 m 685 590 l 685 425 l 227 425 l 227 590 l 685 590 m 753 987 l 753 816 l 227 816 l 227 987 l 753 987 m 521 41 l 635 0 q 557 -54 582 -28 q 533 -116 533 -80 q 543 -147 533 -134 q 576 -159 552 -159 q 605 -155 594 -159 q 625 -146 616 -150 l 649 -255 q 605 -275 632 -265 q 537 -285 578 -285 q 424 -249 471 -285 q 378 -142 378 -212 q 391 -76 378 -109 q 434 -14 404 -44 q 521 41 465 16 z "},"Ð":{"ha":921,"x_min":3,"x_max":867,"o":"m 414 0 l 197 0 l 199 171 l 414 171 q 539 205 488 171 q 616 307 590 239 q 643 471 643 374 l 643 517 q 616 681 643 614 q 539 782 590 748 q 413 816 488 816 l 193 816 l 193 987 l 413 987 q 649 928 547 987 q 809 762 751 869 q 867 515 867 656 l 867 471 q 810 225 867 331 q 650 59 752 119 q 414 0 547 0 m 323 987 l 323 0 l 102 0 l 102 987 l 323 987 m 489 559 l 489 434 l 3 434 l 3 559 l 489 559 z "},"€":{"ha":801,"x_min":59,"x_max":747,"o":"m 597 157 q 662 162 631 157 q 721 178 693 167 l 747 7 q 662 -7 707 -2 q 572 -13 618 -13 q 366 29 456 -13 q 224 155 276 71 q 173 364 173 239 l 173 600 q 226 820 173 731 q 373 955 279 909 q 590 1000 467 1000 q 670 995 630 1000 q 747 979 709 989 l 721 808 q 664 824 696 818 q 603 829 633 829 q 449 777 503 829 q 394 601 394 724 l 394 364 q 419 239 394 284 q 491 175 445 193 q 597 157 536 157 m 613 641 l 613 537 l 59 537 l 59 641 l 613 641 m 613 453 l 613 348 l 59 348 l 59 453 l 613 453 z "},"F":{"ha":761,"x_min":81,"x_max":734,"o":"m 302 987 l 302 0 l 81 0 l 81 987 l 302 987 m 691 571 l 691 400 l 241 400 l 241 571 l 691 571 m 734 987 l 734 816 l 241 816 l 241 987 l 734 987 z "},"G":{"ha":947,"x_min":60,"x_max":877,"o":"m 877 522 l 877 123 q 803 64 852 96 q 675 9 753 32 q 491 -14 598 -14 q 265 42 362 -14 q 114 205 168 98 q 60 465 60 312 l 60 523 q 113 782 60 675 q 260 945 166 889 q 478 1002 355 1002 q 694 959 610 1002 q 822 842 779 917 q 876 671 866 768 l 663 671 q 636 756 656 720 q 580 811 616 792 q 485 831 543 831 q 377 797 422 831 q 308 694 332 762 q 284 524 284 625 l 284 465 q 308 295 284 363 q 382 192 332 227 q 505 157 431 157 q 578 164 549 157 q 627 183 608 172 q 656 203 646 194 l 656 368 l 480 368 l 480 522 l 877 522 z "},"Ğ":{"ha":947,"x_min":60,"x_max":877,"o":"m 877 522 l 877 123 q 803 64 852 96 q 675 9 753 32 q 491 -14 598 -14 q 265 42 362 -14 q 114 205 168 98 q 60 465 60 312 l 60 523 q 113 782 60 675 q 260 945 166 889 q 478 1002 355 1002 q 694 959 610 1002 q 822 842 779 917 q 876 671 866 768 l 663 671 q 636 756 656 720 q 580 811 616 792 q 485 831 543 831 q 377 797 422 831 q 308 694 332 762 q 284 524 284 625 l 284 465 q 308 295 284 363 q 382 192 332 227 q 505 157 431 157 q 578 164 549 157 q 627 183 608 172 q 656 203 646 194 l 656 368 l 480 368 l 480 522 l 877 522 m 574 1252 l 722 1252 q 656 1105 722 1162 q 478 1048 590 1048 q 300 1105 366 1048 q 235 1252 235 1162 l 382 1252 q 404 1191 382 1217 q 478 1164 425 1164 q 552 1191 531 1164 q 574 1252 574 1217 z "},"Ĝ":{"ha":947,"x_min":60,"x_max":877,"o":"m 877 522 l 877 123 q 803 64 852 96 q 675 9 753 32 q 491 -14 598 -14 q 265 42 362 -14 q 114 205 168 98 q 60 465 60 312 l 60 523 q 113 782 60 675 q 260 945 166 889 q 478 1002 355 1002 q 694 959 610 1002 q 822 842 779 917 q 876 671 866 768 l 663 671 q 636 756 656 720 q 580 811 616 792 q 485 831 543 831 q 377 797 422 831 q 308 694 332 762 q 284 524 284 625 l 284 465 q 308 295 284 363 q 382 192 332 227 q 505 157 431 157 q 578 164 549 157 q 627 183 608 172 q 656 203 646 194 l 656 368 l 480 368 l 480 522 l 877 522 m 538 1255 l 752 1065 l 752 1057 l 585 1057 l 477 1153 l 371 1057 l 207 1057 l 207 1068 l 416 1255 l 538 1255 z "},"Ģ":{"ha":947,"x_min":60,"x_max":877,"o":"m 877 522 l 877 123 q 803 64 852 96 q 675 9 753 32 q 491 -14 598 -14 q 265 42 362 -14 q 114 205 168 98 q 60 465 60 312 l 60 523 q 113 782 60 675 q 260 945 166 889 q 478 1002 355 1002 q 694 959 610 1002 q 822 842 779 917 q 876 671 866 768 l 663 671 q 636 756 656 720 q 580 811 616 792 q 485 831 543 831 q 377 797 422 831 q 308 694 332 762 q 284 524 284 625 l 284 465 q 308 295 284 363 q 382 192 332 227 q 505 157 431 157 q 578 164 549 157 q 627 183 608 172 q 656 203 646 194 l 656 368 l 480 368 l 480 522 l 877 522 m 568 -62 l 568 -110 q 539 -242 568 -176 q 471 -351 511 -309 l 370 -298 q 406 -221 392 -261 q 420 -121 420 -180 l 420 -62 l 568 -62 z "},"H":{"ha":979,"x_min":81,"x_max":897,"o":"m 744 590 l 744 419 l 233 419 l 233 590 l 744 590 m 302 987 l 302 0 l 81 0 l 81 987 l 302 987 m 897 987 l 897 0 l 676 0 l 676 987 l 897 987 z "},"Ħ":{"ha":1006,"x_min":22,"x_max":991,"o":"m 991 835 l 991 715 l 22 715 l 22 835 l 991 835 m 758 590 l 758 419 l 246 419 l 246 590 l 758 590 m 316 987 l 316 0 l 96 0 l 96 987 l 316 987 m 910 987 l 910 0 l 690 0 l 690 987 l 910 987 z "},"Ĥ":{"ha":979,"x_min":81,"x_max":897,"o":"m 744 590 l 744 419 l 233 419 l 233 590 l 744 590 m 302 987 l 302 0 l 81 0 l 81 987 l 302 987 m 897 987 l 897 0 l 676 0 l 676 987 l 897 987 m 553 1253 l 767 1063 l 767 1055 l 600 1055 l 492 1151 l 386 1055 l 222 1055 l 222 1066 l 431 1253 l 553 1253 z "},"I":{"ha":413,"x_min":96,"x_max":317,"o":"m 317 987 l 317 0 l 96 0 l 96 987 l 317 987 z "},"Ĳ":{"ha":1192,"x_min":96,"x_max":1111,"o":"m 317 987 l 317 0 l 96 0 l 96 987 l 317 987 m 891 307 l 891 987 l 1111 987 l 1111 307 q 1066 136 1111 208 q 946 25 1022 64 q 776 -14 871 -14 q 602 19 678 -14 q 483 120 526 52 q 440 294 440 189 l 661 294 q 691 187 661 216 q 776 157 722 157 q 837 175 811 157 q 877 225 863 192 q 891 307 891 259 z "},"Í":{"ha":413,"x_min":96,"x_max":468,"o":"m 317 987 l 317 0 l 96 0 l 96 987 l 317 987 m 106 1042 l 241 1253 l 467 1253 l 279 1042 l 106 1042 z "},"Ĭ":{"ha":413,"x_min":-37,"x_max":450,"o":"m 317 987 l 317 0 l 96 0 l 96 987 l 317 987 m 302 1250 l 450 1250 q 384 1103 450 1160 q 206 1046 318 1046 q 28 1103 94 1046 q -37 1250 -37 1160 l 110 1250 q 132 1188 110 1215 q 206 1162 153 1162 q 280 1188 259 1162 q 302 1250 302 1215 z "},"Î":{"ha":413,"x_min":-65,"x_max":481,"o":"m 317 987 l 317 0 l 96 0 l 96 987 l 317 987 m 267 1253 l 481 1063 l 481 1055 l 313 1055 l 206 1151 l 100 1055 l -64 1055 l -64 1066 l 145 1253 l 267 1253 z "},"Ï":{"ha":413,"x_min":-64,"x_max":473,"o":"m 317 987 l 317 0 l 96 0 l 96 987 l 317 987 m -64 1138 q -36 1200 -64 1175 q 33 1225 -7 1225 q 103 1200 75 1225 q 132 1138 132 1175 q 103 1076 132 1101 q 33 1051 75 1051 q -36 1076 -7 1051 q -64 1138 -64 1101 m 278 1138 q 307 1200 278 1175 q 376 1225 335 1225 q 445 1200 417 1225 q 473 1138 473 1175 q 445 1076 473 1101 q 376 1050 417 1050 q 307 1076 335 1050 q 278 1138 278 1101 z "},"İ":{"ha":413,"x_min":96,"x_max":317,"o":"m 317 987 l 317 0 l 96 0 l 96 987 l 317 987 m 99 1158 q 129 1226 99 1200 q 205 1253 158 1253 q 282 1226 253 1253 q 311 1158 311 1200 q 282 1090 311 1117 q 205 1063 253 1063 q 129 1090 158 1063 q 99 1158 99 1117 z "},"Ì":{"ha":413,"x_min":-53,"x_max":317,"o":"m 317 987 l 317 0 l 96 0 l 96 987 l 317 987 m 174 1253 l 308 1042 l 135 1042 l -54 1253 l 174 1253 z "},"Ī":{"ha":413,"x_min":-28,"x_max":440,"o":"m 317 987 l 317 0 l 96 0 l 96 987 l 317 987 m 440 1196 l 440 1082 l -28 1082 l -28 1196 l 440 1196 z "},"Į":{"ha":413,"x_min":17,"x_max":317,"o":"m 317 987 l 317 0 l 96 0 l 96 987 l 317 987 m 159 41 l 273 1 q 196 -53 221 -27 q 172 -115 172 -79 q 181 -146 172 -134 q 214 -159 191 -159 q 244 -154 233 -159 q 264 -145 256 -149 l 288 -254 q 244 -274 271 -264 q 176 -284 217 -284 q 63 -248 110 -284 q 17 -141 17 -212 q 30 -76 17 -108 q 73 -14 42 -43 q 159 41 104 16 z "},"Ĩ":{"ha":413,"x_min":-54,"x_max":464,"o":"m 317 987 l 317 0 l 96 0 l 96 987 l 317 987 m 345 1252 l 464 1244 q 444 1154 464 1195 q 389 1087 424 1112 q 309 1063 354 1063 q 254 1071 277 1063 q 210 1092 230 1080 q 168 1112 189 1103 q 121 1121 147 1121 q 83 1105 99 1121 q 67 1057 67 1088 l -54 1064 q -34 1154 -54 1112 q 21 1221 -14 1196 q 101 1246 56 1246 q 152 1237 128 1246 q 197 1217 175 1229 q 241 1197 219 1206 q 289 1188 264 1188 q 328 1204 311 1188 q 345 1252 345 1221 z "},"J":{"ha":779,"x_min":27,"x_max":698,"o":"m 478 307 l 478 987 l 698 987 l 698 307 q 653 136 698 208 q 533 25 609 64 q 363 -14 458 -14 q 189 19 265 -14 q 70 120 113 52 q 27 294 27 189 l 248 294 q 278 187 248 216 q 363 157 309 157 q 424 175 398 157 q 464 225 450 192 q 478 307 478 259 z "},"Ĵ":{"ha":779,"x_min":27,"x_max":857,"o":"m 478 307 l 478 987 l 698 987 l 698 307 q 653 136 698 208 q 533 25 609 64 q 363 -14 458 -14 q 189 19 265 -14 q 70 120 113 52 q 27 294 27 189 l 248 294 q 278 187 248 216 q 363 157 309 157 q 424 175 398 157 q 464 225 450 192 q 478 307 478 259 m 644 1252 l 857 1062 l 857 1054 l 690 1054 l 583 1149 l 476 1054 l 312 1054 l 312 1065 l 522 1252 l 644 1252 z "},"K":{"ha":886,"x_min":81,"x_max":898,"o":"m 302 987 l 302 0 l 81 0 l 81 987 l 302 987 m 892 987 l 506 494 l 281 250 l 241 455 l 389 668 l 621 987 l 892 987 m 636 0 l 363 451 l 532 582 l 898 0 l 636 0 z "},"Ķ":{"ha":886,"x_min":81,"x_max":898,"o":"m 302 987 l 302 0 l 81 0 l 81 987 l 302 987 m 892 987 l 506 494 l 281 250 l 241 455 l 389 668 l 621 987 l 892 987 m 636 0 l 363 451 l 532 582 l 898 0 l 636 0 m 514 -20 l 514 -68 q 486 -201 514 -134 q 418 -310 457 -267 l 316 -256 q 353 -179 338 -220 q 367 -79 367 -139 l 367 -20 l 514 -20 z "},"L":{"ha":752,"x_min":81,"x_max":726,"o":"m 726 171 l 726 0 l 227 0 l 227 171 l 726 171 m 302 987 l 302 0 l 81 0 l 81 987 l 302 987 z "},"Ĺ":{"ha":752,"x_min":81,"x_max":726,"o":"m 726 171 l 726 0 l 227 0 l 227 171 l 726 171 m 302 987 l 302 0 l 81 0 l 81 987 l 302 987 m 99 1040 l 233 1251 l 460 1251 l 272 1040 l 99 1040 z "},"Ľ":{"ha":752,"x_min":81,"x_max":726,"o":"m 726 171 l 726 0 l 227 0 l 227 171 l 726 171 m 302 987 l 302 0 l 81 0 l 81 987 l 302 987 m 629 988 l 629 940 q 601 808 629 874 q 533 699 572 741 l 431 752 q 468 829 454 789 q 482 929 482 869 l 482 988 l 629 988 z "},"Ļ":{"ha":752,"x_min":81,"x_max":726,"o":"m 726 171 l 726 0 l 227 0 l 227 171 l 726 171 m 302 987 l 302 0 l 81 0 l 81 987 l 302 987 m 479 -54 l 479 -102 q 451 -234 479 -168 q 383 -343 422 -300 l 281 -290 q 318 -213 304 -253 q 332 -113 332 -172 l 332 -54 l 479 -54 z "},"Ŀ":{"ha":752,"x_min":81,"x_max":726,"o":"m 726 171 l 726 0 l 227 0 l 227 171 l 726 171 m 302 987 l 302 0 l 81 0 l 81 987 l 302 987 m 404 564 q 434 633 404 606 q 510 660 463 660 q 587 633 558 660 q 616 564 616 606 q 587 497 616 524 q 510 470 558 470 q 434 497 463 470 q 404 564 404 524 z "},"Ł":{"ha":781,"x_min":18,"x_max":754,"o":"m 471 652 l 471 536 l 18 410 l 18 525 l 471 652 m 754 171 l 754 0 l 256 0 l 256 171 l 754 171 m 331 987 l 331 0 l 111 0 l 111 987 l 331 987 z "},"M":{"ha":1217,"x_min":81,"x_max":1134,"o":"m 187 987 l 370 987 l 608 281 l 844 987 l 1027 987 l 682 0 l 533 0 l 187 987 m 81 987 l 268 987 l 302 256 l 302 0 l 81 0 l 81 987 m 947 987 l 1134 987 l 1134 0 l 912 0 l 912 256 l 947 987 z "},"N":{"ha":978,"x_min":81,"x_max":896,"o":"m 896 987 l 896 0 l 675 0 l 302 638 l 302 0 l 81 0 l 81 987 l 302 987 l 676 349 l 676 987 l 896 987 z "},"Ń":{"ha":978,"x_min":81,"x_max":896,"o":"m 896 987 l 896 0 l 675 0 l 302 638 l 302 0 l 81 0 l 81 987 l 302 987 l 676 349 l 676 987 l 896 987 m 393 1041 l 528 1252 l 754 1252 l 566 1041 l 393 1041 z "},"Ň":{"ha":978,"x_min":81,"x_max":896,"o":"m 896 987 l 896 0 l 675 0 l 302 638 l 302 0 l 81 0 l 81 987 l 302 987 l 676 349 l 676 987 l 896 987 m 392 1253 l 492 1158 l 593 1253 l 773 1253 l 773 1245 l 561 1054 l 425 1054 l 211 1246 l 211 1253 l 392 1253 z "},"Ņ":{"ha":978,"x_min":81,"x_max":896,"o":"m 896 987 l 896 0 l 675 0 l 302 638 l 302 0 l 81 0 l 81 987 l 302 987 l 676 349 l 676 987 l 896 987 m 567 -60 l 567 -108 q 538 -240 567 -174 q 471 -349 510 -307 l 369 -296 q 406 -219 391 -259 q 420 -119 420 -178 l 420 -60 l 567 -60 z "},"Ñ":{"ha":978,"x_min":81,"x_max":896,"o":"m 896 987 l 896 0 l 675 0 l 302 638 l 302 0 l 81 0 l 81 987 l 302 987 l 676 349 l 676 987 l 896 987 m 631 1251 l 751 1244 q 731 1153 751 1194 q 676 1087 711 1112 q 596 1062 641 1062 q 541 1070 564 1062 q 496 1091 517 1079 q 455 1112 476 1103 q 408 1120 434 1120 q 370 1104 386 1120 q 354 1057 354 1088 l 233 1063 q 253 1153 233 1112 q 308 1220 273 1195 q 388 1245 342 1245 q 438 1237 415 1245 q 484 1217 462 1228 q 528 1196 506 1205 q 576 1187 551 1187 q 615 1204 598 1187 q 631 1251 631 1220 z "},"O":{"ha":958,"x_min":53,"x_max":905,"o":"m 905 515 l 905 471 q 851 212 905 321 q 701 45 797 104 q 480 -14 605 -14 q 258 45 355 -14 q 107 212 162 104 q 53 471 53 321 l 53 515 q 107 775 53 666 q 257 942 161 884 q 479 1001 353 1001 q 700 942 604 1001 q 850 775 796 884 q 905 515 905 666 m 682 471 l 682 517 q 658 686 682 617 q 589 791 634 755 q 479 827 543 827 q 368 791 412 827 q 300 686 323 755 q 277 517 277 617 l 277 471 q 300 302 277 372 q 369 196 323 232 q 480 160 414 160 q 590 196 545 160 q 658 302 635 232 q 682 471 682 372 z "},"Œ":{"ha":1348,"x_min":64,"x_max":1289,"o":"m 481 1001 q 583 997 533 1001 q 679 987 633 993 l 679 819 q 585 831 635 826 q 481 837 534 837 q 373 810 419 837 q 301 730 326 783 q 276 598 276 677 l 276 391 q 301 258 276 311 q 374 178 327 205 q 483 151 420 151 q 585 156 535 151 q 679 169 635 161 l 679 0 q 584 -9 633 -5 q 483 -14 534 -14 q 265 38 359 -14 q 117 180 170 89 q 64 391 64 271 l 64 597 q 117 808 64 717 q 264 950 170 899 q 481 1001 358 1001 m 1288 171 l 1288 0 l 762 0 l 762 171 l 1288 171 m 838 987 l 838 0 l 617 0 l 617 987 l 838 987 m 1220 590 l 1220 425 l 762 425 l 762 590 l 1220 590 m 1289 987 l 1289 816 l 762 816 l 762 987 l 1289 987 z "},"Ó":{"ha":958,"x_min":53,"x_max":905,"o":"m 905 515 l 905 471 q 851 212 905 321 q 701 45 797 104 q 480 -14 605 -14 q 258 45 355 -14 q 107 212 162 104 q 53 471 53 321 l 53 515 q 107 775 53 666 q 257 942 161 884 q 479 1001 353 1001 q 700 942 604 1001 q 850 775 796 884 q 905 515 905 666 m 682 471 l 682 517 q 658 686 682 617 q 589 791 634 755 q 479 827 543 827 q 368 791 412 827 q 300 686 323 755 q 277 517 277 617 l 277 471 q 300 302 277 372 q 369 196 323 232 q 480 160 414 160 q 590 196 545 160 q 658 302 635 232 q 682 471 682 372 m 379 1041 l 513 1252 l 740 1252 l 552 1041 l 379 1041 z "},"Ŏ":{"ha":958,"x_min":53,"x_max":905,"o":"m 905 515 l 905 471 q 851 212 905 321 q 701 45 797 104 q 480 -14 605 -14 q 258 45 355 -14 q 107 212 162 104 q 53 471 53 321 l 53 515 q 107 775 53 666 q 257 942 161 884 q 479 1001 353 1001 q 700 942 604 1001 q 850 775 796 884 q 905 515 905 666 m 682 471 l 682 517 q 658 686 682 617 q 589 791 634 755 q 479 827 543 827 q 368 791 412 827 q 300 686 323 755 q 277 517 277 617 l 277 471 q 300 302 277 372 q 369 196 323 232 q 480 160 414 160 q 590 196 545 160 q 658 302 635 232 q 682 471 682 372 m 574 1249 l 722 1249 q 656 1102 722 1158 q 478 1045 590 1045 q 300 1102 366 1045 q 235 1249 235 1158 l 382 1249 q 404 1187 382 1214 q 478 1160 425 1160 q 552 1187 531 1160 q 574 1249 574 1214 z "},"Ô":{"ha":958,"x_min":53,"x_max":905,"o":"m 905 515 l 905 471 q 851 212 905 321 q 701 45 797 104 q 480 -14 605 -14 q 258 45 355 -14 q 107 212 162 104 q 53 471 53 321 l 53 515 q 107 775 53 666 q 257 942 161 884 q 479 1001 353 1001 q 700 942 604 1001 q 850 775 796 884 q 905 515 905 666 m 682 471 l 682 517 q 658 686 682 617 q 589 791 634 755 q 479 827 543 827 q 368 791 412 827 q 300 686 323 755 q 277 517 277 617 l 277 471 q 300 302 277 372 q 369 196 323 232 q 480 160 414 160 q 590 196 545 160 q 658 302 635 232 q 682 471 682 372 m 539 1252 l 753 1062 l 753 1054 l 585 1054 l 478 1149 l 372 1054 l 208 1054 l 208 1065 l 417 1252 l 539 1252 z "},"Ö":{"ha":958,"x_min":53,"x_max":905,"o":"m 905 515 l 905 471 q 851 212 905 321 q 701 45 797 104 q 480 -14 605 -14 q 258 45 355 -14 q 107 212 162 104 q 53 471 53 321 l 53 515 q 107 775 53 666 q 257 942 161 884 q 479 1001 353 1001 q 700 942 604 1001 q 850 775 796 884 q 905 515 905 666 m 682 471 l 682 517 q 658 686 682 617 q 589 791 634 755 q 479 827 543 827 q 368 791 412 827 q 300 686 323 755 q 277 517 277 617 l 277 471 q 300 302 277 372 q 369 196 323 232 q 480 160 414 160 q 590 196 545 160 q 658 302 635 232 q 682 471 682 372 m 208 1137 q 236 1199 208 1173 q 305 1224 264 1224 q 375 1199 347 1224 q 404 1137 404 1173 q 375 1075 404 1100 q 305 1050 347 1050 q 236 1075 264 1050 q 208 1137 208 1100 m 550 1137 q 578 1198 550 1173 q 648 1223 607 1223 q 717 1198 689 1223 q 745 1137 745 1173 q 717 1075 745 1100 q 648 1049 689 1049 q 578 1075 607 1049 q 550 1137 550 1100 z "},"Ò":{"ha":958,"x_min":53,"x_max":905,"o":"m 905 515 l 905 471 q 851 212 905 321 q 701 45 797 104 q 480 -14 605 -14 q 258 45 355 -14 q 107 212 162 104 q 53 471 53 321 l 53 515 q 107 775 53 666 q 257 942 161 884 q 479 1001 353 1001 q 700 942 604 1001 q 850 775 796 884 q 905 515 905 666 m 682 471 l 682 517 q 658 686 682 617 q 589 791 634 755 q 479 827 543 827 q 368 791 412 827 q 300 686 323 755 q 277 517 277 617 l 277 471 q 300 302 277 372 q 369 196 323 232 q 480 160 414 160 q 590 196 545 160 q 658 302 635 232 q 682 471 682 372 m 446 1252 l 581 1041 l 408 1041 l 219 1252 l 446 1252 z "},"Ơ":{"ha":981,"x_min":53,"x_max":1002,"o":"m 867 1059 l 1002 1059 q 942 836 1002 915 q 751 756 883 756 l 751 864 q 823 887 798 864 q 858 955 848 911 q 867 1059 867 998 m 905 515 l 905 471 q 850 212 905 321 q 701 45 796 104 q 479 -14 605 -14 q 258 45 355 -14 q 107 212 162 104 q 53 471 53 321 l 53 515 q 107 775 53 666 q 257 942 161 884 q 478 1001 353 1001 q 700 942 604 1001 q 850 775 795 884 q 905 515 905 666 m 681 471 l 681 517 q 657 686 681 617 q 588 791 633 755 q 478 827 543 827 q 368 791 412 827 q 299 686 323 755 q 276 517 276 617 l 276 471 q 299 302 276 372 q 368 196 323 232 q 479 160 414 160 q 589 196 545 160 q 657 302 634 232 q 681 471 681 372 z "},"Ő":{"ha":958,"x_min":53,"x_max":905,"o":"m 905 515 l 905 471 q 851 212 905 321 q 701 45 797 104 q 480 -14 605 -14 q 258 45 355 -14 q 107 212 162 104 q 53 471 53 321 l 53 515 q 107 775 53 666 q 257 942 161 884 q 479 1001 353 1001 q 700 942 604 1001 q 850 775 796 884 q 905 515 905 666 m 682 471 l 682 517 q 658 686 682 617 q 589 791 634 755 q 479 827 543 827 q 368 791 412 827 q 300 686 323 755 q 277 517 277 617 l 277 471 q 300 302 277 372 q 369 196 323 232 q 480 160 414 160 q 590 196 545 160 q 658 302 635 232 q 682 471 682 372 m 513 1048 l 667 1251 l 848 1251 l 667 1048 l 513 1048 m 262 1048 l 393 1251 l 574 1251 l 415 1048 l 262 1048 z "},"Ō":{"ha":958,"x_min":53,"x_max":905,"o":"m 905 515 l 905 471 q 851 212 905 321 q 701 45 797 104 q 480 -14 605 -14 q 258 45 355 -14 q 107 212 162 104 q 53 471 53 321 l 53 515 q 107 775 53 666 q 257 942 161 884 q 479 1001 353 1001 q 700 942 604 1001 q 850 775 796 884 q 905 515 905 666 m 682 471 l 682 517 q 658 686 682 617 q 589 791 634 755 q 479 827 543 827 q 368 791 412 827 q 300 686 323 755 q 277 517 277 617 l 277 471 q 300 302 277 372 q 369 196 323 232 q 480 160 414 160 q 590 196 545 160 q 658 302 635 232 q 682 471 682 372 m 712 1196 l 712 1082 l 244 1082 l 244 1196 l 712 1196 z "},"Ω":{"ha":935,"x_min":68,"x_max":857,"o":"m 607 531 l 607 587 q 590 720 607 667 q 540 800 572 773 q 462 827 507 827 q 385 800 417 827 q 335 720 353 773 q 318 587 318 667 l 318 531 q 327 386 318 448 q 350 282 335 325 q 386 214 365 240 q 431 176 406 188 l 431 77 q 303 122 367 85 q 186 220 239 159 q 101 360 133 281 q 68 531 68 439 l 68 586 q 118 801 68 707 q 256 947 168 895 q 462 1000 345 1000 q 668 947 578 1000 q 807 801 757 895 q 857 586 857 707 l 857 531 q 825 360 857 439 q 741 221 793 281 q 625 123 688 160 q 498 77 562 86 l 498 176 q 542 215 522 189 q 576 283 561 241 q 599 387 591 326 q 607 531 607 448 m 498 0 l 498 173 l 844 173 l 844 0 l 498 0 m 81 0 l 81 173 l 431 173 l 431 0 l 81 0 z "},"Ø":{"ha":956,"x_min":59,"x_max":912,"o":"m 867 1029 l 231 -64 l 97 -64 l 734 1029 l 867 1029 m 912 515 l 912 471 q 858 212 912 321 q 707 45 803 104 q 486 -14 611 -14 q 264 45 361 -14 q 114 212 168 104 q 59 471 59 321 l 59 515 q 113 775 59 666 q 263 942 168 884 q 485 1001 359 1001 q 706 942 610 1001 q 858 775 803 884 q 912 515 912 666 m 688 471 l 688 517 q 664 686 688 617 q 595 791 640 755 q 485 827 550 827 q 374 791 419 827 q 306 686 329 755 q 283 517 283 617 l 283 471 q 306 302 283 372 q 375 196 330 232 q 486 160 420 160 q 596 196 551 160 q 664 302 641 232 q 688 471 688 372 z "},"Ǿ":{"ha":956,"x_min":59,"x_max":912,"o":"m 867 1029 l 231 -64 l 97 -64 l 734 1029 l 867 1029 m 912 515 l 912 471 q 858 212 912 321 q 707 45 803 104 q 486 -14 611 -14 q 264 45 361 -14 q 114 212 168 104 q 59 471 59 321 l 59 515 q 113 775 59 666 q 263 942 168 884 q 485 1001 359 1001 q 706 942 610 1001 q 858 775 803 884 q 912 515 912 666 m 688 471 l 688 517 q 664 686 688 617 q 595 791 640 755 q 485 827 550 827 q 374 791 419 827 q 306 686 329 755 q 283 517 283 617 l 283 471 q 306 302 283 372 q 375 196 330 232 q 486 160 420 160 q 596 196 551 160 q 664 302 641 232 q 688 471 688 372 m 387 1091 l 521 1302 l 747 1302 l 559 1091 l 387 1091 z "},"Õ":{"ha":958,"x_min":53,"x_max":905,"o":"m 905 515 l 905 471 q 851 212 905 321 q 701 45 797 104 q 480 -14 605 -14 q 258 45 355 -14 q 107 212 162 104 q 53 471 53 321 l 53 515 q 107 775 53 666 q 257 942 161 884 q 479 1001 353 1001 q 700 942 604 1001 q 850 775 796 884 q 905 515 905 666 m 682 471 l 682 517 q 658 686 682 617 q 589 791 634 755 q 479 827 543 827 q 368 791 412 827 q 300 686 323 755 q 277 517 277 617 l 277 471 q 300 302 277 372 q 369 196 323 232 q 480 160 414 160 q 590 196 545 160 q 658 302 635 232 q 682 471 682 372 m 616 1251 l 736 1244 q 716 1153 736 1194 q 661 1087 696 1112 q 581 1062 626 1062 q 526 1070 549 1062 q 481 1091 502 1079 q 440 1112 461 1103 q 393 1120 419 1120 q 355 1104 371 1120 q 339 1057 339 1088 l 218 1063 q 238 1153 218 1112 q 293 1220 258 1195 q 373 1245 328 1245 q 424 1237 400 1245 q 469 1217 447 1228 q 513 1196 491 1205 q 561 1187 536 1187 q 600 1204 583 1187 q 616 1251 616 1220 z "},"P":{"ha":900,"x_min":81,"x_max":848,"o":"m 471 343 l 222 343 l 222 515 l 471 515 q 559 533 526 515 q 609 584 593 551 q 625 656 625 616 q 609 735 625 699 q 559 793 593 771 q 471 816 526 816 l 302 816 l 302 0 l 81 0 l 81 987 l 471 987 q 673 945 589 987 q 803 828 758 902 q 848 658 848 753 q 803 492 848 562 q 673 382 758 421 q 471 343 589 343 z "},"Q":{"ha":958,"x_min":53,"x_max":906,"o":"m 625 155 l 897 -60 l 758 -178 l 492 37 l 625 155 m 906 515 l 906 471 q 852 212 906 321 q 702 45 798 104 q 480 -14 606 -14 q 258 45 355 -14 q 107 212 162 104 q 53 471 53 321 l 53 515 q 107 775 53 666 q 257 942 161 884 q 479 1001 353 1001 q 701 942 604 1001 q 851 775 797 884 q 906 515 906 666 m 682 471 l 682 517 q 658 686 682 617 q 589 791 634 755 q 479 827 544 827 q 368 791 413 827 q 300 686 323 755 q 277 517 277 617 l 277 471 q 300 302 277 372 q 369 196 323 232 q 480 160 414 160 q 590 196 545 160 q 658 302 635 232 q 682 471 682 372 z "},"R":{"ha":898,"x_min":81,"x_max":865,"o":"m 81 987 l 460 987 q 657 954 574 987 q 785 853 740 920 q 829 689 829 787 q 803 551 829 608 q 729 456 777 494 q 617 396 681 419 l 545 357 l 222 357 l 221 528 l 461 528 q 543 546 511 528 q 592 596 576 564 q 609 671 609 628 q 572 777 609 739 q 460 816 534 816 l 302 816 l 302 0 l 81 0 l 81 987 m 628 0 l 406 439 l 640 439 l 865 10 l 865 0 l 628 0 z "},"Ŕ":{"ha":898,"x_min":81,"x_max":865,"o":"m 81 987 l 460 987 q 657 954 574 987 q 785 853 740 920 q 829 689 829 787 q 803 551 829 608 q 729 456 777 494 q 617 396 681 419 l 545 357 l 222 357 l 221 528 l 461 528 q 543 546 511 528 q 592 596 576 564 q 609 671 609 628 q 572 777 609 739 q 460 816 534 816 l 302 816 l 302 0 l 81 0 l 81 987 m 628 0 l 406 439 l 640 439 l 865 10 l 865 0 l 628 0 m 304 1041 l 439 1252 l 665 1252 l 477 1041 l 304 1041 z "},"Ř":{"ha":898,"x_min":81,"x_max":865,"o":"m 81 987 l 460 987 q 657 954 574 987 q 785 853 740 920 q 829 689 829 787 q 803 551 829 608 q 729 456 777 494 q 617 396 681 419 l 545 357 l 222 357 l 221 528 l 461 528 q 543 546 511 528 q 592 596 576 564 q 609 671 609 628 q 572 777 609 739 q 460 816 534 816 l 302 816 l 302 0 l 81 0 l 81 987 m 628 0 l 406 439 l 640 439 l 865 10 l 865 0 l 628 0 m 303 1253 l 404 1158 l 504 1253 l 684 1253 l 684 1245 l 472 1054 l 336 1054 l 122 1246 l 122 1253 l 303 1253 z "},"Ŗ":{"ha":898,"x_min":81,"x_max":865,"o":"m 81 987 l 460 987 q 657 954 574 987 q 785 853 740 920 q 829 689 829 787 q 803 551 829 608 q 729 456 777 494 q 617 396 681 419 l 545 357 l 222 357 l 221 528 l 461 528 q 543 546 511 528 q 592 596 576 564 q 609 671 609 628 q 572 777 609 739 q 460 816 534 816 l 302 816 l 302 0 l 81 0 l 81 987 m 628 0 l 406 439 l 640 439 l 865 10 l 865 0 l 628 0 m 490 -54 l 490 -102 q 462 -234 490 -168 q 394 -343 433 -300 l 292 -290 q 329 -213 315 -253 q 343 -113 343 -172 l 343 -54 l 490 -54 z "},"S":{"ha":862,"x_min":45,"x_max":814,"o":"m 593 260 q 579 318 593 294 q 526 365 565 343 q 409 412 486 387 q 244 481 321 441 q 122 579 168 520 q 75 725 75 638 q 123 870 75 808 q 256 967 172 932 q 448 1001 340 1001 q 639 963 557 1001 q 768 856 722 924 q 814 696 814 787 l 594 696 q 577 767 594 736 q 527 815 561 798 q 444 833 494 833 q 362 818 395 833 q 312 779 329 804 q 296 724 296 753 q 318 668 296 692 q 382 624 340 644 q 485 585 425 604 q 664 508 591 551 q 775 404 737 464 q 814 262 814 344 q 769 113 814 174 q 643 19 724 51 q 452 -14 562 -14 q 305 6 378 -14 q 174 65 233 25 q 80 167 115 105 q 45 315 45 229 l 267 315 q 279 239 267 270 q 316 189 292 208 q 375 162 340 170 q 452 154 410 154 q 533 168 502 154 q 578 206 564 182 q 593 260 593 231 z "},"Ś":{"ha":862,"x_min":45,"x_max":814,"o":"m 593 260 q 579 318 593 294 q 526 365 565 343 q 409 412 486 387 q 244 481 321 441 q 122 579 168 520 q 75 725 75 638 q 123 870 75 808 q 256 967 172 932 q 448 1001 340 1001 q 639 963 557 1001 q 768 856 722 924 q 814 696 814 787 l 594 696 q 577 767 594 736 q 527 815 561 798 q 444 833 494 833 q 362 818 395 833 q 312 779 329 804 q 296 724 296 753 q 318 668 296 692 q 382 624 340 644 q 485 585 425 604 q 664 508 591 551 q 775 404 737 464 q 814 262 814 344 q 769 113 814 174 q 643 19 724 51 q 452 -14 562 -14 q 305 6 378 -14 q 174 65 233 25 q 80 167 115 105 q 45 315 45 229 l 267 315 q 279 239 267 270 q 316 189 292 208 q 375 162 340 170 q 452 154 410 154 q 533 168 502 154 q 578 206 564 182 q 593 260 593 231 m 346 1041 l 480 1252 l 707 1252 l 519 1041 l 346 1041 z "},"Š":{"ha":862,"x_min":45,"x_max":814,"o":"m 593 260 q 579 318 593 294 q 526 365 565 343 q 409 412 486 387 q 244 481 321 441 q 122 579 168 520 q 75 725 75 638 q 123 870 75 808 q 256 967 172 932 q 448 1001 340 1001 q 639 963 557 1001 q 768 856 722 924 q 814 696 814 787 l 594 696 q 577 767 594 736 q 527 815 561 798 q 444 833 494 833 q 362 818 395 833 q 312 779 329 804 q 296 724 296 753 q 318 668 296 692 q 382 624 340 644 q 485 585 425 604 q 664 508 591 551 q 775 404 737 464 q 814 262 814 344 q 769 113 814 174 q 643 19 724 51 q 452 -14 562 -14 q 305 6 378 -14 q 174 65 233 25 q 80 167 115 105 q 45 315 45 229 l 267 315 q 279 239 267 270 q 316 189 292 208 q 375 162 340 170 q 452 154 410 154 q 533 168 502 154 q 578 206 564 182 q 593 260 593 231 m 345 1253 l 445 1158 l 545 1253 l 726 1253 l 726 1245 l 513 1054 l 377 1054 l 163 1246 l 163 1253 l 345 1253 z "},"Ş":{"ha":862,"x_min":45,"x_max":814,"o":"m 593 260 q 579 318 593 294 q 526 365 565 343 q 409 412 486 387 q 244 481 321 441 q 122 579 168 520 q 75 725 75 638 q 123 870 75 808 q 256 967 172 932 q 448 1001 340 1001 q 639 963 557 1001 q 768 856 722 924 q 814 696 814 787 l 594 696 q 577 767 594 736 q 527 815 561 798 q 444 833 494 833 q 362 818 395 833 q 312 779 329 804 q 296 724 296 753 q 318 668 296 692 q 382 624 340 644 q 485 585 425 604 q 664 508 591 551 q 775 404 737 464 q 814 262 814 344 q 769 113 814 174 q 643 19 724 51 q 452 -14 562 -14 q 305 6 378 -14 q 174 65 233 25 q 80 167 115 105 q 45 315 45 229 l 267 315 q 279 239 267 270 q 316 189 292 208 q 375 162 340 170 q 452 154 410 154 q 533 168 502 154 q 578 206 564 182 q 593 260 593 231 m 367 5 l 528 5 l 519 -35 q 590 -67 558 -41 q 622 -152 622 -94 q 559 -271 622 -226 q 376 -316 497 -316 l 371 -199 q 407 -193 391 -199 q 431 -175 422 -187 q 440 -144 440 -163 q 418 -106 440 -117 q 346 -92 396 -95 l 367 5 z "},"Ə":{"ha":968,"x_min":50,"x_max":906,"o":"m 479 -14 q 243 43 339 -14 q 98 205 147 100 q 50 452 50 309 l 50 566 l 741 566 l 741 393 l 270 393 l 270 371 q 290 271 270 316 q 357 199 311 226 q 479 172 404 172 q 594 208 549 172 q 663 305 640 244 q 686 438 686 366 l 686 546 q 662 681 686 620 q 578 778 637 742 q 419 814 520 814 q 259 800 328 814 q 150 773 190 786 l 117 949 q 180 969 133 956 q 295 991 228 981 q 433 1002 361 1002 q 693 943 588 1002 q 852 782 799 885 q 906 546 906 680 l 906 438 q 850 203 906 305 q 697 43 793 101 q 479 -14 600 -14 z "},"Ŝ":{"ha":862,"x_min":45,"x_max":814,"o":"m 593 260 q 579 318 593 294 q 526 365 565 343 q 409 412 486 387 q 244 481 321 441 q 122 579 168 520 q 75 725 75 638 q 123 870 75 808 q 256 967 172 932 q 448 1001 340 1001 q 639 963 557 1001 q 768 856 722 924 q 814 696 814 787 l 594 696 q 577 767 594 736 q 527 815 561 798 q 444 833 494 833 q 362 818 395 833 q 312 779 329 804 q 296 724 296 753 q 318 668 296 692 q 382 624 340 644 q 485 585 425 604 q 664 508 591 551 q 775 404 737 464 q 814 262 814 344 q 769 113 814 174 q 643 19 724 51 q 452 -14 562 -14 q 305 6 378 -14 q 174 65 233 25 q 80 167 115 105 q 45 315 45 229 l 267 315 q 279 239 267 270 q 316 189 292 208 q 375 162 340 170 q 452 154 410 154 q 533 168 502 154 q 578 206 564 182 q 593 260 593 231 m 507 1252 l 720 1062 l 720 1054 l 553 1054 l 446 1149 l 339 1054 l 175 1054 l 175 1065 l 385 1252 l 507 1252 z "},"T":{"ha":869,"x_min":26,"x_max":842,"o":"m 541 987 l 541 0 l 321 0 l 321 987 l 541 987 m 842 987 l 842 816 l 26 816 l 26 987 l 842 987 z "},"Ŧ":{"ha":869,"x_min":26,"x_max":842,"o":"m 541 987 l 541 0 l 321 0 l 321 987 l 541 987 m 842 987 l 842 816 l 26 816 l 26 987 l 842 987 m 658 627 l 658 501 l 172 501 l 172 627 l 658 627 z "},"Ť":{"ha":869,"x_min":26,"x_max":842,"o":"m 541 987 l 541 0 l 321 0 l 321 987 l 541 987 m 842 987 l 842 816 l 26 816 l 26 987 l 842 987 m 329 1253 l 429 1158 l 530 1253 l 710 1253 l 710 1245 l 498 1054 l 361 1054 l 148 1246 l 148 1253 l 329 1253 z "},"Þ":{"ha":852,"x_min":85,"x_max":812,"o":"m 85 987 l 297 987 l 297 0 l 85 0 l 85 987 m 153 808 l 441 808 q 644 769 562 808 q 770 660 727 730 q 812 500 812 591 q 770 341 812 411 q 644 232 727 272 q 441 193 562 193 l 269 193 l 269 357 l 441 357 q 533 377 498 357 q 584 430 568 397 q 600 499 600 462 q 584 570 600 537 q 533 624 568 603 q 441 644 498 644 l 297 644 l 153 808 z "},"U":{"ha":920,"x_min":75,"x_max":843,"o":"m 622 987 l 843 987 l 843 339 q 794 145 843 224 q 660 26 746 66 q 460 -14 574 -14 q 260 26 347 -14 q 124 145 174 66 q 75 339 75 224 l 75 987 l 297 987 l 297 339 q 316 235 297 275 q 372 176 336 195 q 460 157 409 157 q 548 176 512 157 q 603 235 585 195 q 622 339 622 275 l 622 987 z "},"Ú":{"ha":920,"x_min":75,"x_max":843,"o":"m 622 987 l 843 987 l 843 339 q 794 145 843 224 q 660 26 746 66 q 460 -14 574 -14 q 260 26 347 -14 q 124 145 174 66 q 75 339 75 224 l 75 987 l 297 987 l 297 339 q 316 235 297 275 q 372 176 336 195 q 460 157 409 157 q 548 176 512 157 q 603 235 585 195 q 622 339 622 275 l 622 987 m 357 1041 l 492 1252 l 718 1252 l 530 1041 l 357 1041 z "},"Ŭ":{"ha":920,"x_min":75,"x_max":843,"o":"m 622 987 l 843 987 l 843 339 q 794 145 843 224 q 660 26 746 66 q 460 -14 574 -14 q 260 26 347 -14 q 124 145 174 66 q 75 339 75 224 l 75 987 l 297 987 l 297 339 q 316 235 297 275 q 372 176 336 195 q 460 157 409 157 q 548 176 512 157 q 603 235 585 195 q 622 339 622 275 l 622 987 m 553 1249 l 701 1249 q 635 1102 701 1158 q 457 1045 569 1045 q 279 1102 345 1045 q 214 1249 214 1158 l 361 1249 q 382 1187 361 1214 q 457 1160 404 1160 q 531 1187 510 1160 q 553 1249 553 1214 z "},"Û":{"ha":920,"x_min":75,"x_max":843,"o":"m 622 987 l 843 987 l 843 339 q 794 145 843 224 q 660 26 746 66 q 460 -14 574 -14 q 260 26 347 -14 q 124 145 174 66 q 75 339 75 224 l 75 987 l 297 987 l 297 339 q 316 235 297 275 q 372 176 336 195 q 460 157 409 157 q 548 176 512 157 q 603 235 585 195 q 622 339 622 275 l 622 987 m 517 1252 l 731 1062 l 731 1054 l 564 1054 l 456 1149 l 350 1054 l 186 1054 l 186 1065 l 395 1252 l 517 1252 z "},"Ü":{"ha":920,"x_min":75,"x_max":843,"o":"m 622 987 l 843 987 l 843 339 q 794 145 843 224 q 660 26 746 66 q 460 -14 574 -14 q 260 26 347 -14 q 124 145 174 66 q 75 339 75 224 l 75 987 l 297 987 l 297 339 q 316 235 297 275 q 372 176 336 195 q 460 157 409 157 q 548 176 512 157 q 603 235 585 195 q 622 339 622 275 l 622 987 m 186 1137 q 215 1199 186 1173 q 284 1224 243 1224 q 354 1199 326 1224 q 382 1137 382 1173 q 354 1075 382 1100 q 284 1050 326 1050 q 215 1075 243 1050 q 186 1137 186 1100 m 529 1137 q 557 1198 529 1173 q 627 1223 586 1223 q 696 1198 668 1223 q 724 1137 724 1173 q 696 1075 724 1100 q 627 1049 668 1049 q 557 1075 586 1049 q 529 1137 529 1100 z "},"Ù":{"ha":920,"x_min":75,"x_max":843,"o":"m 622 987 l 843 987 l 843 339 q 794 145 843 224 q 660 26 746 66 q 460 -14 574 -14 q 260 26 347 -14 q 124 145 174 66 q 75 339 75 224 l 75 987 l 297 987 l 297 339 q 316 235 297 275 q 372 176 336 195 q 460 157 409 157 q 548 176 512 157 q 603 235 585 195 q 622 339 622 275 l 622 987 m 425 1252 l 559 1041 l 386 1041 l 197 1252 l 425 1252 z "},"Ư":{"ha":995,"x_min":75,"x_max":1107,"o":"m 973 1042 l 1107 1042 q 1081 870 1107 941 q 993 761 1056 798 q 818 724 930 724 l 818 831 q 924 857 891 831 q 965 929 956 882 q 973 1042 973 977 m 622 987 l 843 987 l 843 339 q 794 145 843 224 q 660 26 746 66 q 460 -14 574 -14 q 260 26 347 -14 q 124 145 174 66 q 75 339 75 224 l 75 987 l 297 987 l 297 339 q 316 235 297 275 q 372 176 336 195 q 460 157 409 157 q 548 176 512 157 q 603 235 585 195 q 622 339 622 275 l 622 987 z "},"Ű":{"ha":920,"x_min":75,"x_max":843,"o":"m 622 987 l 843 987 l 843 339 q 794 145 843 224 q 660 26 746 66 q 460 -14 574 -14 q 260 26 347 -14 q 124 145 174 66 q 75 339 75 224 l 75 987 l 297 987 l 297 339 q 316 235 297 275 q 372 176 336 195 q 460 157 409 157 q 548 176 512 157 q 603 235 585 195 q 622 339 622 275 l 622 987 m 492 1048 l 645 1251 l 826 1251 l 646 1048 l 492 1048 m 241 1048 l 372 1251 l 552 1251 l 393 1048 l 241 1048 z "},"Ū":{"ha":920,"x_min":75,"x_max":843,"o":"m 622 987 l 843 987 l 843 339 q 794 145 843 224 q 660 26 746 66 q 460 -14 574 -14 q 260 26 347 -14 q 124 145 174 66 q 75 339 75 224 l 75 987 l 297 987 l 297 339 q 316 235 297 275 q 372 176 336 195 q 460 157 409 157 q 548 176 512 157 q 603 235 585 195 q 622 339 622 275 l 622 987 m 691 1195 l 691 1081 l 223 1081 l 223 1195 l 691 1195 z "},"Ų":{"ha":920,"x_min":75,"x_max":843,"o":"m 622 987 l 843 987 l 843 339 q 794 145 843 224 q 660 26 746 66 q 460 -14 574 -14 q 260 26 347 -14 q 124 145 174 66 q 75 339 75 224 l 75 987 l 297 987 l 297 339 q 316 235 297 275 q 372 176 336 195 q 460 157 409 157 q 548 176 512 157 q 603 235 585 195 q 622 339 622 275 l 622 987 m 587 88 l 701 48 q 624 -6 648 20 q 599 -68 599 -33 q 609 -99 599 -86 q 642 -111 618 -111 q 671 -107 660 -111 q 692 -98 683 -102 l 715 -207 q 672 -227 699 -217 q 604 -237 645 -237 q 491 -200 537 -237 q 444 -94 444 -164 q 457 -28 444 -60 q 500 34 469 4 q 587 88 532 63 z "},"Ů":{"ha":920,"x_min":75,"x_max":843,"o":"m 622 987 l 843 987 l 843 339 q 794 145 843 224 q 660 26 746 66 q 460 -14 574 -14 q 260 26 347 -14 q 124 145 174 66 q 75 339 75 224 l 75 987 l 297 987 l 297 339 q 316 235 297 275 q 372 176 336 195 q 460 157 409 157 q 548 176 512 157 q 603 235 585 195 q 622 339 622 275 l 622 987 m 307 1173 q 350 1270 307 1230 q 458 1311 393 1311 q 566 1270 524 1311 q 609 1173 609 1230 q 566 1077 609 1117 q 458 1038 524 1038 q 350 1077 393 1038 q 307 1173 307 1117 m 387 1173 q 406 1122 387 1143 q 458 1101 425 1101 q 510 1122 491 1101 q 530 1173 530 1143 q 510 1224 530 1203 q 458 1246 491 1246 q 406 1224 425 1246 q 387 1173 387 1203 z "},"Ũ":{"ha":920,"x_min":75,"x_max":843,"o":"m 622 987 l 843 987 l 843 339 q 794 145 843 224 q 660 26 746 66 q 460 -14 574 -14 q 260 26 347 -14 q 124 145 174 66 q 75 339 75 224 l 75 987 l 297 987 l 297 339 q 316 235 297 275 q 372 176 336 195 q 460 157 409 157 q 548 176 512 157 q 603 235 585 195 q 622 339 622 275 l 622 987 m 595 1251 l 715 1244 q 695 1153 715 1194 q 640 1087 675 1112 q 560 1062 605 1062 q 505 1070 528 1062 q 460 1091 481 1079 q 419 1112 440 1103 q 372 1120 398 1120 q 334 1104 350 1120 q 318 1057 318 1088 l 197 1063 q 217 1153 197 1112 q 272 1220 237 1195 q 352 1245 307 1245 q 402 1237 379 1245 q 448 1217 426 1228 q 492 1196 470 1205 q 540 1187 515 1187 q 579 1204 562 1187 q 595 1251 595 1220 z "},"V":{"ha":913,"x_min":1,"x_max":912,"o":"m 446 219 l 666 987 l 912 987 l 574 0 l 413 0 l 446 219 m 246 987 l 465 219 l 500 0 l 337 0 l 1 987 l 246 987 z "},"W":{"ha":1211,"x_min":19,"x_max":1191,"o":"m 315 123 l 511 987 l 625 987 l 669 880 l 460 0 l 336 0 l 315 123 m 238 987 l 403 120 l 374 0 l 233 0 l 19 987 l 238 987 m 810 124 l 972 987 l 1191 987 l 977 0 l 837 0 l 810 124 m 699 987 l 898 119 l 875 0 l 751 0 l 538 881 l 585 987 l 699 987 z "},"Ŵ":{"ha":1211,"x_min":19,"x_max":1191,"o":"m 315 123 l 511 987 l 625 987 l 669 880 l 460 0 l 336 0 l 315 123 m 238 987 l 403 120 l 374 0 l 233 0 l 19 987 l 238 987 m 810 124 l 972 987 l 1191 987 l 977 0 l 837 0 l 810 124 m 699 987 l 898 119 l 875 0 l 751 0 l 538 881 l 585 987 l 699 987 m 670 1252 l 884 1062 l 884 1054 l 716 1054 l 609 1149 l 503 1054 l 338 1054 l 338 1065 l 548 1252 l 670 1252 z "},"X":{"ha":884,"x_min":9,"x_max":876,"o":"m 269 987 l 442 651 l 616 987 l 868 987 l 587 498 l 876 0 l 621 0 l 442 342 l 264 0 l 9 0 l 298 498 l 16 987 l 269 987 z "},"Y":{"ha":866,"x_min":-1,"x_max":866,"o":"m 239 987 l 433 548 l 627 987 l 866 987 l 545 357 l 545 0 l 321 0 l 321 357 l -1 987 l 239 987 z "},"Ý":{"ha":866,"x_min":-1,"x_max":866,"o":"m 239 987 l 433 548 l 627 987 l 866 987 l 545 357 l 545 0 l 321 0 l 321 357 l -1 987 l 239 987 m 335 1041 l 469 1252 l 696 1252 l 508 1041 l 335 1041 z "},"Ŷ":{"ha":866,"x_min":-1,"x_max":866,"o":"m 239 987 l 433 548 l 627 987 l 866 987 l 545 357 l 545 0 l 321 0 l 321 357 l -1 987 l 239 987 m 495 1252 l 709 1062 l 709 1054 l 541 1054 l 434 1149 l 328 1054 l 163 1054 l 163 1065 l 373 1252 l 495 1252 z "},"Ÿ":{"ha":866,"x_min":-1,"x_max":866,"o":"m 239 987 l 433 548 l 627 987 l 866 987 l 545 357 l 545 0 l 321 0 l 321 357 l -1 987 l 239 987 m 164 1137 q 193 1199 164 1173 q 262 1224 221 1224 q 332 1199 303 1224 q 360 1137 360 1173 q 332 1075 360 1100 q 262 1050 303 1050 q 193 1075 221 1050 q 164 1137 164 1100 m 507 1137 q 535 1198 507 1173 q 604 1223 564 1223 q 674 1198 646 1223 q 702 1137 702 1173 q 674 1075 702 1100 q 604 1049 646 1049 q 535 1075 564 1049 q 507 1137 507 1100 z "},"Z":{"ha":845,"x_min":46,"x_max":808,"o":"m 808 171 l 808 0 l 101 0 l 101 171 l 808 171 m 801 869 l 205 0 l 47 0 l 47 121 l 649 987 l 801 987 l 801 869 m 728 987 l 728 816 l 46 816 l 46 987 l 728 987 z "},"Ź":{"ha":845,"x_min":46,"x_max":808,"o":"m 808 171 l 808 0 l 101 0 l 101 171 l 808 171 m 801 869 l 205 0 l 47 0 l 47 121 l 649 987 l 801 987 l 801 869 m 728 987 l 728 816 l 46 816 l 46 987 l 728 987 m 330 1041 l 465 1252 l 691 1252 l 503 1041 l 330 1041 z "},"Ž":{"ha":845,"x_min":46,"x_max":808,"o":"m 808 171 l 808 0 l 101 0 l 101 171 l 808 171 m 801 869 l 205 0 l 47 0 l 47 121 l 649 987 l 801 987 l 801 869 m 728 987 l 728 816 l 46 816 l 46 987 l 728 987 m 329 1253 l 429 1158 l 530 1253 l 710 1253 l 710 1245 l 498 1054 l 361 1054 l 148 1246 l 148 1253 l 329 1253 z "},"Ż":{"ha":845,"x_min":46,"x_max":808,"o":"m 808 171 l 808 0 l 101 0 l 101 171 l 808 171 m 801 869 l 205 0 l 47 0 l 47 121 l 649 987 l 801 987 l 801 869 m 728 987 l 728 816 l 46 816 l 46 987 l 728 987 m 322 1156 q 352 1225 322 1198 q 428 1252 381 1252 q 505 1225 476 1252 q 534 1156 534 1198 q 505 1089 534 1116 q 428 1062 476 1062 q 352 1089 381 1062 q 322 1156 322 1116 z "},"a":{"ha":741,"x_min":38,"x_max":703,"o":"m 459 175 l 459 490 q 436 568 459 538 q 361 597 413 597 q 310 587 332 597 q 278 558 289 577 q 267 511 267 539 l 55 511 q 94 631 55 578 q 204 716 133 684 q 372 747 276 747 q 526 719 458 747 q 633 632 593 690 q 672 488 672 575 l 672 181 q 680 77 672 115 q 703 12 688 39 l 703 0 l 489 0 q 467 79 474 32 q 459 175 459 126 m 486 448 l 487 331 l 382 331 q 281 298 311 331 q 250 219 250 266 q 274 162 250 184 q 335 140 297 140 q 406 157 376 140 q 452 196 435 173 q 468 240 468 220 l 519 152 q 489 96 507 125 q 444 42 471 67 q 379 2 417 18 q 287 -14 340 -14 q 161 15 218 -14 q 72 92 105 43 q 38 206 38 142 q 122 384 38 320 q 380 448 207 448 l 486 448 z "},"á":{"ha":741,"x_min":38,"x_max":703,"o":"m 459 175 l 459 490 q 436 568 459 538 q 361 597 413 597 q 310 587 332 597 q 278 558 289 577 q 267 511 267 539 l 55 511 q 94 631 55 578 q 204 716 133 684 q 372 747 276 747 q 526 719 458 747 q 633 632 593 690 q 672 488 672 575 l 672 181 q 680 77 672 115 q 703 12 688 39 l 703 0 l 489 0 q 467 79 474 32 q 459 175 459 126 m 486 448 l 487 331 l 382 331 q 281 298 311 331 q 250 219 250 266 q 274 162 250 184 q 335 140 297 140 q 406 157 376 140 q 452 196 435 173 q 468 240 468 220 l 519 152 q 489 96 507 125 q 444 42 471 67 q 379 2 417 18 q 287 -14 340 -14 q 161 15 218 -14 q 72 92 105 43 q 38 206 38 142 q 122 384 38 320 q 380 448 207 448 l 486 448 m 269 831 l 404 1042 l 630 1042 l 442 831 l 269 831 z "},"ă":{"ha":741,"x_min":38,"x_max":703,"o":"m 459 175 l 459 490 q 436 568 459 538 q 361 597 413 597 q 310 587 332 597 q 278 558 289 577 q 267 511 267 539 l 55 511 q 94 631 55 578 q 204 716 133 684 q 372 747 276 747 q 526 719 458 747 q 633 632 593 690 q 672 488 672 575 l 672 181 q 680 77 672 115 q 703 12 688 39 l 703 0 l 489 0 q 467 79 474 32 q 459 175 459 126 m 486 448 l 487 331 l 382 331 q 281 298 311 331 q 250 219 250 266 q 274 162 250 184 q 335 140 297 140 q 406 157 376 140 q 452 196 435 173 q 468 240 468 220 l 519 152 q 489 96 507 125 q 444 42 471 67 q 379 2 417 18 q 287 -14 340 -14 q 161 15 218 -14 q 72 92 105 43 q 38 206 38 142 q 122 384 38 320 q 380 448 207 448 l 486 448 m 464 1038 l 612 1038 q 546 891 612 948 q 368 835 480 835 q 191 891 256 835 q 125 1038 125 948 l 272 1038 q 294 977 272 1004 q 368 950 315 950 q 443 977 421 950 q 464 1038 464 1004 z "},"â":{"ha":741,"x_min":38,"x_max":703,"o":"m 459 175 l 459 490 q 436 568 459 538 q 361 597 413 597 q 310 587 332 597 q 278 558 289 577 q 267 511 267 539 l 55 511 q 94 631 55 578 q 204 716 133 684 q 372 747 276 747 q 526 719 458 747 q 633 632 593 690 q 672 488 672 575 l 672 181 q 680 77 672 115 q 703 12 688 39 l 703 0 l 489 0 q 467 79 474 32 q 459 175 459 126 m 486 448 l 487 331 l 382 331 q 281 298 311 331 q 250 219 250 266 q 274 162 250 184 q 335 140 297 140 q 406 157 376 140 q 452 196 435 173 q 468 240 468 220 l 519 152 q 489 96 507 125 q 444 42 471 67 q 379 2 417 18 q 287 -14 340 -14 q 161 15 218 -14 q 72 92 105 43 q 38 206 38 142 q 122 384 38 320 q 380 448 207 448 l 486 448 m 429 1042 l 643 852 l 643 844 l 475 844 l 368 939 l 262 844 l 98 844 l 98 854 l 307 1042 l 429 1042 z "},"´":{"ha":464,"x_min":64,"x_max":425,"o":"m 64 831 l 199 1042 l 425 1042 l 237 831 l 64 831 z "},"́":{"ha":0,"x_min":-465,"x_max":-105,"o":"m -465 831 l -331 1042 l -105 1042 l -292 831 l -465 831 z "},"ä":{"ha":741,"x_min":38,"x_max":703,"o":"m 459 175 l 459 490 q 436 568 459 538 q 361 597 413 597 q 310 587 332 597 q 278 558 289 577 q 267 511 267 539 l 55 511 q 94 631 55 578 q 204 716 133 684 q 372 747 276 747 q 526 719 458 747 q 633 632 593 690 q 672 488 672 575 l 672 181 q 680 77 672 115 q 703 12 688 39 l 703 0 l 489 0 q 467 79 474 32 q 459 175 459 126 m 486 448 l 487 331 l 382 331 q 281 298 311 331 q 250 219 250 266 q 274 162 250 184 q 335 140 297 140 q 406 157 376 140 q 452 196 435 173 q 468 240 468 220 l 519 152 q 489 96 507 125 q 444 42 471 67 q 379 2 417 18 q 287 -14 340 -14 q 161 15 218 -14 q 72 92 105 43 q 38 206 38 142 q 122 384 38 320 q 380 448 207 448 l 486 448 m 98 926 q 126 988 98 963 q 195 1014 155 1014 q 265 988 237 1014 q 294 926 294 963 q 265 865 294 890 q 195 840 237 840 q 126 865 155 840 q 98 926 98 890 m 440 926 q 469 988 440 963 q 538 1013 497 1013 q 607 988 579 1013 q 635 926 635 963 q 607 864 635 890 q 538 839 579 839 q 469 864 497 839 q 440 926 440 890 z "},"æ":{"ha":1173,"x_min":43,"x_max":1141,"o":"m 490 124 l 490 477 q 464 555 490 527 q 391 583 439 583 q 309 560 338 583 q 280 504 280 537 l 68 517 q 108 636 68 584 q 221 718 148 688 q 393 747 295 747 q 613 679 531 747 q 695 476 695 611 l 695 148 l 490 124 m 519 442 l 521 311 l 389 311 q 316 297 346 311 q 271 262 286 283 q 256 215 256 240 q 282 157 256 178 q 363 135 309 135 q 418 144 391 135 q 470 169 446 154 q 507 202 493 184 q 522 235 522 220 l 619 131 q 564 65 602 98 q 466 9 526 31 q 323 -14 406 -14 q 116 49 188 -14 q 43 218 43 112 q 131 384 43 325 q 388 442 218 442 l 519 442 m 842 -14 q 650 31 729 -14 q 531 154 572 75 q 490 333 490 232 l 490 382 q 529 572 490 490 q 644 702 568 655 q 831 747 720 748 q 1058 658 975 747 q 1141 416 1141 568 l 1141 302 l 574 302 l 574 437 l 932 437 l 932 456 q 921 523 932 494 q 888 567 910 551 q 831 583 865 583 q 751 556 781 583 q 708 485 721 530 q 696 382 696 440 l 696 333 q 713 240 696 281 q 769 175 730 199 q 869 151 807 151 q 981 166 937 151 q 1065 201 1024 181 l 1119 68 q 1051 30 1093 49 q 956 -1 1009 11 q 842 -14 903 -14 z "},"ǽ":{"ha":1173,"x_min":43,"x_max":1141,"o":"m 490 124 l 490 477 q 464 555 490 527 q 391 583 439 583 q 309 560 338 583 q 280 504 280 537 l 68 517 q 108 636 68 584 q 221 718 148 688 q 393 747 295 747 q 613 679 531 747 q 695 476 695 611 l 695 148 l 490 124 m 519 442 l 521 311 l 389 311 q 316 297 346 311 q 271 262 286 283 q 256 215 256 240 q 282 157 256 178 q 363 135 309 135 q 418 144 391 135 q 470 169 446 154 q 507 202 493 184 q 522 235 522 220 l 619 131 q 564 65 602 98 q 466 9 526 31 q 323 -14 406 -14 q 116 49 188 -14 q 43 218 43 112 q 131 384 43 325 q 388 442 218 442 l 519 442 m 842 -14 q 650 31 729 -14 q 531 154 572 75 q 490 333 490 232 l 490 382 q 529 572 490 490 q 644 702 568 655 q 831 747 720 748 q 1058 658 975 747 q 1141 416 1141 568 l 1141 302 l 574 302 l 574 437 l 932 437 l 932 456 q 921 523 932 494 q 888 567 910 551 q 831 583 865 583 q 751 556 781 583 q 708 485 721 530 q 696 382 696 440 l 696 333 q 713 240 696 281 q 769 175 730 199 q 869 151 807 151 q 981 166 937 151 q 1065 201 1024 181 l 1119 68 q 1051 30 1093 49 q 956 -1 1009 11 q 842 -14 903 -14 m 486 831 l 621 1042 l 847 1042 l 659 831 l 486 831 z "},"‏":{"ha":0,"x_min":0,"x_max":0,"o":""},"‎":{"ha":0,"x_min":0,"x_max":0,"o":""},"‍":{"ha":0,"x_min":0,"x_max":0,"o":""},"₪":{"ha":1245,"x_min":71,"x_max":1174,"o":"m 71 734 l 611 734 q 770 704 713 734 q 850 611 827 673 q 874 454 874 549 l 874 249 l 662 249 l 662 455 q 647 531 662 507 q 604 562 631 555 q 541 569 577 569 l 283 569 l 283 0 l 71 0 l 71 734 m 745 0 l 370 0 l 370 486 l 583 486 l 583 165 l 840 165 q 903 172 876 165 q 946 203 930 179 q 962 279 962 228 l 962 734 l 1174 734 l 1174 279 q 1136 156 1174 208 q 1035 68 1098 103 q 897 17 972 34 q 745 0 821 0 z "},"‌":{"ha":0,"x_min":0,"x_max":0,"o":""},"à":{"ha":741,"x_min":38,"x_max":703,"o":"m 459 175 l 459 490 q 436 568 459 538 q 361 597 413 597 q 310 587 332 597 q 278 558 289 577 q 267 511 267 539 l 55 511 q 94 631 55 578 q 204 716 133 684 q 372 747 276 747 q 526 719 458 747 q 633 632 593 690 q 672 488 672 575 l 672 181 q 680 77 672 115 q 703 12 688 39 l 703 0 l 489 0 q 467 79 474 32 q 459 175 459 126 m 486 448 l 487 331 l 382 331 q 281 298 311 331 q 250 219 250 266 q 274 162 250 184 q 335 140 297 140 q 406 157 376 140 q 452 196 435 173 q 468 240 468 220 l 519 152 q 489 96 507 125 q 444 42 471 67 q 379 2 417 18 q 287 -14 340 -14 q 161 15 218 -14 q 72 92 105 43 q 38 206 38 142 q 122 384 38 320 q 380 448 207 448 l 486 448 m 336 1042 l 471 831 l 298 831 l 109 1042 l 336 1042 z "},"ā":{"ha":741,"x_min":38,"x_max":703,"o":"m 459 175 l 459 490 q 436 568 459 538 q 361 597 413 597 q 310 587 332 597 q 278 558 289 577 q 267 511 267 539 l 55 511 q 94 631 55 578 q 204 716 133 684 q 372 747 276 747 q 526 719 458 747 q 633 632 593 690 q 672 488 672 575 l 672 181 q 680 77 672 115 q 703 12 688 39 l 703 0 l 489 0 q 467 79 474 32 q 459 175 459 126 m 486 448 l 487 331 l 382 331 q 281 298 311 331 q 250 219 250 266 q 274 162 250 184 q 335 140 297 140 q 406 157 376 140 q 452 196 435 173 q 468 240 468 220 l 519 152 q 489 96 507 125 q 444 42 471 67 q 379 2 417 18 q 287 -14 340 -14 q 161 15 218 -14 q 72 92 105 43 q 38 206 38 142 q 122 384 38 320 q 380 448 207 448 l 486 448 m 602 985 l 602 871 l 134 871 l 134 985 l 602 985 z "},"&":{"ha":925,"x_min":43,"x_max":904,"o":"m 220 524 l 420 650 q 474 703 462 677 q 486 755 486 728 q 464 811 486 785 q 403 837 442 837 q 338 809 359 837 q 316 743 316 781 q 352 648 316 696 q 439 538 388 600 l 904 0 l 666 0 l 287 435 q 173 594 216 524 q 130 739 130 664 q 163 876 130 817 q 259 968 197 935 q 404 1002 320 1002 q 538 970 481 1002 q 627 885 595 938 q 658 769 658 832 q 641 684 658 724 q 594 611 624 644 q 527 551 565 578 l 305 395 q 275 355 286 375 q 260 317 264 336 q 256 278 256 298 q 272 212 256 241 q 315 167 288 183 q 378 151 343 151 q 485 175 433 151 q 578 244 537 199 q 643 351 618 289 q 667 488 667 413 l 846 488 q 810 272 846 371 q 687 105 774 173 q 675 96 684 102 q 663 87 667 90 q 525 11 595 36 q 365 -14 454 -14 q 194 22 266 -14 q 82 121 121 58 q 43 265 43 184 q 65 367 43 323 q 128 449 88 411 q 220 524 168 486 z "},"ą":{"ha":741,"x_min":38,"x_max":703,"o":"m 459 175 l 459 490 q 436 568 459 538 q 361 597 413 597 q 310 587 332 597 q 278 558 289 577 q 267 511 267 539 l 55 511 q 94 631 55 578 q 204 716 133 684 q 372 747 276 747 q 526 719 458 747 q 633 632 593 690 q 672 488 672 575 l 672 181 q 680 77 672 115 q 703 12 688 39 l 703 0 l 489 0 q 467 79 474 32 q 459 175 459 126 m 486 448 l 487 331 l 382 331 q 281 298 311 331 q 250 219 250 266 q 274 162 250 184 q 335 140 297 140 q 406 157 376 140 q 452 196 435 173 q 468 240 468 220 l 519 152 q 489 96 507 125 q 444 42 471 67 q 379 2 417 18 q 287 -14 340 -14 q 161 15 218 -14 q 72 92 105 43 q 38 206 38 142 q 122 384 38 320 q 380 448 207 448 l 486 448 m 553 41 l 667 0 q 590 -54 614 -28 q 565 -116 565 -80 q 575 -147 565 -134 q 608 -159 585 -159 q 637 -155 626 -159 q 658 -146 649 -150 l 682 -255 q 638 -275 665 -265 q 570 -285 611 -285 q 457 -249 503 -285 q 410 -142 410 -212 q 423 -76 410 -109 q 467 -14 435 -44 q 553 41 498 16 z "},"≈":{"ha":806,"x_min":68,"x_max":722,"o":"m 68 457 l 68 620 q 146 673 100 654 q 235 692 191 692 q 327 679 290 694 q 407 643 364 665 q 482 609 447 623 q 568 596 517 596 q 651 619 612 596 q 722 682 690 642 l 722 519 q 654 466 690 486 q 574 447 618 447 q 489 460 524 447 q 414 494 454 473 q 333 530 371 515 q 241 543 296 545 q 149 520 197 543 q 68 457 100 497 m 68 173 l 68 336 q 143 389 100 370 q 229 408 185 408 q 320 394 283 409 q 400 358 357 380 q 475 325 440 338 q 561 311 511 311 q 647 334 605 311 q 721 397 689 357 l 722 234 q 651 181 690 201 q 568 162 612 162 q 482 175 517 162 q 407 209 447 189 q 327 245 364 231 q 235 258 290 260 q 146 236 191 258 q 68 173 100 213 z "},"å":{"ha":741,"x_min":38,"x_max":703,"o":"m 459 175 l 459 490 q 436 568 459 538 q 361 597 413 597 q 310 587 332 597 q 278 558 289 577 q 267 511 267 539 l 55 511 q 94 631 55 578 q 204 716 133 684 q 372 747 276 747 q 526 719 458 747 q 633 632 593 690 q 672 488 672 575 l 672 181 q 680 77 672 115 q 703 12 688 39 l 703 0 l 489 0 q 467 79 474 32 q 459 175 459 126 m 486 448 l 487 331 l 382 331 q 281 298 311 331 q 250 219 250 266 q 274 162 250 184 q 335 140 297 140 q 406 157 376 140 q 452 196 435 173 q 468 240 468 220 l 519 152 q 489 96 507 125 q 444 42 471 67 q 379 2 417 18 q 287 -14 340 -14 q 161 15 218 -14 q 72 92 105 43 q 38 206 38 142 q 122 384 38 320 q 380 448 207 448 l 486 448 m 218 963 q 261 1060 218 1019 q 369 1101 304 1101 q 477 1060 435 1101 q 520 963 520 1019 q 477 867 520 907 q 369 827 435 827 q 261 867 304 827 q 218 963 218 907 m 298 963 q 317 912 298 933 q 369 891 336 891 q 421 912 402 891 q 441 963 441 933 q 421 1014 441 993 q 369 1036 402 1036 q 317 1014 336 1036 q 298 963 298 993 z "},"ǻ":{"ha":741,"x_min":38,"x_max":703,"o":"m 459 175 l 459 490 q 436 568 459 538 q 361 597 413 597 q 310 587 332 597 q 278 558 289 577 q 267 511 267 539 l 55 511 q 94 631 55 578 q 204 716 133 684 q 372 747 276 747 q 526 719 458 747 q 633 632 593 690 q 672 488 672 575 l 672 181 q 680 77 672 115 q 703 12 688 39 l 703 0 l 489 0 q 467 79 474 32 q 459 175 459 126 m 486 448 l 487 331 l 382 331 q 281 298 311 331 q 250 219 250 266 q 274 162 250 184 q 335 140 297 140 q 406 157 376 140 q 452 196 435 173 q 468 240 468 220 l 519 152 q 489 96 507 125 q 444 42 471 67 q 379 2 417 18 q 287 -14 340 -14 q 161 15 218 -14 q 72 92 105 43 q 38 206 38 142 q 122 384 38 320 q 380 448 207 448 l 486 448 m 313 1008 l 450 1150 l 637 1150 l 446 1008 l 313 1008 m 225 853 q 267 945 225 908 q 368 981 308 981 q 467 945 427 981 q 507 853 507 908 q 467 763 507 798 q 368 727 427 727 q 267 763 308 727 q 225 853 225 798 m 306 853 q 323 810 306 827 q 368 793 341 793 q 410 810 394 793 q 426 853 426 827 q 410 898 426 880 q 368 915 394 915 q 323 898 341 915 q 306 853 306 880 z "},"^":{"ha":615,"x_min":28,"x_max":589,"o":"m 313 819 l 191 494 l 28 494 l 231 987 l 349 987 l 313 819 m 426 494 l 303 819 l 267 987 l 387 987 l 589 494 l 426 494 z "},"~":{"ha":889,"x_min":68,"x_max":819,"o":"m 666 540 l 819 540 q 791 388 819 452 q 711 288 762 323 q 593 253 661 253 q 498 274 540 253 q 408 342 456 296 q 356 383 380 369 q 305 397 332 397 q 244 363 268 397 q 221 278 221 329 l 68 280 q 96 432 68 369 q 176 530 125 496 q 292 564 227 564 q 391 541 346 564 q 480 475 435 519 q 531 433 507 447 q 581 419 555 419 q 642 454 618 419 q 666 540 666 489 z "},"*":{"ha":639,"x_min":18,"x_max":633,"o":"m 85 467 l 236 652 l 18 713 l 60 836 l 275 749 l 260 987 l 397 987 l 382 745 l 591 830 l 633 705 l 412 644 l 557 463 l 446 386 l 321 585 l 197 392 l 85 467 z "},"@":{"ha":1244,"x_min":44,"x_max":1196,"o":"m 1188 368 q 1167 230 1185 298 q 1113 106 1149 161 q 1021 18 1077 51 q 887 -14 965 -14 q 748 44 800 -14 q 701 203 695 103 l 736 597 l 880 597 l 846 203 q 847 151 842 171 q 862 119 852 130 q 886 103 872 108 q 914 98 900 98 q 988 133 956 98 q 1038 228 1019 168 q 1059 362 1057 288 q 1025 617 1067 508 q 891 786 983 726 q 652 846 798 846 q 413 777 514 846 q 256 587 313 707 q 192 313 199 466 q 212 97 186 190 q 290 -59 237 4 q 424 -154 344 -122 q 607 -185 504 -185 q 727 -172 666 -185 q 831 -140 789 -159 l 857 -247 q 739 -292 810 -277 q 604 -307 667 -307 q 297 -236 423 -307 q 107 -27 170 -165 q 52 313 44 111 q 102 570 58 452 q 225 775 146 688 q 412 910 304 862 q 654 958 520 958 q 954 884 833 958 q 1136 677 1076 810 q 1188 368 1196 545 m 507 294 q 510 194 502 235 q 539 133 519 153 q 593 112 560 112 q 633 124 611 112 q 676 168 655 136 q 713 261 698 200 l 773 189 q 683 38 742 89 q 544 -12 625 -12 q 431 26 478 -12 q 361 133 383 64 q 347 294 338 201 q 405 494 360 409 q 518 625 450 578 q 669 671 587 671 q 794 649 749 671 q 880 597 839 627 l 808 498 q 756 532 788 515 q 682 549 725 549 q 593 519 629 549 q 536 433 557 490 q 507 294 515 377 z "},"ã":{"ha":741,"x_min":38,"x_max":703,"o":"m 459 175 l 459 490 q 436 568 459 538 q 361 597 413 597 q 310 587 332 597 q 278 558 289 577 q 267 511 267 539 l 55 511 q 94 631 55 578 q 204 716 133 684 q 372 747 276 747 q 526 719 458 747 q 633 632 593 690 q 672 488 672 575 l 672 181 q 680 77 672 115 q 703 12 688 39 l 703 0 l 489 0 q 467 79 474 32 q 459 175 459 126 m 486 448 l 487 331 l 382 331 q 281 298 311 331 q 250 219 250 266 q 274 162 250 184 q 335 140 297 140 q 406 157 376 140 q 452 196 435 173 q 468 240 468 220 l 519 152 q 489 96 507 125 q 444 42 471 67 q 379 2 417 18 q 287 -14 340 -14 q 161 15 218 -14 q 72 92 105 43 q 38 206 38 142 q 122 384 38 320 q 380 448 207 448 l 486 448 m 507 1040 l 626 1033 q 606 942 626 983 q 551 876 586 901 q 471 851 516 851 q 416 860 439 851 q 372 880 392 868 q 330 901 351 892 q 283 909 309 909 q 245 893 261 909 q 229 846 229 877 l 109 852 q 128 942 109 901 q 183 1009 148 984 q 263 1034 218 1034 q 314 1026 290 1034 q 359 1006 337 1017 q 404 985 381 994 q 451 977 426 977 q 490 993 473 977 q 507 1040 507 1009 z "},"b":{"ha":782,"x_min":71,"x_max":741,"o":"m 71 1042 l 283 1042 l 283 174 l 261 0 l 71 0 l 71 1042 m 741 375 l 741 361 q 710 166 741 250 q 615 34 679 81 q 456 -14 552 -14 q 310 35 367 -14 q 222 168 254 84 q 176 355 191 251 l 176 379 q 222 566 191 483 q 310 699 254 650 q 454 747 366 747 q 615 700 552 747 q 710 567 679 652 q 741 375 741 483 m 529 361 l 529 375 q 518 478 529 431 q 481 554 508 526 q 401 583 454 583 q 337 570 363 583 q 294 533 311 557 q 271 477 278 510 q 262 403 263 444 l 262 331 q 277 236 263 277 q 321 173 290 195 q 403 151 351 151 q 483 178 456 151 q 519 252 509 205 q 529 361 529 299 z "},"\\":{"ha":589,"x_min":-7,"x_max":625,"o":"m 404 -85 l -7 987 l 212 987 l 625 -85 l 404 -85 z "},"|":{"ha":353,"x_min":117,"x_max":238,"o":"m 238 987 l 238 -183 l 117 -183 l 117 987 l 238 987 z "},"{":{"ha":454,"x_min":31,"x_max":429,"o":"m 389 1083 l 429 970 q 352 894 372 949 q 332 768 332 839 l 332 629 q 301 506 332 562 q 204 417 271 450 q 31 384 138 384 l 31 492 q 118 529 92 492 q 145 629 145 566 l 145 768 q 167 901 145 839 q 242 1010 189 963 q 389 1083 296 1057 m 429 -132 l 389 -245 q 242 -171 296 -218 q 167 -62 189 -124 q 145 71 145 0 l 145 209 q 118 309 145 272 q 31 347 92 347 l 31 455 q 204 422 138 455 q 301 334 271 389 q 332 209 332 278 l 332 71 q 353 -55 332 -1 q 429 -132 373 -110 z "},"}":{"ha":454,"x_min":26,"x_max":425,"o":"m 26 970 l 66 1083 q 213 1010 159 1057 q 288 901 266 963 q 310 768 310 839 l 310 629 q 337 529 310 566 q 425 492 364 492 l 425 385 q 251 417 318 385 q 154 506 184 450 q 123 629 123 562 l 123 768 q 103 894 123 839 q 26 970 83 949 m 66 -245 l 26 -132 q 103 -55 83 -110 q 123 71 123 -1 l 123 209 q 154 333 123 278 q 251 421 184 389 q 425 453 318 453 l 425 347 q 337 309 364 347 q 310 209 310 272 l 310 71 q 288 -62 310 0 q 213 -171 266 -124 q 66 -245 159 -218 z "},"[":{"ha":388,"x_min":96,"x_max":378,"o":"m 378 996 l 378 1152 l 96 1152 l 96 -233 l 378 -233 l 378 -77 l 290 -77 l 290 996 l 378 996 z "},"]":{"ha":388,"x_min":9,"x_max":292,"o":"m 9 1152 l 9 996 l 98 996 l 98 -77 l 9 -77 l 9 -233 l 292 -233 l 292 1152 l 9 1152 z "},"˘":{"ha":623,"x_min":68,"x_max":555,"o":"m 407 1038 l 555 1038 q 489 891 555 948 q 311 835 423 835 q 134 891 199 835 q 68 1038 68 948 l 215 1038 q 237 977 215 1004 q 311 950 258 950 q 386 977 364 950 q 407 1038 407 1004 z "},"¦":{"ha":353,"x_min":84,"x_max":270,"o":"m 270 -183 l 84 -183 l 84 356 l 270 356 l 270 -183 m 270 987 l 270 473 l 84 473 l 84 987 l 270 987 z "},"•":{"ha":507,"x_min":92,"x_max":425,"o":"m 92 493 l 92 519 q 137 633 92 588 q 258 677 182 677 q 380 633 336 677 q 425 519 425 588 l 425 493 q 381 380 425 424 q 259 336 336 336 q 137 380 182 336 q 92 493 92 424 z "},"c":{"ha":723,"x_min":40,"x_max":688,"o":"m 377 151 q 436 164 411 151 q 475 200 461 177 q 489 257 489 224 l 688 257 q 647 116 688 177 q 537 21 606 55 q 381 -14 468 -14 q 192 36 267 -14 q 78 169 116 85 q 40 358 40 253 l 40 376 q 78 565 40 481 q 191 698 115 648 q 380 747 267 747 q 540 713 471 747 q 649 613 610 678 q 688 458 688 549 l 489 458 q 476 521 489 493 q 438 566 464 549 q 376 583 413 583 q 297 554 324 583 q 261 477 271 525 q 252 376 252 430 l 252 358 q 261 255 252 302 q 297 180 271 208 q 377 151 324 151 z "},"ć":{"ha":723,"x_min":40,"x_max":688,"o":"m 377 151 q 436 164 411 151 q 475 200 461 177 q 489 257 489 224 l 688 257 q 647 116 688 177 q 537 21 606 55 q 381 -14 468 -14 q 192 36 267 -14 q 78 169 116 85 q 40 358 40 253 l 40 376 q 78 565 40 481 q 191 698 115 648 q 380 747 267 747 q 540 713 471 747 q 649 613 610 678 q 688 458 688 549 l 489 458 q 476 521 489 493 q 438 566 464 549 q 376 583 413 583 q 297 554 324 583 q 261 477 271 525 q 252 376 252 430 l 252 358 q 261 255 252 302 q 297 180 271 208 q 377 151 324 151 m 264 831 l 399 1042 l 625 1042 l 437 831 l 264 831 z "},"ˇ":{"ha":661,"x_min":47,"x_max":610,"o":"m 229 1042 l 329 947 l 429 1042 l 610 1042 l 610 1035 l 397 844 l 261 844 l 47 1036 l 47 1042 l 229 1042 z "},"č":{"ha":723,"x_min":40,"x_max":688,"o":"m 377 151 q 436 164 411 151 q 475 200 461 177 q 489 257 489 224 l 688 257 q 647 116 688 177 q 537 21 606 55 q 381 -14 468 -14 q 192 36 267 -14 q 78 169 116 85 q 40 358 40 253 l 40 376 q 78 565 40 481 q 191 698 115 648 q 380 747 267 747 q 540 713 471 747 q 649 613 610 678 q 688 458 688 549 l 489 458 q 476 521 489 493 q 438 566 464 549 q 376 583 413 583 q 297 554 324 583 q 261 477 271 525 q 252 376 252 430 l 252 358 q 261 255 252 302 q 297 180 271 208 q 377 151 324 151 m 263 1042 l 363 947 l 464 1042 l 644 1042 l 644 1035 l 432 844 l 296 844 l 82 1036 l 82 1042 l 263 1042 z "},"ç":{"ha":723,"x_min":40,"x_max":688,"o":"m 377 151 q 436 164 411 151 q 475 200 461 177 q 489 257 489 224 l 688 257 q 647 116 688 177 q 537 21 606 55 q 381 -14 468 -14 q 192 36 267 -14 q 78 169 116 85 q 40 358 40 253 l 40 376 q 78 565 40 481 q 191 698 115 648 q 380 747 267 747 q 540 713 471 747 q 649 613 610 678 q 688 458 688 549 l 489 458 q 476 521 489 493 q 438 566 464 549 q 376 583 413 583 q 297 554 324 583 q 261 477 271 525 q 252 376 252 430 l 252 358 q 261 255 252 302 q 297 180 271 208 q 377 151 324 151 m 302 4 l 463 4 l 455 -36 q 526 -69 494 -43 q 557 -153 557 -95 q 495 -272 557 -227 q 311 -317 433 -317 l 307 -200 q 342 -194 327 -200 q 367 -177 357 -189 q 376 -145 376 -165 q 354 -107 376 -118 q 281 -94 332 -96 l 302 4 z "},"ĉ":{"ha":723,"x_min":40,"x_max":688,"o":"m 377 151 q 436 164 411 151 q 475 200 461 177 q 489 257 489 224 l 688 257 q 647 116 688 177 q 537 21 606 55 q 381 -14 468 -14 q 192 36 267 -14 q 78 169 116 85 q 40 358 40 253 l 40 376 q 78 565 40 481 q 191 698 115 648 q 380 747 267 747 q 540 713 471 747 q 649 613 610 678 q 688 458 688 549 l 489 458 q 476 521 489 493 q 438 566 464 549 q 376 583 413 583 q 297 554 324 583 q 261 477 271 525 q 252 376 252 430 l 252 358 q 261 255 252 302 q 297 180 271 208 q 377 151 324 151 m 425 1042 l 639 852 l 639 844 l 471 844 l 364 939 l 258 844 l 94 844 l 94 854 l 303 1042 l 425 1042 z "},"¸":{"ha":380,"x_min":62,"x_max":338,"o":"m 83 5 l 244 5 l 236 -35 q 307 -67 275 -41 q 338 -152 338 -94 q 276 -271 338 -226 q 92 -316 214 -316 l 87 -199 q 123 -193 108 -199 q 148 -175 138 -187 q 157 -144 157 -163 q 135 -106 157 -117 q 62 -92 113 -95 l 83 5 z "},"¢":{"ha":811,"x_min":68,"x_max":716,"o":"m 477 894 l 477 696 l 344 696 l 344 894 l 477 894 m 477 31 l 477 -166 l 344 -166 l 344 31 l 477 31 m 404 151 q 464 164 438 151 q 503 200 489 177 q 516 257 517 224 l 716 257 q 675 116 716 177 q 565 21 634 55 q 409 -14 496 -14 q 219 36 295 -14 q 106 169 144 85 q 68 358 68 253 l 68 376 q 105 565 68 481 q 219 698 143 648 q 408 747 294 747 q 568 713 498 747 q 676 613 637 678 q 716 458 716 549 l 516 458 q 504 521 517 493 q 466 566 491 549 q 404 583 441 583 q 325 554 351 583 q 289 477 298 525 q 280 376 280 430 l 280 358 q 289 255 280 302 q 325 180 298 208 q 404 151 352 151 z "},"ˆ":{"ha":694,"x_min":75,"x_max":620,"o":"m 406 1042 l 620 852 l 620 844 l 452 844 l 345 939 l 239 844 l 75 844 l 75 854 l 284 1042 l 406 1042 z "},":":{"ha":423,"x_min":87,"x_max":336,"o":"m 87 519 q 123 435 87 469 q 212 401 159 401 q 300 435 263 401 q 336 520 336 469 q 300 605 336 571 q 212 639 263 639 q 123 605 160 639 q 87 519 87 571 m 87 120 q 123 35 87 68 q 212 1 159 1 q 300 35 263 1 q 336 120 336 69 q 300 205 336 172 q 212 239 263 239 q 123 205 160 239 q 87 120 87 172 z "},",":{"ha":358,"x_min":28,"x_max":273,"o":"m 273 169 l 272 31 q 233 -126 272 -48 q 136 -255 195 -205 l 28 -201 q 60 -139 43 -170 q 88 -69 77 -107 q 99 20 99 -31 l 99 169 l 273 169 z "},"©":{"ha":1091,"x_min":59,"x_max":1022,"o":"m 653 404 l 758 404 q 697 244 758 298 q 531 191 636 191 q 358 264 422 191 q 294 454 294 337 l 294 534 q 358 724 294 651 q 531 797 422 797 q 697 744 636 797 q 758 584 758 690 l 654 584 q 623 677 654 649 q 531 706 591 706 q 458 684 488 706 q 414 624 429 663 q 399 535 399 585 l 399 454 q 432 330 399 378 q 531 282 465 282 q 622 310 591 282 q 653 404 653 338 m 141 494 q 172 328 141 405 q 258 193 203 250 q 385 103 313 135 q 541 71 458 71 q 695 103 623 71 q 823 193 768 135 q 908 328 878 250 q 939 494 939 405 q 908 661 939 584 q 823 795 878 738 q 695 885 768 853 q 541 917 623 917 q 385 885 458 917 q 258 795 313 853 q 172 661 203 738 q 141 494 141 584 m 59 494 q 96 694 59 602 q 200 856 134 787 q 354 963 267 924 q 541 1001 441 1001 q 727 963 640 1001 q 881 856 814 924 q 984 694 947 787 q 1022 494 1022 602 q 984 294 1022 387 q 881 133 947 202 q 727 25 814 64 q 541 -14 640 -14 q 354 25 441 -14 q 200 133 267 64 q 96 294 134 202 q 59 494 59 387 z "},"¤":{"ha":955,"x_min":51,"x_max":909,"o":"m 199 412 q 221 296 199 350 q 281 201 242 241 q 370 138 319 160 q 479 115 420 115 q 587 138 536 115 q 676 201 637 160 q 736 296 714 241 q 758 412 758 350 q 736 529 758 475 q 676 623 714 583 q 587 686 637 664 q 479 709 536 709 q 370 686 420 709 q 281 623 319 664 q 221 529 242 583 q 199 412 199 475 m 75 412 q 106 580 75 503 q 193 715 138 657 q 322 805 249 772 q 479 837 395 837 q 635 805 562 837 q 764 715 708 772 q 850 580 819 657 q 882 412 882 503 q 850 245 882 322 q 764 110 819 168 q 635 19 708 52 q 479 -14 562 -14 q 322 19 395 -14 q 193 110 249 52 q 106 245 138 168 q 75 412 75 322 m 909 760 l 772 621 l 677 718 l 814 858 l 909 760 m 282 122 l 145 -18 l 51 79 l 188 218 l 282 122 m 814 -18 l 677 121 l 772 218 l 909 79 l 814 -18 m 188 621 l 51 760 l 145 857 l 282 718 l 188 621 z "},"d":{"ha":781,"x_min":41,"x_max":711,"o":"m 498 164 l 498 1042 l 711 1042 l 711 0 l 519 0 l 498 164 m 41 358 l 41 372 q 74 569 41 484 q 170 700 106 653 q 327 747 234 747 q 469 699 412 747 q 559 565 526 650 q 606 374 592 481 l 606 350 q 558 167 592 250 q 468 35 525 84 q 326 -14 411 -14 q 170 35 234 -14 q 74 168 106 83 q 41 358 41 252 m 252 372 l 252 358 q 264 253 252 300 q 304 179 276 206 q 379 151 332 151 q 457 173 427 151 q 503 235 488 195 q 519 326 519 274 l 519 397 q 511 475 519 441 q 485 534 502 510 q 441 570 467 557 q 380 583 416 583 q 306 555 334 583 q 265 479 278 527 q 252 372 252 432 z "},"†":{"ha":743,"x_min":37,"x_max":707,"o":"m 476 987 l 476 0 l 264 0 l 264 987 l 476 987 m 707 734 l 707 564 l 37 564 l 37 734 l 707 734 z "},"‡":{"ha":807,"x_min":68,"x_max":739,"o":"m 509 987 l 509 -282 l 296 -282 l 296 987 l 509 987 m 739 734 l 739 569 l 68 569 l 68 734 l 739 734 m 739 165 l 739 0 l 68 0 l 68 165 l 739 165 z "},"ď":{"ha":883,"x_min":41,"x_max":966,"o":"m 498 164 l 498 1042 l 711 1042 l 711 0 l 519 0 l 498 164 m 41 358 l 41 372 q 74 569 41 484 q 170 700 106 653 q 327 747 234 747 q 469 699 412 747 q 559 565 526 650 q 606 374 592 481 l 606 350 q 558 167 592 250 q 468 35 525 84 q 326 -14 411 -14 q 170 35 234 -14 q 74 168 106 83 q 41 358 41 252 m 252 372 l 252 358 q 264 253 252 300 q 304 179 276 206 q 379 151 332 151 q 457 173 427 151 q 503 235 488 195 q 519 326 519 274 l 519 397 q 511 475 519 441 q 485 534 502 510 q 441 570 467 557 q 380 583 416 583 q 306 555 334 583 q 265 479 278 527 q 252 372 252 432 m 966 1043 l 966 995 q 938 863 966 929 q 870 753 909 796 l 768 807 q 805 884 791 844 q 819 984 819 924 l 819 1043 l 966 1043 z "},"đ":{"ha":886,"x_min":41,"x_max":811,"o":"m 498 164 l 498 1042 l 711 1042 l 711 0 l 519 0 l 498 164 m 41 358 l 41 372 q 74 569 41 484 q 170 700 106 653 q 327 747 234 747 q 469 699 412 747 q 559 565 526 650 q 606 374 592 481 l 606 350 q 558 167 592 250 q 468 35 525 84 q 326 -14 411 -14 q 170 35 234 -14 q 74 168 106 83 q 41 358 41 252 m 252 372 l 252 358 q 264 253 252 300 q 304 179 276 206 q 379 151 332 151 q 457 173 427 151 q 503 235 488 195 q 519 326 519 274 l 519 397 q 511 475 519 441 q 485 534 502 510 q 441 570 467 557 q 380 583 416 583 q 306 555 334 583 q 265 479 278 527 q 252 372 252 432 m 811 951 l 811 826 l 326 826 l 326 951 l 811 951 z "},"°":{"ha":547,"x_min":86,"x_max":458,"o":"m 86 813 q 112 907 86 865 q 180 976 137 950 q 273 1001 222 1001 q 366 976 324 1001 q 433 907 408 950 q 458 813 458 865 q 433 719 458 762 q 366 652 408 677 q 273 627 323 627 q 180 652 222 627 q 112 719 137 677 q 86 813 86 762 m 187 813 q 213 752 187 777 q 273 728 238 728 q 332 752 308 728 q 356 813 356 776 q 332 875 356 850 q 273 900 309 900 q 213 875 238 900 q 187 813 187 850 z "},"¨":{"ha":670,"x_min":65,"x_max":603,"o":"m 65 926 q 94 988 65 963 q 163 1014 122 1014 q 233 988 204 1014 q 261 926 261 963 q 233 865 261 890 q 163 840 204 840 q 94 865 122 840 q 65 926 65 890 m 408 926 q 436 988 408 963 q 505 1013 465 1013 q 575 988 547 1013 q 603 926 603 963 q 575 864 603 890 q 505 839 547 839 q 436 864 465 839 q 408 926 408 890 z "},"÷":{"ha":812,"x_min":78,"x_max":734,"o":"m 302 100 q 334 24 302 54 q 409 -7 365 -7 q 484 25 453 -7 q 515 100 515 56 q 484 175 515 144 q 409 207 452 207 q 334 175 365 207 q 302 100 302 143 m 302 606 q 334 530 302 560 q 409 499 365 499 q 484 531 453 499 q 515 606 515 562 q 484 681 515 650 q 409 713 452 713 q 334 681 365 713 q 302 606 302 649 m 78 275 l 734 275 l 734 434 l 78 434 l 78 275 z "},"$":{"ha":801,"x_min":59,"x_max":741,"o":"m 480 1143 l 480 945 l 373 945 l 373 1143 l 480 1143 m 467 36 l 467 -146 l 359 -146 l 359 36 l 467 36 m 526 260 q 514 324 526 298 q 473 370 501 350 q 397 408 444 389 q 240 482 308 444 q 134 578 172 520 q 96 726 96 635 q 137 872 96 810 q 250 968 178 934 q 417 1002 322 1002 q 587 964 514 1002 q 701 855 660 926 q 741 682 741 783 l 529 682 q 497 801 529 762 q 414 839 465 839 q 353 824 377 839 q 319 783 330 808 q 308 725 308 757 q 320 668 308 692 q 360 623 332 644 q 438 582 389 603 q 594 506 526 546 q 700 409 662 467 q 739 262 739 352 q 697 112 739 174 q 583 18 656 50 q 413 -14 509 -14 q 286 2 349 -14 q 172 57 223 19 q 90 158 120 95 q 59 313 59 221 l 271 313 q 283 234 271 265 q 315 183 295 202 q 360 157 335 165 q 413 149 386 149 q 477 163 452 149 q 514 204 502 178 q 526 260 526 229 z "},"˙":{"ha":375,"x_min":77,"x_max":289,"o":"m 77 933 q 106 1002 77 975 q 182 1029 136 1029 q 260 1002 231 1029 q 289 933 289 975 q 260 866 289 892 q 182 839 231 839 q 106 866 136 839 q 77 933 77 892 z "},"̣":{"ha":0,"x_min":-524,"x_max":-287,"o":"m -524 -158 q -491 -89 -524 -117 q -406 -61 -458 -61 q -320 -89 -353 -61 q -287 -158 -287 -117 q -320 -226 -287 -199 q -406 -254 -353 -254 q -491 -226 -458 -254 q -524 -158 -524 -199 z "},"ı":{"ha":388,"x_min":87,"x_max":300,"o":"m 300 734 l 300 0 l 87 0 l 87 734 l 300 734 z "},"e":{"ha":753,"x_min":45,"x_max":722,"o":"m 416 -14 q 217 35 300 -14 q 89 164 134 83 q 45 342 45 245 l 45 368 q 85 563 45 477 q 204 698 125 649 q 393 747 282 747 q 571 703 498 747 q 683 578 644 659 q 722 388 722 497 l 722 301 l 130 301 l 130 437 l 514 437 l 514 454 q 500 522 514 492 q 459 567 486 551 q 392 583 433 583 q 312 554 341 583 q 270 477 282 526 q 258 368 258 429 l 258 342 q 278 242 258 286 q 338 175 299 199 q 430 151 376 151 q 526 170 480 151 q 604 231 571 189 l 703 117 q 596 27 669 68 q 416 -14 523 -14 z "},"é":{"ha":753,"x_min":45,"x_max":722,"o":"m 416 -14 q 217 35 300 -14 q 89 164 134 83 q 45 342 45 245 l 45 368 q 85 563 45 477 q 204 698 125 649 q 393 747 282 747 q 571 703 498 747 q 683 578 644 659 q 722 388 722 497 l 722 301 l 130 301 l 130 437 l 514 437 l 514 454 q 500 522 514 492 q 459 567 486 551 q 392 583 433 583 q 312 554 341 583 q 270 477 282 526 q 258 368 258 429 l 258 342 q 278 242 258 286 q 338 175 299 199 q 430 151 376 151 q 526 170 480 151 q 604 231 571 189 l 703 117 q 596 27 669 68 q 416 -14 523 -14 m 267 831 l 401 1042 l 627 1042 l 439 831 l 267 831 z "},"ĕ":{"ha":753,"x_min":45,"x_max":722,"o":"m 416 -14 q 217 35 300 -14 q 89 164 134 83 q 45 342 45 245 l 45 368 q 85 563 45 477 q 204 698 125 649 q 393 747 282 747 q 571 703 498 747 q 683 578 644 659 q 722 388 722 497 l 722 301 l 130 301 l 130 437 l 514 437 l 514 454 q 500 522 514 492 q 459 567 486 551 q 392 583 433 583 q 312 554 341 583 q 270 477 282 526 q 258 368 258 429 l 258 342 q 278 242 258 286 q 338 175 299 199 q 430 151 376 151 q 526 170 480 151 q 604 231 571 189 l 703 117 q 596 27 669 68 q 416 -14 523 -14 m 462 1039 l 610 1039 q 544 892 610 949 q 366 836 478 836 q 189 892 254 836 q 123 1039 123 949 l 270 1039 q 292 978 270 1004 q 366 951 313 951 q 440 978 419 951 q 462 1039 462 1004 z "},"ě":{"ha":753,"x_min":45,"x_max":722,"o":"m 416 -14 q 217 35 300 -14 q 89 164 134 83 q 45 342 45 245 l 45 368 q 85 563 45 477 q 204 698 125 649 q 393 747 282 747 q 571 703 498 747 q 683 578 644 659 q 722 388 722 497 l 722 301 l 130 301 l 130 437 l 514 437 l 514 454 q 500 522 514 492 q 459 567 486 551 q 392 583 433 583 q 312 554 341 583 q 270 477 282 526 q 258 368 258 429 l 258 342 q 278 242 258 286 q 338 175 299 199 q 430 151 376 151 q 526 170 480 151 q 604 231 571 189 l 703 117 q 596 27 669 68 q 416 -14 523 -14 m 265 1043 l 366 948 l 466 1043 l 646 1043 l 646 1036 l 434 844 l 298 844 l 84 1037 l 84 1043 l 265 1043 z "},"ê":{"ha":753,"x_min":45,"x_max":722,"o":"m 416 -14 q 217 35 300 -14 q 89 164 134 83 q 45 342 45 245 l 45 368 q 85 563 45 477 q 204 698 125 649 q 393 747 282 747 q 571 703 498 747 q 683 578 644 659 q 722 388 722 497 l 722 301 l 130 301 l 130 437 l 514 437 l 514 454 q 500 522 514 492 q 459 567 486 551 q 392 583 433 583 q 312 554 341 583 q 270 477 282 526 q 258 368 258 429 l 258 342 q 278 242 258 286 q 338 175 299 199 q 430 151 376 151 q 526 170 480 151 q 604 231 571 189 l 703 117 q 596 27 669 68 q 416 -14 523 -14 m 427 1042 l 640 852 l 640 844 l 473 844 l 366 940 l 259 844 l 95 844 l 95 855 l 304 1042 l 427 1042 z "},"ë":{"ha":753,"x_min":45,"x_max":722,"o":"m 416 -14 q 217 35 300 -14 q 89 164 134 83 q 45 342 45 245 l 45 368 q 85 563 45 477 q 204 698 125 649 q 393 747 282 747 q 571 703 498 747 q 683 578 644 659 q 722 388 722 497 l 722 301 l 130 301 l 130 437 l 514 437 l 514 454 q 500 522 514 492 q 459 567 486 551 q 392 583 433 583 q 312 554 341 583 q 270 477 282 526 q 258 368 258 429 l 258 342 q 278 242 258 286 q 338 175 299 199 q 430 151 376 151 q 526 170 480 151 q 604 231 571 189 l 703 117 q 596 27 669 68 q 416 -14 523 -14 m 96 927 q 124 989 96 964 q 193 1015 153 1015 q 263 989 235 1015 q 292 927 292 964 q 263 865 292 890 q 193 840 235 840 q 124 865 153 840 q 96 927 96 890 m 438 927 q 467 989 438 964 q 536 1014 495 1014 q 605 989 577 1014 q 633 927 633 964 q 605 865 633 890 q 536 840 577 840 q 467 865 495 840 q 438 927 438 890 z "},"ė":{"ha":753,"x_min":45,"x_max":722,"o":"m 416 -14 q 217 35 300 -14 q 89 164 134 83 q 45 342 45 245 l 45 368 q 85 563 45 477 q 204 698 125 649 q 393 747 282 747 q 571 703 498 747 q 683 578 644 659 q 722 388 722 497 l 722 301 l 130 301 l 130 437 l 514 437 l 514 454 q 500 522 514 492 q 459 567 486 551 q 392 583 433 583 q 312 554 341 583 q 270 477 282 526 q 258 368 258 429 l 258 342 q 278 242 258 286 q 338 175 299 199 q 430 151 376 151 q 526 170 480 151 q 604 231 571 189 l 703 117 q 596 27 669 68 q 416 -14 523 -14 m 259 947 q 289 1016 259 989 q 365 1042 318 1042 q 442 1016 413 1042 q 471 947 471 989 q 442 879 471 906 q 365 852 413 852 q 289 879 318 852 q 259 947 259 906 z "},"è":{"ha":753,"x_min":45,"x_max":722,"o":"m 416 -14 q 217 35 300 -14 q 89 164 134 83 q 45 342 45 245 l 45 368 q 85 563 45 477 q 204 698 125 649 q 393 747 282 747 q 571 703 498 747 q 683 578 644 659 q 722 388 722 497 l 722 301 l 130 301 l 130 437 l 514 437 l 514 454 q 500 522 514 492 q 459 567 486 551 q 392 583 433 583 q 312 554 341 583 q 270 477 282 526 q 258 368 258 429 l 258 342 q 278 242 258 286 q 338 175 299 199 q 430 151 376 151 q 526 170 480 151 q 604 231 571 189 l 703 117 q 596 27 669 68 q 416 -14 523 -14 m 334 1042 l 468 831 l 295 831 l 106 1042 l 334 1042 z "},"…":{"ha":1053,"x_min":94,"x_max":991,"o":"m 94 119 q 130 34 94 68 q 218 0 166 0 q 307 34 270 0 q 343 119 343 68 q 307 205 343 171 q 218 239 270 239 q 130 205 167 239 q 94 119 94 171 m 419 119 q 455 34 419 68 q 544 0 492 0 q 632 34 595 0 q 669 119 669 68 q 632 205 669 171 q 544 239 595 239 q 456 205 492 239 q 419 119 419 171 m 743 119 q 779 34 743 68 q 867 0 815 0 q 956 34 919 0 q 992 119 992 68 q 956 205 992 171 q 867 239 919 239 q 779 205 816 239 q 743 119 743 171 z "},"ē":{"ha":753,"x_min":45,"x_max":722,"o":"m 416 -14 q 217 35 300 -14 q 89 164 134 83 q 45 342 45 245 l 45 368 q 85 563 45 477 q 204 698 125 649 q 393 747 282 747 q 571 703 498 747 q 683 578 644 659 q 722 388 722 497 l 722 301 l 130 301 l 130 437 l 514 437 l 514 454 q 500 522 514 492 q 459 567 486 551 q 392 583 433 583 q 312 554 341 583 q 270 477 282 526 q 258 368 258 429 l 258 342 q 278 242 258 286 q 338 175 299 199 q 430 151 376 151 q 526 170 480 151 q 604 231 571 189 l 703 117 q 596 27 669 68 q 416 -14 523 -14 m 600 985 l 600 871 l 132 871 l 132 985 l 600 985 z "},"—":{"ha":1085,"x_min":81,"x_max":1004,"o":"m 1004 275 l 1004 429 l 81 429 l 81 275 l 1004 275 z "},"–":{"ha":912,"x_min":81,"x_max":831,"o":"m 831 275 l 831 429 l 81 429 l 81 275 l 831 275 z "},"ŋ":{"ha":782,"x_min":67,"x_max":716,"o":"m 279 577 l 279 0 l 67 0 l 67 734 l 267 734 l 279 577 m 239 392 l 212 391 q 246 574 212 494 q 341 701 279 655 q 484 747 402 747 q 605 718 553 747 q 687 621 657 688 q 716 445 716 555 l 716 -18 q 645 -225 716 -153 q 448 -296 573 -296 q 396 -294 420 -296 q 344 -285 372 -292 l 353 -123 q 386 -129 370 -127 q 421 -131 401 -131 q 482 -102 461 -131 q 503 -18 503 -74 l 503 445 q 491 527 503 498 q 457 570 479 557 q 404 583 435 583 q 332 568 363 583 q 280 528 301 553 q 249 467 260 502 q 239 392 239 433 z "},"ę":{"ha":753,"x_min":45,"x_max":722,"o":"m 416 -14 q 217 35 300 -14 q 89 164 134 83 q 45 342 45 245 l 45 368 q 85 563 45 477 q 204 698 125 649 q 393 747 282 747 q 571 703 498 747 q 683 578 644 659 q 722 388 722 497 l 722 301 l 130 301 l 130 437 l 514 437 l 514 454 q 500 522 514 492 q 459 567 486 551 q 392 583 433 583 q 312 554 341 583 q 270 477 282 526 q 258 368 258 429 l 258 342 q 278 242 258 286 q 338 175 299 199 q 430 151 376 151 q 526 170 480 151 q 604 231 571 189 l 703 117 q 596 27 669 68 q 416 -14 523 -14 m 476 63 l 590 23 q 513 -32 537 -5 q 488 -93 488 -58 q 498 -124 488 -111 q 531 -136 507 -136 q 561 -132 549 -136 q 581 -123 572 -127 l 605 -232 q 561 -252 588 -242 q 493 -262 534 -262 q 380 -225 427 -262 q 334 -119 334 -189 q 346 -53 334 -85 q 390 8 359 -21 q 476 63 420 38 z "},"=":{"ha":785,"x_min":91,"x_max":702,"o":"m 702 134 l 702 288 l 91 288 l 91 134 l 702 134 m 702 410 l 702 563 l 91 563 l 91 410 l 702 410 z "},"℮":{"ha":878,"x_min":100,"x_max":791,"o":"m 705 134 l 706 64 q 585 7 649 28 q 455 -14 522 -14 q 317 16 381 -14 q 203 98 252 46 q 127 220 155 151 q 100 367 100 289 q 130 514 100 446 q 211 635 160 583 q 325 718 262 688 q 455 747 389 747 q 624 700 548 747 q 746 569 701 652 q 791 380 791 486 q 791 372 791 378 q 791 349 791 366 l 270 349 l 270 126 q 355 72 307 92 q 455 52 402 52 q 582 72 518 52 q 705 134 645 92 m 455 684 q 356 661 404 684 q 270 601 309 639 l 270 413 l 636 413 l 636 607 q 554 663 601 642 q 455 684 507 684 z "},"ð":{"ha":795,"x_min":51,"x_max":756,"o":"m 157 915 l 224 1071 q 500 955 380 1040 q 688 739 621 869 q 756 442 756 609 l 756 396 q 709 182 756 275 q 581 38 663 90 q 396 -14 500 -14 q 215 31 293 -14 q 94 150 138 75 q 51 317 51 225 q 86 494 51 418 q 190 612 121 570 q 357 654 258 654 q 496 621 434 654 q 596 529 557 587 q 641 396 634 471 l 566 397 q 555 432 566 414 q 526 465 545 450 q 475 490 506 481 q 404 500 445 500 q 325 478 357 500 q 278 415 294 456 q 262 317 262 374 q 279 233 262 271 q 326 173 295 195 q 399 151 356 151 q 479 180 448 151 q 527 259 511 209 q 543 373 543 310 l 543 444 q 511 628 543 549 q 424 765 479 708 q 300 858 370 821 q 157 915 231 895 m 671 943 l 284 701 l 232 779 l 618 1021 l 671 943 z "},"!":{"ha":412,"x_min":81,"x_max":330,"o":"m 81 120 q 117 35 81 68 q 206 1 153 1 q 294 35 258 1 q 330 120 330 69 q 294 205 330 172 q 206 239 258 239 q 118 205 155 239 q 81 120 81 172 m 106 954 l 119 332 l 296 332 l 309 954 l 106 954 z "},"‼":{"ha":760,"x_min":81,"x_max":710,"o":"m 81 120 q 117 35 81 68 q 206 1 153 1 q 294 35 258 1 q 330 120 330 69 q 294 205 330 172 q 206 239 258 239 q 118 205 155 239 q 81 120 81 172 m 106 954 l 119 332 l 296 332 l 309 954 l 106 954 m 461 120 q 497 35 461 68 q 586 1 533 1 q 674 35 637 1 q 710 120 710 69 q 674 205 710 172 q 586 239 637 239 q 498 205 534 239 q 461 120 461 172 m 486 954 l 499 332 l 676 332 l 688 954 l 486 954 z "},"¡":{"ha":405,"x_min":85,"x_max":322,"o":"m 90 -251 l 116 429 l 290 429 l 316 -251 l 90 -251 m 322 640 q 289 563 322 594 q 203 532 256 532 q 118 563 151 532 q 85 640 85 594 q 118 716 85 686 q 203 747 151 747 q 289 716 256 747 q 322 640 322 686 z "},"f":{"ha":500,"x_min":14,"x_max":500,"o":"m 334 0 l 121 0 l 121 796 q 196 989 121 922 q 396 1056 270 1056 q 451 1052 425 1056 q 500 1042 476 1048 l 500 884 q 474 889 488 888 q 441 890 460 890 q 362 866 391 890 q 334 796 334 842 l 334 0 m 479 734 l 479 585 l 14 585 l 14 734 l 479 734 z "},"ﬃ":{"ha":1316,"x_min":14,"x_max":1236,"o":"m 334 0 l 121 0 l 121 796 q 196 989 121 922 q 396 1056 270 1056 q 451 1052 425 1056 q 500 1042 476 1048 l 500 884 q 474 889 488 888 q 441 890 460 890 q 362 866 391 890 q 334 796 334 842 l 334 0 m 480 734 l 480 585 l 14 585 l 14 734 l 480 734 m 785 0 l 572 0 l 572 760 q 660 980 572 904 q 906 1056 747 1056 q 1022 1045 966 1056 q 1137 1017 1078 1034 l 1107 848 q 1025 869 1069 859 q 919 878 982 878 q 820 848 854 878 q 785 760 785 818 l 785 0 m 930 734 l 930 585 l 465 585 l 465 734 l 930 734 m 1236 734 l 1236 0 l 1023 0 l 1023 734 l 1236 734 z "},"ﬄ":{"ha":1316,"x_min":14,"x_max":1236,"o":"m 334 0 l 121 0 l 121 796 q 196 989 121 922 q 396 1056 270 1056 q 451 1052 425 1056 q 500 1042 476 1048 l 500 884 q 474 889 488 888 q 441 890 460 890 q 362 866 391 890 q 334 796 334 842 l 334 0 m 480 734 l 480 585 l 14 585 l 14 734 l 480 734 m 785 0 l 572 0 l 572 785 q 655 986 572 917 q 887 1056 737 1056 q 993 1053 929 1056 q 1122 1046 1057 1050 q 1236 1038 1188 1042 l 1149 869 q 1030 884 1088 878 q 918 890 972 890 q 819 863 854 890 q 785 785 785 836 l 785 0 m 1023 0 l 1023 1038 l 1236 1038 l 1236 0 l 1023 0 m 930 734 l 930 585 l 465 585 l 465 734 l 930 734 z "},"ﬂ":{"ha":866,"x_min":14,"x_max":785,"o":"m 334 0 l 121 0 l 121 785 q 204 986 121 917 q 437 1056 287 1056 q 543 1053 479 1056 q 672 1046 606 1050 q 785 1038 737 1042 l 698 869 q 579 884 637 878 q 468 890 522 890 q 369 863 404 890 q 334 785 334 836 l 334 0 m 572 0 l 572 1038 l 785 1038 l 785 0 l 572 0 m 479 734 l 479 585 l 14 585 l 14 734 l 479 734 z "},"ﬁ":{"ha":865,"x_min":13,"x_max":784,"o":"m 334 0 l 121 0 l 121 760 q 209 980 121 904 q 454 1056 296 1056 q 571 1045 515 1056 q 686 1017 627 1034 l 656 848 q 574 869 618 859 q 468 878 531 878 q 368 848 403 878 q 334 760 334 818 l 334 0 m 478 734 l 478 585 l 13 585 l 13 734 l 478 734 m 784 734 l 784 0 l 572 0 l 572 734 l 784 734 z "},"‒":{"ha":695,"x_min":81,"x_max":614,"o":"m 614 275 l 614 429 l 81 429 l 81 275 l 614 275 z "},"⅝":{"ha":1183,"x_min":59,"x_max":1118,"o":"m 184 682 l 70 709 l 107 986 l 452 986 l 452 875 l 224 875 l 211 785 q 245 796 220 789 q 300 804 271 804 q 436 759 390 804 q 483 631 483 714 q 460 542 483 585 q 391 471 437 498 q 271 444 344 444 q 169 463 218 444 q 90 518 121 482 q 58 603 59 554 l 205 603 q 223 568 205 578 q 271 557 241 557 q 326 580 313 557 q 338 632 338 602 q 319 687 338 667 q 260 707 300 707 q 210 697 227 707 q 184 682 193 688 m 878 846 l 395 74 l 294 126 l 777 898 l 878 846 m 1118 149 q 1058 31 1118 70 q 907 -7 999 -7 q 754 31 815 -7 q 694 149 694 70 q 755 260 694 221 q 905 300 816 300 q 1057 260 997 300 q 1118 149 1118 221 m 973 163 q 954 203 973 190 q 905 216 935 216 q 858 203 877 216 q 839 163 839 190 q 858 121 839 136 q 907 106 877 106 q 955 121 937 106 q 973 163 973 136 m 1105 391 q 1050 287 1105 325 q 907 250 994 250 q 763 287 819 250 q 706 391 706 325 q 763 505 706 466 q 905 543 819 543 q 1049 505 994 543 q 1105 391 1105 466 m 960 381 q 947 417 960 404 q 905 429 933 429 q 865 417 879 429 q 851 381 851 404 q 865 344 851 358 q 907 330 880 330 q 947 344 934 330 q 960 381 960 358 z "},"ƒ":{"ha":507,"x_min":-27,"x_max":511,"o":"m 476 734 l 476 585 l 332 585 l 332 -30 q 264 -228 332 -159 q 76 -296 196 -296 q 24 -294 48 -296 q -27 -285 1 -292 l -17 -123 q 12 -129 -7 -127 q 44 -132 31 -132 q 104 -105 88 -132 q 119 -30 119 -79 l 119 585 l 12 585 l 12 734 l 119 734 l 119 796 q 194 989 119 922 q 400 1056 268 1056 q 456 1052 429 1056 q 511 1042 483 1048 l 494 884 q 464 889 479 888 q 427 891 449 891 q 357 867 381 891 q 332 796 332 842 l 332 734 l 476 734 z "},"⁄":{"ha":616,"x_min":15,"x_max":598,"o":"m 598 846 l 116 74 l 15 126 l 497 898 l 598 846 z "},"₣":{"ha":761,"x_min":-14,"x_max":734,"o":"m 302 987 l 302 0 l 81 0 l 81 987 l 302 987 m 691 571 l 691 400 l 241 400 l 241 571 l 691 571 m 734 987 l 734 816 l 241 816 l 241 987 l 734 987 m 471 268 l 471 142 l -14 142 l -14 268 l 471 268 z "},"g":{"ha":796,"x_min":43,"x_max":726,"o":"m 533 734 l 726 734 l 726 26 q 680 -145 726 -75 q 553 -252 634 -216 q 362 -289 471 -289 q 263 -276 315 -289 q 166 -239 212 -264 q 90 -176 121 -214 l 180 -52 q 255 -109 212 -87 q 354 -131 298 -131 q 472 -90 431 -131 q 513 26 513 -49 l 513 562 l 533 734 m 43 358 l 43 372 q 79 569 43 484 q 182 700 115 653 q 341 747 249 747 q 465 719 416 747 q 544 641 513 691 q 592 522 574 590 q 621 374 610 454 l 621 350 q 574 167 606 250 q 486 35 543 84 q 340 -14 429 -14 q 181 35 248 -14 q 79 168 115 83 q 43 358 43 252 m 254 372 l 254 358 q 270 253 254 300 q 316 179 285 206 q 393 151 347 151 q 477 173 445 151 q 525 235 509 195 q 541 326 540 274 l 541 397 q 532 475 541 441 q 506 534 523 510 q 461 570 488 557 q 395 583 433 583 q 317 555 348 583 q 270 479 286 527 q 254 372 254 432 z "},"ğ":{"ha":796,"x_min":43,"x_max":726,"o":"m 533 734 l 726 734 l 726 26 q 680 -145 726 -75 q 553 -252 634 -216 q 362 -289 471 -289 q 263 -276 315 -289 q 166 -239 212 -264 q 90 -176 121 -214 l 180 -52 q 255 -109 212 -87 q 354 -131 298 -131 q 472 -90 431 -131 q 513 26 513 -49 l 513 562 l 533 734 m 43 358 l 43 372 q 79 569 43 484 q 182 700 115 653 q 341 747 249 747 q 465 719 416 747 q 544 641 513 691 q 592 522 574 590 q 621 374 610 454 l 621 350 q 574 167 606 250 q 486 35 543 84 q 340 -14 429 -14 q 181 35 248 -14 q 79 168 115 83 q 43 358 43 252 m 254 372 l 254 358 q 270 253 254 300 q 316 179 285 206 q 393 151 347 151 q 477 173 445 151 q 525 235 509 195 q 541 326 540 274 l 541 397 q 532 475 541 441 q 506 534 523 510 q 461 570 488 557 q 395 583 433 583 q 317 555 348 583 q 270 479 286 527 q 254 372 254 432 m 472 1038 l 620 1038 q 554 891 620 948 q 376 835 488 835 q 199 891 264 835 q 133 1038 133 948 l 280 1038 q 302 977 280 1004 q 376 950 323 950 q 451 977 429 950 q 472 1038 472 1004 z "},"ĝ":{"ha":796,"x_min":43,"x_max":726,"o":"m 533 734 l 726 734 l 726 26 q 680 -145 726 -75 q 553 -252 634 -216 q 362 -289 471 -289 q 263 -276 315 -289 q 166 -239 212 -264 q 90 -176 121 -214 l 180 -52 q 255 -109 212 -87 q 354 -131 298 -131 q 472 -90 431 -131 q 513 26 513 -49 l 513 562 l 533 734 m 43 358 l 43 372 q 79 569 43 484 q 182 700 115 653 q 341 747 249 747 q 465 719 416 747 q 544 641 513 691 q 592 522 574 590 q 621 374 610 454 l 621 350 q 574 167 606 250 q 486 35 543 84 q 340 -14 429 -14 q 181 35 248 -14 q 79 168 115 83 q 43 358 43 252 m 254 372 l 254 358 q 270 253 254 300 q 316 179 285 206 q 393 151 347 151 q 477 173 445 151 q 525 235 509 195 q 541 326 540 274 l 541 397 q 532 475 541 441 q 506 534 523 510 q 461 570 488 557 q 395 583 433 583 q 317 555 348 583 q 270 479 286 527 q 254 372 254 432 m 437 1042 l 651 852 l 651 844 l 484 844 l 376 939 l 270 844 l 106 844 l 106 854 l 315 1042 l 437 1042 z "},"ģ":{"ha":796,"x_min":43,"x_max":726,"o":"m 533 734 l 726 734 l 726 26 q 680 -145 726 -75 q 553 -252 634 -216 q 362 -289 471 -289 q 263 -276 315 -289 q 166 -239 212 -264 q 90 -176 121 -214 l 180 -52 q 255 -109 212 -87 q 354 -131 298 -131 q 472 -90 431 -131 q 513 26 513 -49 l 513 562 l 533 734 m 43 358 l 43 372 q 79 569 43 484 q 182 700 115 653 q 341 747 249 747 q 465 719 416 747 q 544 641 513 691 q 592 522 574 590 q 621 374 610 454 l 621 350 q 574 167 606 250 q 486 35 543 84 q 340 -14 429 -14 q 181 35 248 -14 q 79 168 115 83 q 43 358 43 252 m 254 372 l 254 358 q 270 253 254 300 q 316 179 285 206 q 393 151 347 151 q 477 173 445 151 q 525 235 509 195 q 541 326 540 274 l 541 397 q 532 475 541 441 q 506 534 523 510 q 461 570 488 557 q 395 583 433 583 q 317 555 348 583 q 270 479 286 527 q 254 372 254 432 m 295 854 l 295 948 q 307 1040 295 997 q 340 1116 318 1082 q 391 1168 362 1149 l 498 1118 q 468 1042 484 1088 q 452 940 452 996 l 451 854 l 295 854 z "},"ß":{"ha":890,"x_min":92,"x_max":847,"o":"m 304 743 l 304 0 l 92 0 l 92 747 q 182 979 92 901 q 427 1058 271 1058 q 574 1029 507 1058 q 680 945 640 1001 q 720 805 720 888 q 710 726 720 755 q 686 676 699 697 q 662 630 673 655 q 652 565 652 606 q 672 514 652 538 q 721 463 692 490 q 779 406 749 437 q 827 335 808 374 q 847 244 847 295 q 811 106 847 163 q 706 17 775 48 q 534 -14 636 -14 q 464 -9 499 -14 q 397 4 428 -5 q 348 23 367 12 l 387 184 q 445 162 408 173 q 532 151 483 151 q 587 161 564 151 q 623 193 610 172 q 635 241 635 213 q 616 299 635 274 q 567 349 596 325 q 508 400 538 373 q 459 465 479 428 q 439 555 439 503 q 450 630 439 601 q 474 681 460 659 q 498 730 488 704 q 508 795 508 756 q 495 847 508 825 q 459 882 482 869 q 407 894 436 894 q 332 861 360 894 q 304 743 304 829 z "},"`":{"ha":465,"x_min":37,"x_max":399,"o":"m 264 1042 l 399 831 l 226 831 l 37 1042 l 264 1042 z "},"̀":{"ha":0,"x_min":-612,"x_max":-250,"o":"m -385 1042 l -250 831 l -423 831 l -612 1042 l -385 1042 z "},">":{"ha":715,"x_min":78,"x_max":672,"o":"m 501 406 l 78 553 l 78 748 l 672 502 l 672 359 l 501 406 m 78 283 l 502 434 l 672 477 l 672 334 l 78 88 l 78 283 z "},"≥":{"ha":715,"x_min":78,"x_max":672,"o":"m 501 471 l 78 593 l 78 753 l 672 549 l 672 432 l 501 471 m 78 369 l 502 494 l 672 529 l 672 412 l 78 209 l 78 369 m 669 154 l 669 1 l 78 1 l 78 154 l 669 154 z "},"«":{"ha":663,"x_min":56,"x_max":607,"o":"m 339 73 q 255 221 283 159 q 227 340 227 283 q 255 459 227 397 q 339 607 283 521 l 241 699 q 101 507 145 593 q 56 340 56 422 q 101 174 56 260 q 241 -18 146 88 l 339 73 m 607 73 q 523 221 551 159 q 495 340 495 283 q 523 459 495 397 q 607 607 551 521 l 509 699 q 366 507 413 593 q 318 340 318 422 q 366 174 318 260 q 509 -18 414 88 l 607 73 z "},"»":{"ha":663,"x_min":56,"x_max":606,"o":"m 323 73 l 422 -18 q 562 174 517 88 q 606 340 606 260 q 562 507 606 422 q 422 699 517 593 l 323 607 q 407 459 379 521 q 435 340 435 397 q 407 221 435 283 q 323 73 379 159 m 56 73 l 154 -18 q 296 174 249 88 q 344 340 344 260 q 296 507 344 422 q 154 699 249 593 l 56 607 q 139 459 112 521 q 167 340 167 397 q 139 221 167 283 q 56 73 112 159 z "},"‹":{"ha":437,"x_min":73,"x_max":393,"o":"m 393 624 l 231 351 l 73 351 l 73 360 l 261 624 l 393 624 m 231 357 l 393 83 l 261 83 l 73 347 l 73 356 l 231 357 z "},"›":{"ha":420,"x_min":54,"x_max":374,"o":"m 54 82 l 215 356 l 374 355 l 374 347 l 186 82 l 54 82 m 54 624 l 186 624 l 374 359 l 374 351 l 215 350 l 54 624 z "},"h":{"ha":781,"x_min":66,"x_max":713,"o":"m 277 1042 l 277 0 l 66 0 l 66 1042 l 277 1042 m 250 393 l 197 391 q 231 575 197 494 q 326 701 264 655 q 469 747 387 747 q 597 719 542 747 q 683 628 652 691 q 713 460 713 565 l 713 0 l 500 0 l 500 461 q 487 534 500 508 q 449 572 474 561 q 389 583 425 583 q 321 568 348 583 q 278 528 294 553 q 256 467 262 502 q 250 393 250 433 z "},"ħ":{"ha":801,"x_min":-18,"x_max":734,"o":"m 298 1042 l 298 0 l 86 0 l 86 1042 l 298 1042 m 270 393 l 217 391 q 251 575 217 494 q 346 701 285 655 q 490 747 408 747 q 617 719 562 747 q 703 628 673 691 q 734 460 734 565 l 734 0 l 521 0 l 521 461 q 508 534 521 508 q 470 572 494 561 q 410 583 445 583 q 341 568 368 583 q 298 528 314 553 q 276 467 283 502 q 270 393 270 433 m 468 949 l 468 824 l -18 824 l -18 949 l 468 949 z "},"ĥ":{"ha":781,"x_min":66,"x_max":713,"o":"m 277 1042 l 277 0 l 66 0 l 66 1042 l 277 1042 m 250 393 l 197 391 q 231 575 197 494 q 326 701 264 655 q 469 747 387 747 q 597 719 542 747 q 683 628 652 691 q 713 460 713 565 l 713 0 l 500 0 l 500 461 q 487 534 500 508 q 449 572 474 561 q 389 583 425 583 q 321 568 348 583 q 278 528 294 553 q 256 467 262 502 q 250 393 250 433 m 421 1306 l 635 1116 l 635 1108 l 467 1108 l 360 1204 l 254 1108 l 90 1108 l 90 1119 l 299 1306 l 421 1306 z "},"̉":{"ha":0,"x_min":-512,"x_max":-235,"o":"m -337 862 l -498 862 l -511 950 q -439 963 -461 952 q -418 994 -418 973 q -430 1022 -418 1013 q -463 1036 -441 1032 q -512 1040 -484 1040 l -507 1134 q -304 1099 -374 1134 q -235 1002 -235 1063 q -268 933 -235 956 q -338 905 -300 910 l -337 862 z "},"˝":{"ha":587,"x_min":34,"x_max":619,"o":"m 285 838 l 438 1041 l 619 1041 l 439 838 l 285 838 m 34 838 l 165 1041 l 345 1041 l 186 838 l 34 838 z "},"-":{"ha":671,"x_min":78,"x_max":593,"o":"m 593 272 l 593 431 l 78 431 l 78 272 l 593 272 z "},"‐":{"ha":585,"x_min":78,"x_max":593,"o":"m 593 272 l 593 431 l 78 431 l 78 272 l 593 272 z "},"‧":{"ha":384,"x_min":74,"x_max":311,"o":"m 74 425 q 106 501 74 471 q 192 530 139 530 q 278 501 245 530 q 311 425 311 471 q 278 350 311 380 q 192 321 245 321 q 106 350 139 321 q 74 425 74 380 z "},"‑":{"ha":585,"x_min":78,"x_max":593,"o":"m 593 272 l 593 431 l 78 431 l 78 272 l 593 272 z "},"i":{"ha":375,"x_min":68,"x_max":305,"o":"m 294 734 l 294 0 l 81 0 l 81 734 l 294 734 m 68 924 q 101 999 68 970 q 186 1029 134 1029 q 272 999 239 1029 q 305 924 305 970 q 272 849 305 878 q 186 819 239 819 q 101 849 134 819 q 68 924 68 878 z "},"í":{"ha":388,"x_min":87,"x_max":456,"o":"m 300 734 l 300 0 l 87 0 l 87 734 l 300 734 m 95 819 l 229 1029 l 456 1029 l 268 819 l 95 819 z "},"ĭ":{"ha":388,"x_min":-49,"x_max":438,"o":"m 300 734 l 300 0 l 87 0 l 87 734 l 300 734 m 290 1026 l 438 1026 q 372 879 438 936 q 195 823 307 823 q 17 879 83 823 q -49 1026 -49 936 l 98 1026 q 120 965 98 991 q 195 938 142 938 q 269 965 248 938 q 290 1026 290 991 z "},"î":{"ha":388,"x_min":-77,"x_max":469,"o":"m 300 734 l 300 0 l 87 0 l 87 734 l 300 734 m 256 1029 l 469 840 l 469 831 l 302 831 l 195 927 l 88 831 l -76 831 l -76 842 l 134 1029 l 256 1029 z "},"ï":{"ha":388,"x_min":-76,"x_max":462,"o":"m 300 734 l 300 0 l 87 0 l 87 734 l 300 734 m -76 914 q -47 976 -76 951 q 22 1002 -19 1002 q 92 976 63 1002 q 120 914 120 951 q 92 852 120 878 q 22 827 63 827 q -47 852 -19 827 q -76 914 -76 878 m 267 914 q 295 976 267 951 q 364 1001 323 1001 q 434 976 406 1001 q 462 914 462 951 q 434 852 462 878 q 364 827 406 827 q 295 852 323 827 q 267 914 267 878 z "},"ì":{"ha":388,"x_min":-64,"x_max":300,"o":"m 300 734 l 300 0 l 87 0 l 87 734 l 300 734 m 162 1029 l 296 819 l 123 819 l -65 1029 l 162 1029 z "},"ĳ":{"ha":743,"x_min":68,"x_max":680,"o":"m 294 734 l 294 0 l 81 0 l 81 734 l 294 734 m 68 924 q 101 999 68 970 q 186 1029 134 1029 q 272 999 239 1029 q 305 924 305 970 q 272 849 305 878 q 186 819 239 819 q 101 849 134 819 q 68 924 68 878 m 459 734 l 672 734 l 672 -34 q 601 -229 672 -161 q 405 -296 530 -296 q 353 -294 378 -296 q 301 -285 329 -292 l 301 -123 q 333 -128 318 -126 q 366 -130 349 -130 q 435 -106 410 -130 q 459 -34 459 -83 l 459 734 m 443 924 q 475 999 443 970 q 562 1029 508 1029 q 647 999 614 1029 q 680 924 680 970 q 647 849 680 878 q 562 819 614 819 q 475 849 508 819 q 443 924 443 878 z "},"ī":{"ha":388,"x_min":-39,"x_max":429,"o":"m 300 734 l 300 0 l 87 0 l 87 734 l 300 734 m 429 972 l 429 859 l -39 859 l -39 972 l 429 972 z "},"∞":{"ha":1466,"x_min":64,"x_max":1400,"o":"m 64 360 l 64 373 q 107 564 64 479 q 230 698 151 648 q 416 747 309 747 q 544 723 488 747 q 643 660 600 699 q 716 572 686 620 q 767 474 747 524 q 798 381 787 424 l 798 363 q 767 270 787 321 q 717 169 747 219 q 643 77 686 119 q 545 11 600 36 q 418 -14 489 -14 q 230 36 309 -14 q 107 170 151 85 q 64 360 64 255 m 270 373 l 270 360 q 280 280 270 317 q 311 215 291 243 q 361 172 332 187 q 431 157 391 157 q 501 175 470 157 q 555 220 532 193 q 593 276 578 247 q 616 329 608 305 q 626 363 625 353 l 626 381 q 616 413 625 391 q 593 464 608 436 q 555 517 578 492 q 501 560 532 543 q 429 577 470 577 q 361 561 391 577 q 311 517 332 545 q 280 452 291 490 q 270 373 270 415 m 1400 373 l 1400 360 q 1357 170 1400 255 q 1235 36 1314 85 q 1046 -14 1156 -14 q 919 11 975 -14 q 820 77 863 36 q 747 169 777 119 q 696 270 716 219 q 665 363 675 321 l 665 381 q 696 474 675 424 q 747 572 716 524 q 821 660 778 620 q 920 723 863 699 q 1047 747 976 747 q 1235 698 1156 747 q 1357 564 1314 648 q 1400 373 1400 479 m 1194 360 l 1194 373 q 1183 452 1194 415 q 1153 517 1173 490 q 1102 561 1133 545 q 1034 577 1072 577 q 962 560 994 577 q 908 517 931 543 q 870 464 885 492 q 847 413 855 436 q 838 381 839 391 l 838 363 q 847 329 839 353 q 870 276 855 305 q 909 220 886 247 q 963 175 932 193 q 1033 157 994 157 q 1101 172 1071 157 q 1152 215 1131 187 q 1183 280 1173 243 q 1194 360 1194 317 z "},"∫":{"ha":414,"x_min":-67,"x_max":484,"o":"m 304 -26 q 233 -229 304 -161 q 37 -296 161 -296 q -15 -294 9 -296 q -67 -285 -39 -292 l -57 -123 q -30 -129 -42 -127 q 3 -132 -18 -132 q 70 -106 47 -132 q 92 -26 92 -81 l 92 797 q 166 990 92 923 q 373 1057 241 1057 q 428 1053 401 1057 q 484 1042 455 1048 l 467 885 q 437 890 452 888 q 399 892 422 892 q 329 867 353 892 q 304 797 304 843 l 304 -26 z "},"į":{"ha":375,"x_min":4,"x_max":305,"o":"m 294 734 l 294 0 l 81 0 l 81 734 l 294 734 m 68 924 q 101 999 68 970 q 186 1029 134 1029 q 272 999 239 1029 q 305 924 305 970 q 272 849 305 878 q 186 819 239 819 q 101 849 134 819 q 68 924 68 878 m 146 41 l 260 0 q 183 -54 208 -28 q 159 -116 159 -80 q 168 -147 159 -134 q 201 -159 178 -159 q 231 -155 220 -159 q 252 -146 243 -150 l 275 -255 q 231 -275 258 -265 q 163 -285 204 -285 q 51 -249 97 -285 q 4 -142 4 -212 q 17 -76 4 -109 q 60 -14 29 -44 q 146 41 91 16 z "},"ĩ":{"ha":388,"x_min":-65,"x_max":452,"o":"m 300 734 l 300 0 l 87 0 l 87 734 l 300 734 m 333 1029 l 452 1021 q 432 930 452 972 q 377 864 412 889 q 298 840 342 840 q 242 848 266 840 q 198 868 218 857 q 157 889 178 880 q 109 898 136 898 q 72 882 87 898 q 56 834 56 865 l -65 841 q -45 931 -65 889 q 9 998 -26 972 q 90 1023 44 1023 q 140 1014 117 1023 q 185 994 163 1006 q 230 974 208 983 q 277 965 252 965 q 316 981 300 965 q 333 1029 333 998 z "},"j":{"ha":369,"x_min":-74,"x_max":304,"o":"m 84 734 l 297 734 l 297 -34 q 226 -229 297 -161 q 30 -296 155 -296 q -22 -294 3 -296 q -74 -285 -46 -292 l -74 -123 q -42 -128 -57 -126 q -9 -130 -26 -130 q 60 -106 35 -130 q 84 -34 84 -83 l 84 734 m 68 924 q 100 999 68 970 q 186 1029 133 1029 q 272 999 239 1029 q 304 924 304 970 q 272 849 304 878 q 186 819 239 819 q 100 849 133 819 q 68 924 68 878 z "},"ĵ":{"ha":401,"x_min":-85,"x_max":460,"o":"m 98 734 l 311 734 l 311 -18 q 239 -225 311 -153 q 43 -296 168 -296 q -9 -294 15 -296 q -61 -285 -34 -292 l -51 -123 q -20 -130 -35 -127 q 16 -132 -5 -132 q 77 -103 56 -132 q 98 -18 98 -74 l 98 734 m 247 1025 l 460 836 l 460 827 l 293 827 l 186 923 l 79 827 l -85 827 l -85 838 l 125 1025 l 247 1025 z "},"k":{"ha":751,"x_min":71,"x_max":768,"o":"m 283 1042 l 283 0 l 71 0 l 71 1042 l 283 1042 m 749 734 l 430 365 l 261 195 l 176 338 l 313 515 l 494 734 l 749 734 m 526 0 l 319 337 l 471 456 l 768 0 l 526 0 z "},"ķ":{"ha":751,"x_min":71,"x_max":768,"o":"m 283 1042 l 283 0 l 71 0 l 71 1042 l 283 1042 m 749 734 l 430 365 l 261 195 l 176 338 l 313 515 l 494 734 l 749 734 m 526 0 l 319 337 l 471 456 l 768 0 l 526 0 m 464 -35 l 464 -83 q 435 -216 464 -149 q 368 -325 407 -282 l 266 -271 q 302 -194 288 -235 q 317 -94 317 -154 l 317 -35 l 464 -35 z "},"ĸ":{"ha":831,"x_min":84,"x_max":808,"o":"m 296 734 l 296 0 l 84 0 l 84 734 l 296 734 m 800 734 l 469 266 l 264 266 l 239 463 l 357 463 l 528 734 l 800 734 m 535 0 l 355 304 l 547 399 l 808 0 l 535 0 z "},"l":{"ha":375,"x_min":81,"x_max":294,"o":"m 294 1042 l 294 0 l 81 0 l 81 1042 l 294 1042 z "},"ĺ":{"ha":375,"x_min":81,"x_max":449,"o":"m 294 1042 l 294 0 l 81 0 l 81 1042 l 294 1042 m 88 1095 l 222 1306 l 449 1306 l 261 1095 l 88 1095 z "},"ľ":{"ha":477,"x_min":81,"x_max":544,"o":"m 294 1042 l 294 0 l 81 0 l 81 1042 l 294 1042 m 544 1043 l 544 995 q 515 863 544 929 q 448 753 487 796 l 346 807 q 382 884 368 844 q 397 984 397 924 l 397 1043 l 544 1043 z "},"ļ":{"ha":375,"x_min":64,"x_max":294,"o":"m 294 1042 l 294 0 l 81 0 l 81 1042 l 294 1042 m 262 -54 l 262 -102 q 233 -234 262 -168 q 165 -343 205 -300 l 64 -290 q 100 -213 86 -253 q 115 -113 115 -172 l 115 -54 l 262 -54 z "},"ŀ":{"ha":524,"x_min":81,"x_max":570,"o":"m 294 1042 l 294 0 l 81 0 l 81 1042 l 294 1042 m 357 523 q 387 592 357 565 q 463 618 416 618 q 541 592 511 618 q 570 523 570 565 q 541 455 570 482 q 463 429 511 429 q 387 455 416 429 q 357 523 357 482 z "},"<":{"ha":708,"x_min":34,"x_max":627,"o":"m 204 433 l 627 285 l 627 89 l 34 335 l 34 477 l 204 433 m 627 553 l 204 402 l 34 359 l 34 502 l 627 748 l 627 553 z "},"≤":{"ha":708,"x_min":34,"x_max":632,"o":"m 204 490 l 627 367 l 627 206 l 34 410 l 34 526 l 204 490 m 627 589 l 204 465 l 34 430 l 34 547 l 627 750 l 627 589 m 632 154 l 632 1 l 41 1 l 41 154 l 632 154 z "},"₤":{"ha":830,"x_min":71,"x_max":792,"o":"m 792 0 l 71 0 l 71 171 l 791 171 l 792 0 m 389 705 l 407 299 q 376 186 407 232 q 269 109 346 140 l 138 171 q 169 194 159 176 q 180 236 178 211 q 182 286 182 260 l 170 705 q 208 864 170 798 q 315 965 246 930 q 477 1000 385 1000 q 710 922 629 1000 q 791 715 791 843 l 583 715 q 569 783 583 758 q 531 819 555 808 q 479 829 508 829 q 414 798 439 829 q 389 705 389 767 m 579 611 l 579 501 l 72 501 l 72 611 l 579 611 m 579 428 l 579 317 l 72 317 l 72 428 l 579 428 z "},"¬":{"ha":764,"x_min":85,"x_max":652,"o":"m 652 545 l 652 431 l 85 431 l 85 545 l 652 545 m 652 494 l 652 254 l 517 254 l 517 494 l 652 494 z "},"ſ":{"ha":362,"x_min":72,"x_max":463,"o":"m 283 0 l 72 0 l 72 796 q 146 989 72 922 q 351 1056 220 1056 q 407 1052 380 1056 q 463 1042 434 1048 l 446 884 q 416 889 431 888 q 378 891 401 891 q 308 867 333 891 q 283 796 283 842 l 283 0 z "},"◊":{"ha":709,"x_min":20,"x_max":693,"o":"m 20 493 l 264 987 l 427 987 l 380 823 l 230 493 l 382 161 l 414 0 l 264 0 l 20 493 m 332 159 l 483 493 l 334 823 l 298 987 l 449 987 l 693 493 l 449 0 l 299 0 l 332 159 z "},"ł":{"ha":437,"x_min":19,"x_max":415,"o":"m 415 652 l 415 536 l 19 409 l 19 525 l 415 652 m 321 1042 l 321 0 l 109 0 l 109 1042 l 321 1042 z "},"m":{"ha":1200,"x_min":71,"x_max":1129,"o":"m 283 580 l 283 0 l 71 0 l 71 734 l 270 734 l 283 580 m 256 393 l 202 391 q 235 575 202 494 q 331 701 268 655 q 488 747 395 747 q 645 687 585 747 q 705 490 705 627 l 705 0 l 494 0 l 494 464 q 482 538 494 513 q 448 573 470 564 q 394 583 425 583 q 334 568 360 583 q 290 528 308 553 q 264 467 273 502 q 256 393 256 433 m 684 404 l 616 398 q 648 577 617 498 q 742 702 680 656 q 897 747 804 747 q 1018 720 966 747 q 1100 631 1071 693 q 1129 465 1129 570 l 1129 0 l 916 0 l 916 465 q 904 538 916 513 q 870 573 892 564 q 818 583 848 583 q 759 569 784 583 q 717 531 734 555 q 692 474 700 507 q 684 404 684 441 z "},"¯":{"ha":709,"x_min":119,"x_max":587,"o":"m 587 987 l 587 873 l 119 873 l 119 987 l 587 987 z "},"−":{"ha":671,"x_min":78,"x_max":593,"o":"m 593 272 l 593 431 l 78 431 l 78 272 l 593 272 z "},"′":{"ha":219,"x_min":37,"x_max":189,"o":"m 189 1042 l 189 937 l 168 663 l 37 663 l 37 928 l 37 1042 l 189 1042 z "},"µ":{"ha":874,"x_min":93,"x_max":765,"o":"m 553 734 l 765 734 l 765 0 l 566 0 l 553 170 l 553 734 m 577 341 l 665 342 q 637 159 665 240 q 553 32 609 79 q 414 -14 498 -14 q 327 2 366 -14 q 257 53 287 18 q 210 142 228 87 l 193 313 l 304 313 q 319 213 304 248 q 359 165 333 178 q 422 153 386 153 q 515 177 481 153 q 563 244 549 201 q 577 341 577 288 m 93 734 l 304 734 l 304 -282 l 93 -282 l 93 734 z "},"×":{"ha":731,"x_min":72,"x_max":659,"o":"m 253 349 l 72 165 l 184 50 l 366 235 l 547 50 l 659 165 l 478 349 l 658 533 l 547 648 l 366 464 l 184 648 l 73 533 l 253 349 z "},"n":{"ha":781,"x_min":66,"x_max":713,"o":"m 278 577 l 278 0 l 66 0 l 66 734 l 265 734 l 278 577 m 250 393 l 197 391 q 233 582 197 503 q 333 704 269 661 q 482 747 397 747 q 604 720 551 747 q 685 631 656 693 q 713 465 713 570 l 713 0 l 500 0 l 500 466 q 488 537 500 512 q 450 572 475 562 q 390 583 425 583 q 326 568 353 583 q 283 528 300 553 q 258 467 266 502 q 250 393 250 433 z "},"ń":{"ha":781,"x_min":66,"x_max":713,"o":"m 278 577 l 278 0 l 66 0 l 66 734 l 265 734 l 278 577 m 250 393 l 197 391 q 233 582 197 503 q 333 704 269 661 q 482 747 397 747 q 604 720 551 747 q 685 631 656 693 q 713 465 713 570 l 713 0 l 500 0 l 500 466 q 488 537 500 512 q 450 572 475 562 q 390 583 425 583 q 326 568 353 583 q 283 528 300 553 q 258 467 266 502 q 250 393 250 433 m 292 831 l 427 1042 l 653 1042 l 465 831 l 292 831 z "},"₦":{"ha":1137,"x_min":26,"x_max":1109,"o":"m 1109 673 l 1109 566 l 26 566 l 26 673 l 1109 673 m 1109 453 l 1109 345 l 26 345 l 26 453 l 1109 453 m 975 987 l 975 0 l 755 0 l 381 638 l 381 0 l 160 0 l 160 987 l 381 987 l 754 349 l 754 987 l 975 987 z "},"ŉ":{"ha":781,"x_min":-83,"x_max":713,"o":"m 278 577 l 278 0 l 66 0 l 66 734 l 265 734 l 278 577 m 250 393 l 197 391 q 233 582 197 503 q 333 704 269 661 q 482 747 397 747 q 604 720 551 747 q 685 631 656 693 q 713 465 713 570 l 713 0 l 500 0 l 500 466 q 488 537 500 512 q 450 572 475 562 q 390 583 425 583 q 326 568 353 583 q 283 528 300 553 q 258 467 266 502 q 250 393 250 433 m 115 1042 l 115 994 q 87 861 115 928 q 19 752 58 795 l -83 806 q -46 883 -60 842 q -32 983 -32 923 l -32 1042 l 115 1042 z "}," ":{"ha":345,"x_min":0,"x_max":0,"o":""},"ň":{"ha":781,"x_min":66,"x_max":713,"o":"m 278 577 l 278 0 l 66 0 l 66 734 l 265 734 l 278 577 m 250 393 l 197 391 q 233 582 197 503 q 333 704 269 661 q 482 747 397 747 q 604 720 551 747 q 685 631 656 693 q 713 465 713 570 l 713 0 l 500 0 l 500 466 q 488 537 500 512 q 450 572 475 562 q 390 583 425 583 q 326 568 353 583 q 283 528 300 553 q 258 467 266 502 q 250 393 250 433 m 291 1042 l 391 947 l 492 1042 l 672 1042 l 672 1035 l 460 844 l 323 844 l 110 1036 l 110 1042 l 291 1042 z "},"ņ":{"ha":781,"x_min":66,"x_max":713,"o":"m 278 577 l 278 0 l 66 0 l 66 734 l 265 734 l 278 577 m 250 393 l 197 391 q 233 582 197 503 q 333 704 269 661 q 482 747 397 747 q 604 720 551 747 q 685 631 656 693 q 713 465 713 570 l 713 0 l 500 0 l 500 466 q 488 537 500 512 q 450 572 475 562 q 390 583 425 583 q 326 568 353 583 q 283 528 300 553 q 258 467 266 502 q 250 393 250 433 m 466 -54 l 466 -102 q 437 -234 466 -168 q 370 -343 409 -300 l 268 -290 q 304 -213 290 -253 q 319 -113 319 -172 l 319 -54 l 466 -54 z "},"≠":{"ha":806,"x_min":90,"x_max":708,"o":"m 623 763 l 254 60 l 169 102 l 538 806 l 623 763 m 708 665 l 708 500 l 90 500 l 90 665 l 708 665 m 708 370 l 708 205 l 90 205 l 90 370 l 708 370 z "},"ⁿ":{"ha":579,"x_min":53,"x_max":526,"o":"m 201 870 l 201 444 l 53 444 l 53 987 l 172 987 l 201 870 m 185 731 l 153 730 q 176 866 153 807 q 241 960 199 926 q 346 994 284 994 q 479 945 431 994 q 526 786 526 896 l 526 444 l 378 444 l 378 739 q 356 840 378 811 q 292 868 334 868 q 209 828 233 868 q 185 731 185 789 z "},"ñ":{"ha":781,"x_min":66,"x_max":713,"o":"m 278 577 l 278 0 l 66 0 l 66 734 l 265 734 l 278 577 m 250 393 l 197 391 q 233 582 197 503 q 333 704 269 661 q 482 747 397 747 q 604 720 551 747 q 685 631 656 693 q 713 465 713 570 l 713 0 l 500 0 l 500 466 q 488 537 500 512 q 450 572 475 562 q 390 583 425 583 q 326 568 353 583 q 283 528 300 553 q 258 467 266 502 q 250 393 250 433 m 530 1040 l 650 1033 q 630 942 650 983 q 575 876 610 901 q 495 851 540 851 q 439 860 463 851 q 395 880 416 868 q 354 901 375 892 q 307 909 333 909 q 269 893 285 909 q 253 846 253 877 l 132 852 q 152 942 132 901 q 207 1009 172 984 q 287 1034 241 1034 q 337 1026 314 1034 q 383 1006 361 1017 q 427 985 405 994 q 475 977 450 977 q 514 993 497 977 q 530 1040 530 1009 z "},"#":{"ha":814,"x_min":30,"x_max":787,"o":"m 136 0 l 303 987 l 431 987 l 264 0 l 136 0 m 385 0 l 553 987 l 682 987 l 514 0 l 385 0 m 787 586 l 81 586 l 81 705 l 787 705 l 787 586 m 736 278 l 30 278 l 30 397 l 736 397 l 736 278 z "},"o":{"ha":783,"x_min":40,"x_max":742,"o":"m 40 359 l 40 374 q 81 565 40 481 q 199 699 121 650 q 390 747 277 747 q 582 699 504 747 q 701 565 661 650 q 742 374 742 481 l 742 359 q 701 168 742 252 q 583 35 661 83 q 391 -14 505 -14 q 200 35 278 -14 q 81 168 121 83 q 40 359 40 252 m 252 374 l 252 359 q 265 254 252 302 q 309 179 278 207 q 391 151 339 151 q 473 179 443 151 q 516 254 503 207 q 530 359 530 302 l 530 374 q 516 478 530 431 q 473 554 503 525 q 390 583 443 583 q 308 554 338 583 q 265 478 278 525 q 252 374 252 431 z "},"ó":{"ha":783,"x_min":40,"x_max":742,"o":"m 40 359 l 40 374 q 81 565 40 481 q 199 699 121 650 q 390 747 277 747 q 582 699 504 747 q 701 565 661 650 q 742 374 742 481 l 742 359 q 701 168 742 252 q 583 35 661 83 q 391 -14 505 -14 q 200 35 278 -14 q 81 168 121 83 q 40 359 40 252 m 252 374 l 252 359 q 265 254 252 302 q 309 179 278 207 q 391 151 339 151 q 473 179 443 151 q 516 254 503 207 q 530 359 530 302 l 530 374 q 516 478 530 431 q 473 554 503 525 q 390 583 443 583 q 308 554 338 583 q 265 478 278 525 q 252 374 252 431 m 292 831 l 426 1042 l 652 1042 l 465 831 l 292 831 z "},"ŏ":{"ha":783,"x_min":40,"x_max":742,"o":"m 40 359 l 40 374 q 81 565 40 481 q 199 699 121 650 q 390 747 277 747 q 582 699 504 747 q 701 565 661 650 q 742 374 742 481 l 742 359 q 701 168 742 252 q 583 35 661 83 q 391 -14 505 -14 q 200 35 278 -14 q 81 168 121 83 q 40 359 40 252 m 252 374 l 252 359 q 265 254 252 302 q 309 179 278 207 q 391 151 339 151 q 473 179 443 151 q 516 254 503 207 q 530 359 530 302 l 530 374 q 516 478 530 431 q 473 554 503 525 q 390 583 443 583 q 308 554 338 583 q 265 478 278 525 q 252 374 252 431 m 486 1038 l 634 1038 q 568 891 634 948 q 391 835 503 835 q 213 891 279 835 q 147 1038 147 948 l 294 1038 q 316 977 294 1004 q 391 950 338 950 q 465 977 444 950 q 486 1038 486 1004 z "},"ô":{"ha":783,"x_min":40,"x_max":742,"o":"m 40 359 l 40 374 q 81 565 40 481 q 199 699 121 650 q 390 747 277 747 q 582 699 504 747 q 701 565 661 650 q 742 374 742 481 l 742 359 q 701 168 742 252 q 583 35 661 83 q 391 -14 505 -14 q 200 35 278 -14 q 81 168 121 83 q 40 359 40 252 m 252 374 l 252 359 q 265 254 252 302 q 309 179 278 207 q 391 151 339 151 q 473 179 443 151 q 516 254 503 207 q 530 359 530 302 l 530 374 q 516 478 530 431 q 473 554 503 525 q 390 583 443 583 q 308 554 338 583 q 265 478 278 525 q 252 374 252 431 m 452 1042 l 665 852 l 665 844 l 498 844 l 391 939 l 284 844 l 120 844 l 120 854 l 330 1042 l 452 1042 z "},"ö":{"ha":783,"x_min":40,"x_max":742,"o":"m 40 359 l 40 374 q 81 565 40 481 q 199 699 121 650 q 390 747 277 747 q 582 699 504 747 q 701 565 661 650 q 742 374 742 481 l 742 359 q 701 168 742 252 q 583 35 661 83 q 391 -14 505 -14 q 200 35 278 -14 q 81 168 121 83 q 40 359 40 252 m 252 374 l 252 359 q 265 254 252 302 q 309 179 278 207 q 391 151 339 151 q 473 179 443 151 q 516 254 503 207 q 530 359 530 302 l 530 374 q 516 478 530 431 q 473 554 503 525 q 390 583 443 583 q 308 554 338 583 q 265 478 278 525 q 252 374 252 431 m 121 926 q 149 988 121 963 q 218 1014 178 1014 q 288 988 260 1014 q 317 926 317 963 q 288 865 317 890 q 218 840 260 840 q 149 865 178 840 q 121 926 121 890 m 463 926 q 492 988 463 963 q 561 1013 520 1013 q 630 988 602 1013 q 659 926 659 963 q 630 864 659 890 q 561 839 602 839 q 492 864 520 839 q 463 926 463 890 z "},"œ":{"ha":1253,"x_min":54,"x_max":1200,"o":"m 901 -14 q 714 34 793 -14 q 592 163 635 81 q 549 344 549 244 l 549 370 q 588 563 549 477 q 702 699 627 649 q 884 747 777 748 q 1055 707 985 747 q 1163 592 1126 666 q 1200 416 1200 517 l 1200 302 l 634 302 l 634 438 l 992 438 l 992 456 q 981 523 992 495 q 946 567 970 551 q 884 583 922 583 q 811 554 838 583 q 773 477 785 525 q 762 370 762 429 l 762 344 q 780 248 762 292 q 834 177 798 204 q 927 151 871 151 q 1044 165 1000 151 q 1131 201 1087 180 l 1185 70 q 1069 12 1143 38 q 901 -14 996 -14 m 54 359 l 54 374 q 94 565 54 481 q 213 699 135 650 q 404 747 291 747 q 595 699 517 747 q 714 565 673 650 q 755 374 755 481 l 755 359 q 714 168 755 252 q 596 35 673 83 q 405 -14 518 -14 q 213 35 292 -14 q 94 168 135 83 q 54 359 54 252 m 266 374 l 266 359 q 279 254 266 302 q 322 179 292 207 q 405 151 353 151 q 487 179 456 151 q 530 254 517 207 q 543 359 543 302 l 543 374 q 530 478 543 431 q 487 554 517 525 q 404 583 456 583 q 322 554 352 583 q 279 478 292 525 q 266 374 266 431 z "},"˛":{"ha":427,"x_min":20,"x_max":292,"o":"m 163 41 l 277 0 q 200 -54 224 -28 q 175 -116 175 -80 q 184 -147 175 -134 q 218 -159 194 -159 q 248 -155 236 -159 q 268 -146 259 -150 l 292 -255 q 248 -275 275 -265 q 180 -285 220 -285 q 67 -249 113 -285 q 20 -142 20 -212 q 33 -76 20 -109 q 76 -14 45 -44 q 163 41 107 16 z "},"ò":{"ha":783,"x_min":40,"x_max":742,"o":"m 40 359 l 40 374 q 81 565 40 481 q 199 699 121 650 q 390 747 277 747 q 582 699 504 747 q 701 565 661 650 q 742 374 742 481 l 742 359 q 701 168 742 252 q 583 35 661 83 q 391 -14 505 -14 q 200 35 278 -14 q 81 168 121 83 q 40 359 40 252 m 252 374 l 252 359 q 265 254 252 302 q 309 179 278 207 q 391 151 339 151 q 473 179 443 151 q 516 254 503 207 q 530 359 530 302 l 530 374 q 516 478 530 431 q 473 554 503 525 q 390 583 443 583 q 308 554 338 583 q 265 478 278 525 q 252 374 252 431 m 359 1042 l 493 831 l 320 831 l 132 1042 l 359 1042 z "},"ơ":{"ha":810,"x_min":39,"x_max":817,"o":"m 696 801 l 817 801 q 758 607 817 676 q 569 538 699 538 l 569 622 q 648 644 621 622 q 685 705 675 665 q 696 801 696 745 m 39 359 l 39 374 q 79 565 39 481 q 198 699 120 650 q 389 747 277 747 q 581 699 503 747 q 700 565 659 650 q 741 374 741 481 l 741 359 q 700 168 741 252 q 581 35 659 83 q 391 -14 503 -14 q 199 35 277 -14 q 79 168 120 83 q 39 359 39 252 m 251 374 l 251 359 q 264 254 251 302 q 308 179 277 207 q 391 151 338 151 q 472 179 442 151 q 515 254 502 207 q 528 359 528 302 l 528 374 q 515 478 528 431 q 472 554 503 525 q 389 583 442 583 q 308 554 338 583 q 264 478 277 525 q 251 374 251 431 z "},"ő":{"ha":783,"x_min":40,"x_max":761,"o":"m 40 359 l 40 374 q 81 565 40 481 q 199 699 121 650 q 390 747 277 747 q 582 699 504 747 q 701 565 661 650 q 742 374 742 481 l 742 359 q 701 168 742 252 q 583 35 661 83 q 391 -14 505 -14 q 200 35 278 -14 q 81 168 121 83 q 40 359 40 252 m 252 374 l 252 359 q 265 254 252 302 q 309 179 278 207 q 391 151 339 151 q 473 179 443 151 q 516 254 503 207 q 530 359 530 302 l 530 374 q 516 478 530 431 q 473 554 503 525 q 390 583 443 583 q 308 554 338 583 q 265 478 278 525 q 252 374 252 431 m 426 838 l 579 1041 l 760 1041 l 580 838 l 426 838 m 175 838 l 306 1041 l 486 1041 l 328 838 l 175 838 z "},"ō":{"ha":783,"x_min":40,"x_max":742,"o":"m 40 359 l 40 374 q 81 565 40 481 q 199 699 121 650 q 390 747 277 747 q 582 699 504 747 q 701 565 661 650 q 742 374 742 481 l 742 359 q 701 168 742 252 q 583 35 661 83 q 391 -14 505 -14 q 200 35 278 -14 q 81 168 121 83 q 40 359 40 252 m 252 374 l 252 359 q 265 254 252 302 q 309 179 278 207 q 391 151 339 151 q 473 179 443 151 q 516 254 503 207 q 530 359 530 302 l 530 374 q 516 478 530 431 q 473 554 503 525 q 390 583 443 583 q 308 554 338 583 q 265 478 278 525 q 252 374 252 431 m 625 985 l 625 871 l 157 871 l 157 985 l 625 985 z "},"⅛":{"ha":1093,"x_min":69,"x_max":1027,"o":"m 337 971 l 337 438 l 193 438 l 193 807 l 69 781 l 69 889 l 324 971 l 337 971 m 793 846 l 311 74 l 210 126 l 692 898 l 793 846 m 1027 149 q 968 31 1027 70 q 817 -7 909 -7 q 664 31 725 -7 q 604 149 604 70 q 665 260 604 221 q 815 300 726 300 q 967 260 907 300 q 1027 149 1027 221 m 883 163 q 864 203 883 190 q 815 216 845 216 q 768 203 787 216 q 749 163 749 190 q 768 121 749 136 q 817 106 787 106 q 865 121 846 106 q 883 163 883 136 m 1015 391 q 960 287 1015 325 q 817 250 904 250 q 672 287 729 250 q 616 391 616 325 q 672 505 616 466 q 815 543 729 543 q 959 505 903 543 q 1015 391 1015 466 m 870 381 q 857 417 870 404 q 815 429 843 429 q 775 417 789 429 q 761 381 761 404 q 775 344 761 358 q 817 330 789 330 q 857 344 844 330 q 870 381 870 358 z "},"½":{"ha":1048,"x_min":59,"x_max":998,"o":"m 766 851 l 284 79 l 183 132 l 665 903 l 766 851 m 327 988 l 327 455 l 182 455 l 182 824 l 59 798 l 59 906 l 314 988 l 327 988 m 998 113 l 998 0 l 576 0 l 576 96 l 770 269 q 822 330 806 301 q 839 374 839 359 q 824 414 839 399 q 778 429 809 429 q 726 407 743 429 q 709 356 709 385 l 564 356 q 589 450 564 407 q 661 518 614 492 q 770 543 707 543 q 928 499 873 543 q 984 374 984 455 q 947 270 984 313 q 832 168 911 227 l 768 113 l 998 113 z "},"¼":{"ha":990,"x_min":73,"x_max":934,"o":"m 341 983 l 341 450 l 197 450 l 197 819 l 73 793 l 73 901 l 328 983 l 341 983 m 793 851 l 311 79 l 210 132 l 692 903 l 793 851 m 934 223 l 934 108 l 501 108 l 492 201 l 731 535 l 845 535 l 721 347 l 629 223 l 934 223 m 876 535 l 876 0 l 731 0 l 731 535 l 876 535 z "},"¹":{"ha":519,"x_min":95,"x_max":363,"o":"m 363 985 l 363 452 l 218 452 l 218 821 l 95 795 l 95 903 l 350 985 l 363 985 z "},"ª":{"ha":615,"x_min":92,"x_max":528,"o":"m 393 584 l 393 814 q 374 879 393 857 q 314 901 354 901 q 244 884 270 901 q 219 833 219 867 l 103 843 q 161 956 103 911 q 314 1001 218 1001 q 456 954 402 1001 q 511 814 511 907 l 511 601 q 515 538 511 568 q 528 478 519 508 l 410 478 q 393 584 393 527 m 422 780 l 422 701 l 324 701 q 237 679 264 701 q 210 626 210 656 q 229 582 210 598 q 290 566 249 566 q 346 578 318 566 q 394 609 374 591 q 414 644 414 628 l 426 566 q 395 521 416 544 q 340 484 374 498 q 261 469 307 469 q 136 511 180 469 q 92 623 92 553 q 150 739 92 698 q 323 780 207 780 l 422 780 z "},"º":{"ha":636,"x_min":81,"x_max":549,"o":"m 81 708 l 81 760 q 144 933 81 865 q 315 1001 207 1001 q 487 933 424 1001 q 549 760 549 865 l 549 708 q 487 535 549 603 q 316 468 425 468 q 144 535 208 468 q 81 708 81 603 m 198 760 l 198 708 q 227 607 198 648 q 316 566 256 566 q 404 607 375 566 q 432 708 432 648 l 432 760 q 403 861 432 821 q 315 901 374 901 q 227 861 256 901 q 198 760 198 821 z "},"ø":{"ha":782,"x_min":40,"x_max":742,"o":"m 675 825 l 225 -97 l 111 -97 l 560 825 l 675 825 m 40 359 l 40 374 q 81 565 40 481 q 199 699 121 650 q 390 747 277 747 q 582 699 504 747 q 701 565 661 650 q 742 374 742 481 l 742 359 q 701 168 742 252 q 583 35 661 83 q 391 -14 505 -14 q 200 35 278 -14 q 81 168 121 83 q 40 359 40 252 m 252 374 l 252 359 q 265 254 252 302 q 309 179 278 207 q 391 151 339 151 q 473 179 443 151 q 516 254 503 207 q 530 359 530 302 l 530 374 q 516 478 530 431 q 473 554 503 525 q 390 583 443 583 q 308 554 338 583 q 265 478 278 525 q 252 374 252 431 z "},"ǿ":{"ha":782,"x_min":40,"x_max":742,"o":"m 675 825 l 225 -97 l 111 -97 l 560 825 l 675 825 m 40 359 l 40 374 q 81 565 40 481 q 199 699 121 650 q 390 747 277 747 q 582 699 504 747 q 701 565 661 650 q 742 374 742 481 l 742 359 q 701 168 742 252 q 583 35 661 83 q 391 -14 505 -14 q 200 35 278 -14 q 81 168 121 83 q 40 359 40 252 m 252 374 l 252 359 q 265 254 252 302 q 309 179 278 207 q 391 151 339 151 q 473 179 443 151 q 516 254 503 207 q 530 359 530 302 l 530 374 q 516 478 530 431 q 473 554 503 525 q 390 583 443 583 q 308 554 338 583 q 265 478 278 525 q 252 374 252 431 m 267 827 l 401 1038 l 627 1038 l 439 827 l 267 827 z "},"õ":{"ha":783,"x_min":40,"x_max":742,"o":"m 40 359 l 40 374 q 81 565 40 481 q 199 699 121 650 q 390 747 277 747 q 582 699 504 747 q 701 565 661 650 q 742 374 742 481 l 742 359 q 701 168 742 252 q 583 35 661 83 q 391 -14 505 -14 q 200 35 278 -14 q 81 168 121 83 q 40 359 40 252 m 252 374 l 252 359 q 265 254 252 302 q 309 179 278 207 q 391 151 339 151 q 473 179 443 151 q 516 254 503 207 q 530 359 530 302 l 530 374 q 516 478 530 431 q 473 554 503 525 q 390 583 443 583 q 308 554 338 583 q 265 478 278 525 q 252 374 252 431 m 530 1040 l 649 1033 q 629 942 649 983 q 574 876 609 901 q 494 851 539 851 q 439 860 463 851 q 395 880 415 868 q 353 901 374 892 q 306 909 332 909 q 268 893 284 909 q 252 846 252 877 l 132 852 q 151 942 132 901 q 206 1009 171 984 q 286 1034 241 1034 q 337 1026 313 1034 q 382 1006 360 1017 q 427 985 404 994 q 474 977 449 977 q 513 993 496 977 q 530 1040 530 1009 z "},"p":{"ha":782,"x_min":71,"x_max":741,"o":"m 283 593 l 283 -282 l 71 -282 l 71 734 l 269 734 l 283 593 m 741 375 l 741 361 q 708 170 741 254 q 612 36 675 85 q 456 -14 548 -14 q 310 36 367 -14 q 222 167 254 85 q 176 349 190 250 l 176 377 q 222 567 190 484 q 310 699 254 650 q 455 747 366 747 q 612 701 548 747 q 708 571 675 654 q 741 375 741 487 m 528 361 l 528 375 q 516 481 528 435 q 476 555 504 528 q 401 583 448 583 q 336 570 363 583 q 294 535 310 558 q 270 477 277 511 q 262 400 263 444 l 262 326 q 277 235 263 275 q 321 173 291 195 q 402 151 351 151 q 477 179 450 151 q 516 255 505 208 q 528 361 528 303 z "},"¶":{"ha":679,"x_min":54,"x_max":595,"o":"m 595 0 l 444 0 l 444 353 l 388 353 q 206 394 280 353 q 93 507 132 435 q 54 670 54 578 q 93 833 54 761 q 206 946 132 905 q 388 987 280 987 l 595 987 l 595 0 z "},"(":{"ha":492,"x_min":88,"x_max":467,"o":"m 261 401 q 284 634 261 519 q 352 842 307 749 q 467 985 397 935 l 426 1093 q 286 989 348 1058 q 179 827 223 920 q 112 624 135 734 q 88 398 88 515 q 112 173 88 281 q 179 -28 135 64 q 286 -188 223 -120 q 426 -290 348 -256 l 467 -182 q 352 -39 397 -131 q 284 168 307 53 q 261 401 261 283 z "},")":{"ha":492,"x_min":25,"x_max":404,"o":"m 231 401 q 208 168 231 283 q 140 -39 186 53 q 25 -182 95 -131 l 66 -290 q 207 -187 144 -256 q 313 -26 269 -119 q 380 175 357 66 q 404 401 404 285 q 380 627 404 518 q 313 829 357 736 q 207 990 269 922 q 66 1093 144 1058 l 25 985 q 140 842 95 935 q 208 634 186 749 q 231 401 231 519 z "},"∂":{"ha":796,"x_min":58,"x_max":759,"o":"m 382 705 q 482 686 436 705 q 570 628 528 668 q 526 763 555 705 q 451 851 496 820 q 349 882 407 882 q 289 879 313 882 q 243 868 265 876 q 193 847 222 860 l 156 991 q 210 1017 180 1004 q 278 1037 240 1029 q 367 1045 317 1045 q 574 981 486 1045 q 710 793 662 918 q 759 484 759 668 l 759 444 q 718 212 759 315 q 600 47 677 108 q 408 -14 522 -14 q 217 33 295 -14 q 98 161 138 79 q 58 346 58 242 l 58 360 q 95 537 58 459 q 205 660 133 614 q 382 705 277 705 m 410 540 q 327 514 357 540 q 283 444 296 488 q 271 349 271 401 l 271 334 q 283 242 271 283 q 327 175 296 200 q 408 151 357 151 q 491 181 461 151 q 534 262 522 212 q 547 374 547 313 l 547 456 q 526 486 538 471 q 496 513 513 501 q 457 533 479 526 q 410 540 435 540 z "},"%":{"ha":1029,"x_min":63,"x_max":968,"o":"m 63 745 l 63 798 q 87 900 63 854 q 160 974 112 946 q 280 1002 209 1002 q 401 974 353 1002 q 473 900 449 946 q 497 798 497 854 l 497 745 q 473 644 497 690 q 401 570 449 598 q 281 543 353 543 q 161 570 210 543 q 88 644 113 598 q 63 745 63 690 m 201 798 l 201 745 q 210 703 201 723 q 236 671 218 684 q 281 659 254 659 q 325 671 308 659 q 350 703 342 684 q 359 745 359 723 l 359 798 q 350 841 359 821 q 324 873 341 861 q 280 885 307 885 q 236 873 254 885 q 210 841 218 861 q 201 798 201 821 m 534 190 l 534 242 q 558 344 534 298 q 632 418 583 390 q 751 446 680 446 q 872 418 824 446 q 944 344 920 390 q 968 242 968 298 l 968 189 q 944 88 968 134 q 872 14 920 42 q 753 -14 825 -14 q 632 14 681 -14 q 558 88 583 42 q 534 190 534 134 m 673 242 l 673 190 q 683 147 673 167 q 711 115 693 127 q 753 103 730 103 q 801 115 785 103 q 824 147 818 127 q 830 190 830 167 l 830 242 q 810 302 830 276 q 751 329 791 329 q 692 302 711 329 q 673 242 673 276 m 804 846 l 322 74 l 221 126 l 703 898 l 804 846 z "},".":{"ha":423,"x_min":87,"x_max":336,"o":"m 87 119 q 123 34 87 68 q 212 0 159 0 q 300 34 263 0 q 336 119 336 68 q 300 205 336 171 q 212 239 263 239 q 123 205 160 239 q 87 119 87 171 z "},"·":{"ha":433,"x_min":95,"x_max":332,"o":"m 95 469 q 127 547 95 515 q 214 578 160 578 q 299 547 267 578 q 332 469 332 515 q 299 392 332 423 q 214 361 267 361 q 127 392 160 361 q 95 469 95 423 z "},"‰":{"ha":1336,"x_min":65,"x_max":1294,"o":"m 65 745 l 65 797 q 90 899 65 853 q 160 973 114 945 q 269 1001 205 1001 q 386 973 338 1001 q 460 899 435 945 q 486 797 486 853 l 486 745 q 460 644 486 690 q 387 570 435 598 q 270 543 338 543 q 160 570 206 543 q 90 644 115 598 q 65 745 65 690 m 191 797 l 191 745 q 199 703 191 723 q 225 671 208 684 q 270 659 243 659 q 314 671 296 659 q 339 703 331 684 q 348 745 348 723 l 348 797 q 339 840 348 821 q 313 872 330 860 q 269 884 296 884 q 225 872 242 884 q 199 840 208 860 q 191 797 191 821 m 551 190 l 551 242 q 577 344 551 298 q 652 418 603 390 q 768 446 701 446 q 876 418 832 446 q 942 344 920 390 q 965 242 965 298 l 965 189 q 942 88 965 134 q 876 14 920 42 q 769 -14 832 -14 q 652 14 701 -14 q 577 88 603 42 q 551 190 551 134 m 690 242 l 690 190 q 700 147 690 167 q 728 115 709 127 q 769 103 746 103 q 818 115 801 103 q 840 147 834 127 q 846 190 846 167 l 846 242 q 827 302 846 276 q 768 329 807 329 q 709 302 728 329 q 690 242 690 276 m 880 189 l 880 242 q 903 344 880 298 q 970 418 926 390 q 1076 446 1014 446 q 1193 418 1145 446 q 1268 344 1242 390 q 1294 242 1294 298 l 1294 190 q 1268 88 1294 134 q 1194 14 1242 42 q 1078 -14 1145 -14 q 970 14 1015 -14 q 903 88 926 42 q 880 189 880 134 m 998 242 l 998 190 q 1008 147 998 167 q 1037 115 1019 127 q 1078 103 1055 103 q 1127 115 1110 103 q 1149 147 1143 127 q 1156 190 1156 167 l 1156 242 q 1136 302 1156 276 q 1076 329 1116 329 q 1017 302 1036 329 q 998 242 998 276 m 809 846 l 327 74 l 226 126 l 708 898 l 809 846 z "},"₧":{"ha":1211,"x_min":92,"x_max":1139,"o":"m 372 346 l 237 346 l 237 524 l 372 524 q 457 545 425 524 q 504 600 490 566 q 519 671 519 634 q 504 738 519 707 q 457 789 490 769 q 372 808 425 808 l 317 808 l 317 0 l 92 0 l 92 987 l 372 987 q 576 946 494 987 q 702 834 659 905 q 745 673 745 763 q 702 505 745 578 q 576 388 659 431 q 372 346 494 346 m 1131 734 l 1131 585 l 695 585 l 695 734 l 1131 734 m 795 916 l 1007 916 l 1007 230 q 1015 183 1007 199 q 1039 160 1022 167 q 1082 154 1055 154 q 1114 155 1101 154 q 1139 159 1128 157 l 1139 5 q 1082 -8 1112 -3 q 1016 -14 1052 -14 q 897 9 947 -14 q 821 80 848 31 q 795 206 795 128 l 795 916 z "},"+":{"ha":768,"x_min":78,"x_max":690,"o":"m 464 273 l 690 273 l 690 433 l 464 433 l 464 666 l 304 666 l 304 433 l 78 433 l 78 273 l 304 273 l 304 20 l 464 20 l 464 273 z "},"±":{"ha":747,"x_min":58,"x_max":680,"o":"m 680 648 l 680 477 l 58 477 l 58 648 l 680 648 m 463 874 l 463 233 l 277 233 l 277 874 l 463 874 m 664 168 l 664 1 l 73 1 l 73 168 l 664 168 z "},"∏":{"ha":957,"x_min":111,"x_max":854,"o":"m 854 987 l 854 -177 l 640 -177 l 640 827 l 324 827 l 324 -177 l 111 -177 l 111 987 l 854 987 z "},"q":{"ha":782,"x_min":41,"x_max":711,"o":"m 498 -282 l 498 582 l 526 734 l 711 734 l 711 -282 l 498 -282 m 41 360 l 41 374 q 74 570 41 486 q 170 701 106 654 q 327 747 234 747 q 472 699 416 747 q 559 567 528 650 q 606 376 591 483 l 606 351 q 560 168 592 251 q 472 36 528 85 q 326 -14 415 -14 q 170 35 233 -14 q 74 169 106 84 q 41 360 41 254 m 252 374 l 252 360 q 264 255 252 302 q 304 179 276 208 q 379 151 332 151 q 461 174 431 151 q 506 236 492 196 q 520 328 519 276 l 520 399 q 512 477 519 443 q 488 534 504 511 q 445 570 471 558 q 380 583 419 583 q 306 555 334 583 q 265 481 277 528 q 252 374 252 434 z "},"?":{"ha":700,"x_min":26,"x_max":651,"o":"m 418 307 l 235 307 q 244 413 235 368 q 275 494 253 458 q 333 564 296 530 q 389 616 365 591 q 425 667 412 641 q 438 725 438 694 q 414 808 438 781 q 341 836 389 836 q 271 808 302 836 q 239 721 240 781 l 26 721 q 70 880 28 818 q 183 971 112 942 q 341 1001 254 1001 q 569 932 486 1001 q 651 734 651 864 q 629 631 651 675 q 569 548 606 587 q 486 469 532 510 q 433 397 448 434 q 418 307 419 360 m 210 100 q 243 176 210 145 q 329 208 276 208 q 414 176 382 208 q 447 100 447 145 q 414 23 447 54 q 329 -8 382 -8 q 243 23 276 -8 q 210 100 210 54 z "},"¿":{"ha":700,"x_min":49,"x_max":674,"o":"m 281 433 l 465 433 q 457 328 465 373 q 429 248 449 283 q 370 179 408 213 q 314 125 339 151 q 276 71 290 99 q 262 6 262 43 q 287 -71 262 -46 q 355 -96 313 -96 q 430 -68 399 -96 q 462 20 460 -41 l 674 20 q 631 -140 673 -78 q 518 -232 589 -202 q 359 -261 447 -261 q 132 -193 214 -261 q 49 5 49 -124 q 73 111 49 65 q 136 197 97 157 q 220 277 175 237 q 259 323 245 300 q 276 372 272 345 q 281 433 281 398 m 495 640 q 463 564 495 595 q 377 532 430 532 q 291 564 324 532 q 258 640 258 595 q 291 717 258 686 q 377 748 324 748 q 463 717 430 748 q 495 640 495 686 z "},"\"":{"ha":441,"x_min":30,"x_max":405,"o":"m 176 1042 l 176 948 l 149 665 l 30 665 l 30 939 l 30 1042 l 176 1042 m 405 1042 l 405 948 l 378 665 l 260 665 l 260 945 l 260 1042 l 405 1042 z "},"„":{"ha":576,"x_min":51,"x_max":509,"o":"m 271 180 l 270 44 q 254 -53 270 -3 q 212 -146 239 -102 q 154 -220 186 -191 l 51 -168 q 89 -75 75 -125 q 104 44 104 -24 l 104 180 l 271 180 m 509 180 l 509 44 q 491 -53 509 -3 q 445 -146 473 -102 q 385 -220 417 -191 l 283 -168 q 324 -75 307 -125 q 342 44 342 -24 l 342 180 l 509 180 z "},"“":{"ha":577,"x_min":77,"x_max":530,"o":"m 77 710 l 77 815 q 94 907 77 860 q 140 996 111 954 q 201 1067 168 1038 l 296 1013 q 255 926 273 973 q 237 815 237 880 l 237 710 l 77 710 m 311 710 l 311 815 q 328 907 311 860 q 374 996 345 954 q 435 1067 402 1038 l 530 1013 q 489 926 507 973 q 471 815 471 880 l 471 710 l 311 710 z "},"”":{"ha":581,"x_min":52,"x_max":511,"o":"m 271 1042 l 271 935 q 254 843 271 890 q 209 754 237 795 q 148 683 181 712 l 52 736 q 94 824 76 777 q 111 935 111 871 l 111 1042 l 271 1042 m 511 1042 l 511 935 q 493 843 511 890 q 448 754 476 795 q 387 683 420 712 l 292 736 q 333 824 315 777 q 351 935 351 871 l 351 1042 l 511 1042 z "},"‘":{"ha":336,"x_min":72,"x_max":291,"o":"m 72 710 l 72 815 q 89 907 72 860 q 135 996 106 954 q 196 1067 163 1038 l 291 1013 q 250 926 268 973 q 233 815 233 880 l 233 710 l 72 710 z "},"‛":{"ha":292,"x_min":48,"x_max":267,"o":"m 48 1042 l 208 1042 l 208 935 q 226 824 208 871 q 267 736 244 777 l 171 683 q 111 754 139 712 q 65 843 83 795 q 48 935 48 890 l 48 1042 z "},"’":{"ha":328,"x_min":43,"x_max":262,"o":"m 262 1042 l 262 935 q 244 843 262 890 q 199 754 227 795 q 138 683 172 712 l 43 736 q 84 824 66 777 q 102 935 102 871 l 102 1042 l 262 1042 z "},"‚":{"ha":361,"x_min":51,"x_max":271,"o":"m 271 161 l 270 44 q 253 -48 270 -1 q 208 -137 235 -95 q 147 -208 180 -178 l 51 -154 q 89 -67 75 -114 q 104 44 104 -20 l 104 161 l 271 161 z "},"'":{"ha":219,"x_min":37,"x_max":189,"o":"m 189 1042 l 189 937 l 168 663 l 37 663 l 37 928 l 37 1042 l 189 1042 z "},"r":{"ha":517,"x_min":71,"x_max":502,"o":"m 283 563 l 283 0 l 71 0 l 71 734 l 270 734 l 283 563 m 502 739 l 498 542 q 463 546 485 544 q 426 547 441 547 q 337 530 371 547 q 286 480 302 513 q 269 397 269 446 l 229 416 q 254 588 229 513 q 326 705 279 663 q 440 747 374 747 q 473 745 456 747 q 502 739 490 743 z "},"ŕ":{"ha":517,"x_min":71,"x_max":541,"o":"m 283 563 l 283 0 l 71 0 l 71 734 l 270 734 l 283 563 m 502 739 l 498 542 q 463 546 485 544 q 426 547 441 547 q 337 530 371 547 q 286 480 302 513 q 269 397 269 446 l 229 416 q 254 588 229 513 q 326 705 279 663 q 440 747 374 747 q 473 745 456 747 q 502 739 490 743 m 180 831 l 315 1042 l 541 1042 l 353 831 l 180 831 z "},"√":{"ha":766,"x_min":37,"x_max":753,"o":"m 383 147 l 593 987 l 753 987 l 494 0 l 357 0 l 383 147 m 309 511 l 414 137 l 429 0 l 309 0 l 135 511 l 309 511 m 37 345 l 37 511 l 295 511 l 295 345 l 37 345 z "},"ř":{"ha":517,"x_min":-2,"x_max":560,"o":"m 283 563 l 283 0 l 71 0 l 71 734 l 270 734 l 283 563 m 502 739 l 498 542 q 463 546 485 544 q 426 547 441 547 q 337 530 371 547 q 286 480 302 513 q 269 397 269 446 l 229 416 q 254 588 229 513 q 326 705 279 663 q 440 747 374 747 q 473 745 456 747 q 502 739 490 743 m 179 1042 l 279 947 l 380 1042 l 560 1042 l 560 1035 l 348 844 l 212 844 l -2 1036 l -2 1042 l 179 1042 z "},"ŗ":{"ha":517,"x_min":54,"x_max":502,"o":"m 283 563 l 283 0 l 71 0 l 71 734 l 270 734 l 283 563 m 502 739 l 498 542 q 463 546 485 544 q 426 547 441 547 q 337 530 371 547 q 286 480 302 513 q 269 397 269 446 l 229 416 q 254 588 229 513 q 326 705 279 663 q 440 747 374 747 q 473 745 456 747 q 502 739 490 743 m 253 -54 l 253 -102 q 224 -234 253 -168 q 157 -343 196 -300 l 55 -290 q 92 -213 77 -253 q 106 -113 106 -172 l 106 -54 l 253 -54 z "},"®":{"ha":1091,"x_min":59,"x_max":1022,"o":"m 557 443 l 411 443 l 410 533 l 532 533 q 615 553 579 534 q 650 612 650 573 q 624 682 650 662 q 531 701 597 701 l 442 701 l 442 214 l 341 214 l 341 791 l 531 791 q 691 745 632 791 q 751 612 751 700 q 713 522 751 557 q 603 467 675 486 q 598 462 601 467 q 594 458 596 458 q 579 447 583 450 q 573 444 576 444 q 557 443 570 443 m 550 443 l 564 518 q 710 470 671 518 q 749 349 749 422 l 749 311 q 751 263 749 286 q 760 225 753 241 l 760 214 l 656 214 q 649 264 650 232 q 648 312 648 297 l 648 349 q 625 420 648 397 q 550 443 603 443 m 141 494 q 172 328 141 405 q 258 193 203 250 q 385 103 313 135 q 541 71 458 71 q 695 103 623 71 q 823 193 768 135 q 908 328 878 250 q 939 494 939 405 q 908 661 939 584 q 822 795 878 738 q 695 885 767 853 q 541 917 623 917 q 385 885 458 917 q 258 795 313 853 q 172 661 203 738 q 141 494 141 584 m 59 494 q 96 694 59 602 q 200 856 134 787 q 354 963 267 924 q 541 1001 441 1001 q 727 963 640 1001 q 881 856 814 924 q 984 694 947 787 q 1022 494 1022 602 q 984 294 1022 387 q 881 133 947 202 q 727 25 814 64 q 541 -14 640 -14 q 354 25 441 -14 q 200 133 267 64 q 96 294 134 202 q 59 494 59 387 z "},"˚":{"ha":459,"x_min":81,"x_max":383,"o":"m 81 890 q 124 987 81 947 q 232 1028 167 1028 q 340 987 298 1028 q 383 890 383 947 q 340 794 383 834 q 232 755 298 755 q 124 794 167 755 q 81 890 81 834 m 161 890 q 180 840 161 861 q 232 819 199 819 q 284 840 265 819 q 304 890 304 861 q 284 942 304 920 q 232 963 265 963 q 180 942 199 963 q 161 890 161 920 z "},"₨":{"ha":1516,"x_min":81,"x_max":1470,"o":"m 81 987 l 460 987 q 657 954 574 987 q 785 853 740 920 q 829 689 829 787 q 803 551 829 608 q 729 456 777 494 q 617 396 681 419 l 545 357 l 222 357 l 221 528 l 461 528 q 543 546 511 528 q 592 596 576 564 q 609 671 609 628 q 572 777 609 739 q 460 816 534 816 l 302 816 l 302 0 l 81 0 l 81 987 m 628 0 l 406 439 l 640 439 l 865 10 l 865 0 l 628 0 m 1265 204 q 1252 240 1265 224 q 1207 269 1240 256 q 1117 294 1175 281 q 984 338 1043 310 q 891 410 926 366 q 857 518 857 454 q 892 632 857 580 q 994 715 928 684 q 1155 747 1061 747 q 1322 717 1252 747 q 1431 633 1393 687 q 1469 510 1469 579 l 1257 510 q 1233 578 1257 553 q 1154 604 1208 604 q 1104 594 1126 604 q 1071 568 1083 585 q 1059 528 1059 551 q 1072 492 1059 507 q 1114 464 1085 476 q 1190 443 1142 452 q 1330 403 1266 429 q 1431 332 1393 377 q 1470 212 1470 286 q 1431 96 1470 147 q 1322 16 1392 45 q 1155 -14 1251 -14 q 979 24 1051 -14 q 871 118 907 61 q 835 234 835 174 l 1034 234 q 1052 174 1035 197 q 1097 141 1069 151 q 1160 130 1125 130 q 1217 140 1194 130 q 1253 166 1240 149 q 1265 204 1265 182 z "},"s":{"ha":713,"x_min":31,"x_max":666,"o":"m 461 204 q 449 240 461 224 q 404 269 436 256 q 313 294 372 281 q 181 338 239 310 q 88 410 122 366 q 54 518 54 454 q 89 632 54 580 q 191 715 124 684 q 351 747 257 747 q 519 717 448 747 q 627 633 589 687 q 665 510 665 579 l 454 510 q 429 578 454 553 q 351 604 405 604 q 301 594 322 604 q 268 568 279 585 q 256 528 256 551 q 269 492 256 507 q 310 464 281 476 q 386 443 338 452 q 526 403 463 429 q 628 332 589 377 q 666 212 666 286 q 627 96 666 147 q 518 16 589 45 q 351 -14 448 -14 q 176 24 248 -14 q 67 118 104 61 q 31 234 31 174 l 230 234 q 249 174 231 197 q 294 141 266 151 q 356 130 321 130 q 414 140 391 130 q 449 166 437 149 q 461 204 461 182 z "},"ś":{"ha":713,"x_min":31,"x_max":666,"o":"m 461 204 q 449 240 461 224 q 404 269 436 256 q 313 294 372 281 q 181 338 239 310 q 88 410 122 366 q 54 518 54 454 q 89 632 54 580 q 191 715 124 684 q 351 747 257 747 q 519 717 448 747 q 627 633 589 687 q 665 510 665 579 l 454 510 q 429 578 454 553 q 351 604 405 604 q 301 594 322 604 q 268 568 279 585 q 256 528 256 551 q 269 492 256 507 q 310 464 281 476 q 386 443 338 452 q 526 403 463 429 q 628 332 589 377 q 666 212 666 286 q 627 96 666 147 q 518 16 589 45 q 351 -14 448 -14 q 176 24 248 -14 q 67 118 104 61 q 31 234 31 174 l 230 234 q 249 174 231 197 q 294 141 266 151 q 356 130 321 130 q 414 140 391 130 q 449 166 437 149 q 461 204 461 182 m 252 831 l 386 1042 l 612 1042 l 425 831 l 252 831 z "},"š":{"ha":713,"x_min":31,"x_max":666,"o":"m 461 204 q 449 240 461 224 q 404 269 436 256 q 313 294 372 281 q 181 338 239 310 q 88 410 122 366 q 54 518 54 454 q 89 632 54 580 q 191 715 124 684 q 351 747 257 747 q 519 717 448 747 q 627 633 589 687 q 665 510 665 579 l 454 510 q 429 578 454 553 q 351 604 405 604 q 301 594 322 604 q 268 568 279 585 q 256 528 256 551 q 269 492 256 507 q 310 464 281 476 q 386 443 338 452 q 526 403 463 429 q 628 332 589 377 q 666 212 666 286 q 627 96 666 147 q 518 16 589 45 q 351 -14 448 -14 q 176 24 248 -14 q 67 118 104 61 q 31 234 31 174 l 230 234 q 249 174 231 197 q 294 141 266 151 q 356 130 321 130 q 414 140 391 130 q 449 166 437 149 q 461 204 461 182 m 250 1042 l 350 947 l 450 1042 l 631 1042 l 631 1035 l 418 844 l 282 844 l 68 1036 l 68 1042 l 250 1042 z "},"ş":{"ha":713,"x_min":31,"x_max":666,"o":"m 461 204 q 449 240 461 224 q 404 269 436 256 q 313 294 372 281 q 181 338 239 310 q 88 410 122 366 q 54 518 54 454 q 89 632 54 580 q 191 715 124 684 q 351 747 257 747 q 519 717 448 747 q 627 633 589 687 q 665 510 665 579 l 454 510 q 429 578 454 553 q 351 604 405 604 q 301 594 322 604 q 268 568 279 585 q 256 528 256 551 q 269 492 256 507 q 310 464 281 476 q 386 443 338 452 q 526 403 463 429 q 628 332 589 377 q 666 212 666 286 q 627 96 666 147 q 518 16 589 45 q 351 -14 448 -14 q 176 24 248 -14 q 67 118 104 61 q 31 234 31 174 l 230 234 q 249 174 231 197 q 294 141 266 151 q 356 130 321 130 q 414 140 391 130 q 449 166 437 149 q 461 204 461 182 m 273 -1 l 433 -1 l 425 -41 q 496 -74 464 -48 q 528 -159 528 -100 q 465 -278 528 -233 q 281 -323 403 -323 l 277 -205 q 312 -200 297 -205 q 337 -182 328 -194 q 346 -151 346 -170 q 324 -113 346 -123 q 252 -99 302 -102 l 273 -1 z "},"ə":{"ha":734,"x_min":48,"x_max":699,"o":"m 347 748 q 535 701 456 748 q 656 572 614 653 q 699 391 699 491 l 699 364 q 660 171 699 257 q 547 36 621 85 q 364 -13 472 -14 q 193 28 264 -13 q 85 143 123 69 q 48 319 48 218 l 48 433 l 614 433 l 614 296 l 256 296 l 256 279 q 268 212 256 240 q 302 167 279 183 q 364 151 326 151 q 437 180 410 151 q 475 258 464 210 q 487 364 487 307 l 487 391 q 469 486 487 442 q 414 557 451 530 q 321 584 378 584 q 205 570 248 584 q 118 534 162 555 l 64 665 q 180 722 106 696 q 347 748 253 748 z "},"ŝ":{"ha":713,"x_min":31,"x_max":666,"o":"m 461 204 q 449 240 461 224 q 404 269 436 256 q 313 294 372 281 q 181 338 239 310 q 88 410 122 366 q 54 518 54 454 q 89 632 54 580 q 191 715 124 684 q 351 747 257 747 q 519 717 448 747 q 627 633 589 687 q 665 510 665 579 l 454 510 q 429 578 454 553 q 351 604 405 604 q 301 594 322 604 q 268 568 279 585 q 256 528 256 551 q 269 492 256 507 q 310 464 281 476 q 386 443 338 452 q 526 403 463 429 q 628 332 589 377 q 666 212 666 286 q 627 96 666 147 q 518 16 589 45 q 351 -14 448 -14 q 176 24 248 -14 q 67 118 104 61 q 31 234 31 174 l 230 234 q 249 174 231 197 q 294 141 266 151 q 356 130 321 130 q 414 140 391 130 q 449 166 437 149 q 461 204 461 182 m 412 1042 l 625 852 l 625 844 l 458 844 l 351 939 l 244 844 l 80 844 l 80 854 l 290 1042 l 412 1042 z "},"″":{"ha":441,"x_min":30,"x_max":405,"o":"m 176 1042 l 176 948 l 149 665 l 30 665 l 30 939 l 30 1042 l 176 1042 m 405 1042 l 405 948 l 378 665 l 260 665 l 260 945 l 260 1042 l 405 1042 z "},"§":{"ha":878,"x_min":64,"x_max":806,"o":"m 456 98 l 456 196 q 559 228 523 196 q 596 310 596 260 q 579 362 596 340 q 521 405 563 385 q 406 446 479 425 q 231 510 304 475 q 118 600 157 545 q 79 741 79 654 q 123 879 79 820 q 247 969 167 937 q 435 1001 328 1001 q 696 927 602 1001 q 791 712 791 852 l 580 712 q 564 775 580 747 q 515 820 547 804 q 435 837 484 837 q 325 809 359 837 q 291 743 291 782 q 306 691 291 711 q 361 654 321 671 q 477 617 401 637 q 655 555 582 591 q 767 467 728 520 q 806 332 806 413 q 710 157 806 216 q 456 98 615 98 m 403 595 l 403 495 q 306 463 336 495 q 276 384 276 431 q 291 327 276 349 q 346 287 306 305 q 463 245 386 269 q 641 183 568 218 q 752 93 714 148 q 791 -49 791 39 q 694 -237 791 -172 q 436 -302 597 -302 q 300 -289 366 -302 q 180 -243 233 -275 q 96 -157 127 -212 q 64 -21 64 -102 l 276 -21 q 290 -80 276 -57 q 327 -115 304 -103 q 378 -133 350 -127 q 436 -138 407 -138 q 543 -114 506 -138 q 579 -50 579 -91 q 563 -1 579 -22 q 505 37 546 19 q 391 76 465 55 q 216 138 289 103 q 103 226 143 173 q 64 361 64 279 q 157 534 64 473 q 403 595 250 595 z "},";":{"ha":383,"x_min":43,"x_max":327,"o":"m 77 670 q 114 585 77 618 q 202 551 150 551 q 290 585 254 551 q 327 670 327 619 q 290 755 327 722 q 202 789 254 789 q 114 755 151 789 q 77 670 77 722 m 289 169 l 288 31 q 249 -126 288 -48 q 152 -255 210 -205 l 43 -201 q 76 -139 59 -170 q 103 -69 92 -107 q 115 20 115 -31 l 115 169 l 289 169 z "},"⅞":{"ha":1217,"x_min":64,"x_max":1085,"o":"m 500 979 l 500 899 l 277 444 l 125 444 l 347 865 l 64 865 l 64 979 l 500 979 m 829 846 l 347 74 l 245 126 l 728 898 l 829 846 m 1085 149 q 1026 31 1085 70 q 874 -7 966 -7 q 722 31 783 -7 q 661 149 661 70 q 722 260 661 221 q 873 300 783 300 q 1025 260 964 300 q 1085 149 1085 221 m 941 163 q 922 203 941 190 q 873 216 903 216 q 825 203 844 216 q 806 163 806 190 q 825 121 806 136 q 874 106 844 106 q 922 121 904 106 q 941 163 941 136 m 1073 391 q 1017 287 1073 325 q 874 250 962 250 q 730 287 787 250 q 673 391 673 325 q 730 505 673 466 q 873 543 787 543 q 1017 505 961 543 q 1073 391 1073 466 m 928 381 q 914 417 928 404 q 873 429 901 429 q 832 417 846 429 q 819 381 819 404 q 833 344 819 358 q 874 330 847 330 q 915 344 901 330 q 928 381 928 358 z "},"/":{"ha":501,"x_min":-14,"x_max":488,"o":"m 139 -85 l 488 987 l 334 987 l -14 -85 l 139 -85 z "}," ":{"ha":345,"x_min":0,"x_max":0,"o":""},"£":{"ha":830,"x_min":68,"x_max":792,"o":"m 792 0 l 71 0 l 71 171 l 791 171 l 792 0 m 606 387 l 68 387 l 68 553 l 606 553 l 606 387 m 389 705 l 407 299 q 376 186 407 232 q 269 109 346 140 l 138 171 q 169 194 159 176 q 180 236 178 211 q 182 286 182 260 l 170 705 q 208 864 170 798 q 315 965 246 930 q 477 1000 385 1000 q 710 922 629 1000 q 791 715 791 843 l 583 715 q 569 783 583 758 q 532 819 555 808 q 480 829 509 829 q 414 798 439 829 q 389 705 389 767 z "},"∑":{"ha":886,"x_min":37,"x_max":846,"o":"m 846 -18 l 846 -183 l 116 -183 l 116 -18 l 846 -18 m 831 987 l 831 823 l 141 823 l 141 987 l 831 987 m 637 419 l 637 395 l 205 -183 l 37 -183 l 37 -81 l 415 408 l 37 886 l 37 987 l 205 987 l 637 419 z "},"t":{"ha":474,"x_min":8,"x_max":453,"o":"m 444 734 l 444 585 l 8 585 l 8 734 l 444 734 m 108 916 l 320 916 l 320 230 q 328 183 320 199 q 352 160 335 167 q 395 154 369 154 q 428 155 414 154 q 453 159 441 157 l 453 5 q 395 -8 426 -3 q 329 -14 365 -14 q 211 9 260 -14 q 134 80 161 31 q 108 206 108 128 l 108 916 z "},"ŧ":{"ha":474,"x_min":-22,"x_max":464,"o":"m 444 734 l 444 585 l 8 585 l 8 734 l 444 734 m 108 916 l 320 916 l 320 230 q 328 183 320 199 q 352 160 335 167 q 395 154 369 154 q 428 155 414 154 q 453 159 441 157 l 453 5 q 395 -8 426 -3 q 329 -14 365 -14 q 211 9 260 -14 q 134 80 161 31 q 108 206 108 128 l 108 916 m 464 479 l 464 354 l -22 354 l -22 479 l 464 479 z "},"ť":{"ha":501,"x_min":8,"x_max":590,"o":"m 444 734 l 444 585 l 8 585 l 8 734 l 444 734 m 108 916 l 320 916 l 320 230 q 328 183 320 199 q 352 160 335 167 q 395 154 369 154 q 428 155 414 154 q 453 159 441 157 l 453 5 q 395 -8 426 -3 q 329 -14 365 -14 q 211 9 260 -14 q 134 80 161 31 q 108 206 108 128 l 108 916 m 590 1131 l 590 1083 q 562 951 590 1017 q 494 842 533 884 l 392 895 q 429 972 414 932 q 443 1072 443 1013 l 443 1131 l 590 1131 z "},"þ":{"ha":783,"x_min":71,"x_max":741,"o":"m 283 1042 l 283 -282 l 71 -282 l 71 1042 l 283 1042 m 741 375 l 741 361 q 708 170 741 254 q 611 36 675 85 q 456 -14 548 -14 q 310 36 366 -14 q 221 167 253 85 q 176 349 190 250 l 176 377 q 221 567 190 484 q 309 699 253 650 q 454 747 366 747 q 611 701 547 747 q 708 571 675 654 q 741 375 741 487 m 528 361 l 528 375 q 516 481 528 435 q 475 555 503 528 q 401 583 448 583 q 336 570 363 583 q 294 535 310 558 q 270 477 277 511 q 262 400 262 444 l 262 326 q 276 235 262 275 q 320 173 290 195 q 402 151 351 151 q 477 179 450 151 q 516 255 505 208 q 528 361 528 303 z "},"⅜":{"ha":1199,"x_min":45,"x_max":1133,"o":"m 201 768 l 262 768 q 316 784 298 768 q 334 826 334 800 q 319 860 334 844 q 265 877 304 877 q 219 867 239 877 q 200 838 200 857 l 56 838 q 84 922 56 888 q 160 974 113 956 q 260 991 207 991 q 418 951 357 991 q 479 837 479 912 q 452 766 479 795 q 382 721 426 736 q 286 706 338 706 l 201 706 l 201 768 m 201 674 l 201 733 l 286 733 q 389 721 343 733 q 462 680 435 709 q 489 598 489 650 q 423 481 489 523 q 260 440 357 440 q 161 456 210 440 q 78 510 111 473 q 45 609 45 547 l 191 609 q 212 571 191 588 q 271 554 233 554 q 327 572 310 554 q 344 612 344 589 q 322 660 344 646 q 262 674 300 674 l 201 674 m 889 846 l 407 74 l 306 126 l 788 898 l 889 846 m 1133 149 q 1074 31 1133 70 q 922 -7 1015 -7 q 770 31 831 -7 q 709 149 709 70 q 770 260 709 221 q 921 300 831 300 q 1073 260 1013 300 q 1133 149 1133 221 m 989 163 q 970 203 989 190 q 921 216 951 216 q 873 203 892 216 q 854 163 854 190 q 873 121 854 136 q 922 106 892 106 q 970 121 952 106 q 989 163 989 136 m 1121 391 q 1065 287 1121 325 q 922 250 1010 250 q 778 287 835 250 q 722 391 722 325 q 778 505 722 466 q 921 543 835 543 q 1065 505 1009 543 q 1121 391 1121 466 m 976 381 q 962 417 976 404 q 921 429 949 429 q 881 417 895 429 q 867 381 867 404 q 881 344 867 358 q 922 330 895 330 q 963 344 949 330 q 976 381 976 358 z "},"¾":{"ha":1135,"x_min":61,"x_max":1057,"o":"m 911 851 l 429 79 l 328 132 l 810 903 l 911 851 m 1057 223 l 1057 108 l 624 108 l 614 201 l 854 535 l 968 535 l 844 347 l 751 223 l 1057 223 m 999 535 l 999 0 l 854 0 l 854 535 l 999 535 m 217 772 l 278 772 q 333 788 315 772 q 351 831 351 804 q 335 865 351 848 q 281 882 320 882 q 236 871 255 882 q 216 842 216 861 l 72 842 q 101 927 72 893 q 176 978 130 961 q 277 996 223 996 q 434 956 374 996 q 495 842 495 917 q 469 770 495 800 q 398 726 442 741 q 302 711 355 711 l 217 711 l 217 772 m 217 679 l 217 738 l 302 738 q 405 726 359 738 q 478 685 451 714 q 505 603 505 655 q 439 486 505 528 q 277 445 374 445 q 177 461 227 445 q 94 515 127 477 q 61 614 61 552 l 207 614 q 228 576 207 593 q 287 559 250 559 q 343 576 326 559 q 360 617 360 594 q 338 665 360 651 q 278 679 316 679 l 217 679 z "},"³":{"ha":519,"x_min":31,"x_max":475,"o":"m 186 772 l 248 772 q 302 788 284 772 q 320 831 320 804 q 305 865 320 848 q 251 882 290 882 q 205 871 224 882 q 186 842 186 861 l 41 842 q 70 927 41 893 q 146 978 99 961 q 246 996 193 996 q 404 956 343 996 q 465 842 465 917 q 438 770 465 800 q 368 726 412 741 q 271 711 324 711 l 186 711 l 186 772 m 186 679 l 186 738 l 271 738 q 375 726 329 738 q 448 685 420 714 q 475 603 475 655 q 409 486 475 528 q 246 445 343 445 q 146 461 196 445 q 64 515 97 477 q 31 614 31 552 l 176 614 q 198 576 176 593 q 256 559 219 559 q 313 576 296 559 q 330 617 330 594 q 308 665 330 651 q 248 679 286 679 l 186 679 z "},"˜":{"ha":667,"x_min":77,"x_max":595,"o":"m 475 1043 l 595 1036 q 575 945 595 986 q 520 879 555 903 q 440 854 485 854 q 385 862 408 854 q 340 883 361 871 q 299 903 320 895 q 252 912 278 912 q 214 896 230 912 q 198 848 198 880 l 77 855 q 97 945 77 903 q 152 1012 117 987 q 232 1037 186 1037 q 282 1028 259 1037 q 328 1008 306 1020 q 372 988 350 997 q 420 979 395 979 q 459 996 442 979 q 475 1043 475 1012 z "},"̃":{"ha":0,"x_min":-635,"x_max":-117,"o":"m -237 1043 l -117 1036 q -137 945 -117 986 q -192 879 -157 903 q -272 854 -227 854 q -328 862 -304 854 q -372 883 -351 871 q -413 903 -392 895 q -460 912 -434 912 q -498 896 -482 912 q -514 848 -514 880 l -635 855 q -615 945 -635 903 q -561 1012 -595 987 q -480 1037 -526 1037 q -430 1028 -453 1037 q -384 1008 -406 1020 q -340 988 -362 997 q -292 979 -317 979 q -253 996 -270 979 q -237 1043 -237 1012 z "},"™":{"ha":879,"x_min":82,"x_max":789,"o":"m 696 620 l 696 854 l 626 620 l 572 620 l 503 857 l 503 620 l 409 620 l 409 987 l 524 987 l 600 741 l 682 987 l 789 987 l 789 620 l 696 620 m 362 987 l 362 913 l 278 913 l 278 622 l 172 622 l 172 913 l 82 913 l 82 987 l 362 987 z "},"²":{"ha":519,"x_min":37,"x_max":471,"o":"m 471 566 l 471 452 l 49 452 l 49 548 l 243 722 q 295 782 279 753 q 312 826 312 811 q 297 866 312 851 q 251 882 282 882 q 199 859 216 882 q 182 808 182 837 l 37 808 q 62 902 37 859 q 134 970 87 945 q 243 996 180 996 q 401 951 346 996 q 457 826 457 907 q 420 723 457 766 q 305 621 384 680 l 241 566 l 471 566 z "},"u":{"ha":781,"x_min":66,"x_max":714,"o":"m 501 177 l 501 734 l 714 734 l 714 0 l 515 0 l 501 177 m 524 327 l 582 328 q 551 153 582 230 q 460 31 521 75 q 311 -14 400 -14 q 134 50 202 -14 q 66 259 66 114 l 66 734 l 277 734 l 277 258 q 289 197 277 220 q 323 162 301 173 q 376 151 346 151 q 465 175 433 151 q 510 238 497 198 q 524 327 524 277 z "},"ú":{"ha":781,"x_min":66,"x_max":714,"o":"m 501 177 l 501 734 l 714 734 l 714 0 l 515 0 l 501 177 m 524 327 l 582 328 q 551 153 582 230 q 460 31 521 75 q 311 -14 400 -14 q 134 50 202 -14 q 66 259 66 114 l 66 734 l 277 734 l 277 258 q 289 197 277 220 q 323 162 301 173 q 376 151 346 151 q 465 175 433 151 q 510 238 497 198 q 524 327 524 277 m 291 831 l 425 1042 l 652 1042 l 464 831 l 291 831 z "},"ŭ":{"ha":781,"x_min":66,"x_max":714,"o":"m 501 177 l 501 734 l 714 734 l 714 0 l 515 0 l 501 177 m 524 327 l 582 328 q 551 153 582 230 q 460 31 521 75 q 311 -14 400 -14 q 134 50 202 -14 q 66 259 66 114 l 66 734 l 277 734 l 277 258 q 289 197 277 220 q 323 162 301 173 q 376 151 346 151 q 465 175 433 151 q 510 238 497 198 q 524 327 524 277 m 486 1038 l 633 1038 q 568 891 633 948 q 390 835 502 835 q 212 891 278 835 q 146 1038 146 948 l 294 1038 q 315 977 294 1004 q 390 950 337 950 q 464 977 443 950 q 486 1038 486 1004 z "},"û":{"ha":781,"x_min":66,"x_max":714,"o":"m 501 177 l 501 734 l 714 734 l 714 0 l 515 0 l 501 177 m 524 327 l 582 328 q 551 153 582 230 q 460 31 521 75 q 311 -14 400 -14 q 134 50 202 -14 q 66 259 66 114 l 66 734 l 277 734 l 277 258 q 289 197 277 220 q 323 162 301 173 q 376 151 346 151 q 465 175 433 151 q 510 238 497 198 q 524 327 524 277 m 451 1042 l 665 852 l 665 844 l 497 844 l 390 939 l 283 844 l 119 844 l 119 854 l 329 1042 l 451 1042 z "},"ü":{"ha":781,"x_min":66,"x_max":714,"o":"m 501 177 l 501 734 l 714 734 l 714 0 l 515 0 l 501 177 m 524 327 l 582 328 q 551 153 582 230 q 460 31 521 75 q 311 -14 400 -14 q 134 50 202 -14 q 66 259 66 114 l 66 734 l 277 734 l 277 258 q 289 197 277 220 q 323 162 301 173 q 376 151 346 151 q 465 175 433 151 q 510 238 497 198 q 524 327 524 277 m 119 926 q 148 988 119 963 q 217 1014 176 1014 q 287 988 258 1014 q 315 926 315 963 q 287 865 315 890 q 217 840 258 840 q 148 865 176 840 q 119 926 119 890 m 462 926 q 490 988 462 963 q 559 1013 519 1013 q 629 988 601 1013 q 657 926 657 963 q 629 864 657 890 q 559 839 601 839 q 490 864 519 839 q 462 926 462 890 z "},"ù":{"ha":781,"x_min":66,"x_max":714,"o":"m 501 177 l 501 734 l 714 734 l 714 0 l 515 0 l 501 177 m 524 327 l 582 328 q 551 153 582 230 q 460 31 521 75 q 311 -14 400 -14 q 134 50 202 -14 q 66 259 66 114 l 66 734 l 277 734 l 277 258 q 289 197 277 220 q 323 162 301 173 q 376 151 346 151 q 465 175 433 151 q 510 238 497 198 q 524 327 524 277 m 358 1042 l 492 831 l 319 831 l 131 1042 l 358 1042 z "},"ư":{"ha":839,"x_min":66,"x_max":909,"o":"m 789 800 l 909 800 q 884 656 909 713 q 799 569 859 598 q 636 539 739 539 l 637 633 q 737 651 705 633 q 779 706 769 669 q 789 800 789 743 m 501 177 l 501 734 l 714 734 l 714 0 l 515 0 l 501 177 m 524 327 l 582 328 q 551 153 582 230 q 460 31 521 75 q 311 -14 400 -14 q 134 50 202 -14 q 66 259 66 114 l 66 734 l 277 734 l 277 258 q 289 197 277 220 q 323 162 301 173 q 376 151 346 151 q 465 175 433 151 q 510 238 497 198 q 524 327 524 277 z "},"ű":{"ha":781,"x_min":66,"x_max":760,"o":"m 501 177 l 501 734 l 714 734 l 714 0 l 515 0 l 501 177 m 524 327 l 582 328 q 551 153 582 230 q 460 31 521 75 q 311 -14 400 -14 q 134 50 202 -14 q 66 259 66 114 l 66 734 l 277 734 l 277 258 q 289 197 277 220 q 323 162 301 173 q 376 151 346 151 q 465 175 433 151 q 510 238 497 198 q 524 327 524 277 m 425 838 l 578 1041 l 760 1041 l 579 838 l 425 838 m 174 838 l 305 1041 l 486 1041 l 327 838 l 174 838 z "},"ū":{"ha":781,"x_min":66,"x_max":714,"o":"m 501 177 l 501 734 l 714 734 l 714 0 l 515 0 l 501 177 m 524 327 l 582 328 q 551 153 582 230 q 460 31 521 75 q 311 -14 400 -14 q 134 50 202 -14 q 66 259 66 114 l 66 734 l 277 734 l 277 258 q 289 197 277 220 q 323 162 301 173 q 376 151 346 151 q 465 175 433 151 q 510 238 497 198 q 524 327 524 277 m 624 985 l 624 871 l 156 871 l 156 985 l 624 985 z "},"_":{"ha":616,"x_min":0,"x_max":614,"o":"m 614 0 l 614 -159 l 0 -159 l 0 0 l 614 0 z "},"‗":{"ha":614,"x_min":1,"x_max":615,"o":"m 615 -179 l 615 -281 l 1 -281 l 1 -179 l 615 -179 m 615 0 l 615 -102 l 1 -102 l 1 0 l 615 0 z "},"­":{"ha":586,"x_min":78,"x_max":593,"o":"m 593 272 l 593 431 l 78 431 l 78 272 l 593 272 z "},"Ċ":{"ha":910,"x_min":53,"x_max":870,"o":"m 649 331 l 869 331 q 813 152 863 229 q 675 30 764 74 q 466 -14 587 -14 q 244 44 337 -14 q 102 209 151 102 q 53 463 53 316 l 53 524 q 104 778 53 671 q 248 943 155 885 q 465 1002 340 1002 q 678 956 591 1002 q 813 831 765 911 q 870 650 861 752 l 650 650 q 604 782 645 736 q 465 828 563 828 q 360 796 402 828 q 297 697 318 764 q 277 525 277 630 l 277 463 q 295 292 277 359 q 356 193 314 225 q 466 160 398 160 q 564 179 525 160 q 625 235 604 197 q 649 331 646 273 m 361 1160 q 391 1229 361 1202 q 467 1256 420 1256 q 545 1229 515 1256 q 574 1160 574 1202 q 545 1093 574 1120 q 467 1066 515 1066 q 391 1093 420 1066 q 361 1160 361 1120 z "},"ċ":{"ha":723,"x_min":40,"x_max":688,"o":"m 377 151 q 436 164 411 151 q 475 200 461 177 q 489 257 489 224 l 688 257 q 647 116 688 177 q 537 21 606 55 q 381 -14 468 -14 q 192 36 267 -14 q 78 169 116 85 q 40 358 40 253 l 40 376 q 78 565 40 481 q 191 698 115 648 q 380 747 267 747 q 540 713 471 747 q 649 613 610 678 q 688 458 688 549 l 489 458 q 476 521 489 493 q 438 566 464 549 q 376 583 413 583 q 297 554 324 583 q 261 477 271 525 q 252 376 252 430 l 252 358 q 261 255 252 302 q 297 180 271 208 q 377 151 324 151 m 257 946 q 287 1015 257 988 q 363 1042 316 1042 q 440 1015 411 1042 q 469 946 469 988 q 440 879 469 905 q 363 852 411 852 q 287 879 316 852 q 257 946 257 905 z "},"Ġ":{"ha":947,"x_min":60,"x_max":877,"o":"m 877 522 l 877 123 q 803 64 852 96 q 675 9 753 32 q 491 -14 598 -14 q 265 42 362 -14 q 114 205 168 98 q 60 465 60 312 l 60 523 q 113 782 60 675 q 260 945 166 889 q 478 1002 355 1002 q 694 959 610 1002 q 822 842 779 917 q 876 671 866 768 l 663 671 q 636 756 656 720 q 580 811 616 792 q 485 831 543 831 q 377 797 422 831 q 308 694 332 762 q 284 524 284 625 l 284 465 q 308 295 284 363 q 382 192 332 227 q 505 157 431 157 q 578 164 549 157 q 627 183 608 172 q 656 203 646 194 l 656 368 l 480 368 l 480 522 l 877 522 m 371 1160 q 400 1229 371 1202 q 477 1256 430 1256 q 554 1229 525 1256 q 583 1160 583 1202 q 554 1093 583 1120 q 477 1066 525 1066 q 400 1093 430 1066 q 371 1160 371 1120 z "},"ġ":{"ha":796,"x_min":43,"x_max":726,"o":"m 533 734 l 726 734 l 726 26 q 680 -145 726 -75 q 553 -252 634 -216 q 362 -289 471 -289 q 263 -276 315 -289 q 166 -239 212 -264 q 90 -176 121 -214 l 180 -52 q 255 -109 212 -87 q 354 -131 298 -131 q 472 -90 431 -131 q 513 26 513 -49 l 513 562 l 533 734 m 43 358 l 43 372 q 79 569 43 484 q 182 700 115 653 q 341 747 249 747 q 465 719 416 747 q 544 641 513 691 q 592 522 574 590 q 621 374 610 454 l 621 350 q 574 167 606 250 q 486 35 543 84 q 340 -14 429 -14 q 181 35 248 -14 q 79 168 115 83 q 43 358 43 252 m 254 372 l 254 358 q 270 253 254 300 q 316 179 285 206 q 393 151 347 151 q 477 173 445 151 q 525 235 509 195 q 541 326 540 274 l 541 397 q 532 475 541 441 q 506 534 523 510 q 461 570 488 557 q 395 583 433 583 q 317 555 348 583 q 270 479 286 527 q 254 372 254 432 m 269 946 q 299 1015 269 988 q 375 1042 328 1042 q 452 1015 423 1042 q 481 946 481 988 q 452 879 481 905 q 375 852 423 852 q 299 879 328 852 q 269 946 269 905 z "},"Ţ":{"ha":869,"x_min":26,"x_max":842,"o":"m 541 987 l 541 0 l 321 0 l 321 987 l 541 987 m 842 987 l 842 816 l 26 816 l 26 987 l 842 987 m 351 11 l 512 11 l 504 -29 q 574 -62 543 -36 q 606 -146 606 -88 q 544 -266 606 -220 q 360 -311 481 -311 l 355 -193 q 391 -188 376 -193 q 415 -170 406 -182 q 425 -138 425 -158 q 402 -100 425 -111 q 330 -87 380 -90 l 351 11 z "},"ţ":{"ha":474,"x_min":8,"x_max":466,"o":"m 444 734 l 444 585 l 8 585 l 8 734 l 444 734 m 108 916 l 320 916 l 320 230 q 328 183 320 199 q 352 160 335 167 q 395 154 369 154 q 428 155 414 154 q 453 159 441 157 l 453 5 q 395 -8 426 -3 q 329 -14 365 -14 q 211 9 260 -14 q 134 80 161 31 q 108 206 108 128 l 108 916 m 211 5 l 372 5 l 363 -35 q 434 -67 402 -41 q 466 -152 466 -94 q 404 -271 466 -226 q 220 -316 341 -316 l 215 -199 q 251 -193 235 -199 q 275 -175 266 -187 q 284 -144 284 -163 q 262 -106 284 -117 q 190 -92 240 -95 l 211 5 z "},"ǰ":{"ha":401,"x_min":-96,"x_max":467,"o":"m 98 734 l 311 734 l 311 -18 q 239 -225 311 -153 q 43 -296 168 -296 q -9 -294 15 -296 q -61 -285 -34 -292 l -51 -123 q -20 -130 -35 -127 q 16 -132 -5 -132 q 77 -103 56 -132 q 98 -18 98 -74 l 98 734 m 85 1026 l 185 931 l 286 1026 l 466 1026 l 466 1019 l 254 827 l 117 827 l -96 1020 l -96 1026 l 85 1026 z "},"Ș":{"ha":862,"x_min":45,"x_max":814,"o":"m 593 260 q 579 318 593 294 q 526 365 565 343 q 409 412 486 387 q 244 481 321 441 q 122 579 168 520 q 75 725 75 638 q 123 870 75 808 q 256 967 172 932 q 448 1001 340 1001 q 639 963 557 1001 q 768 856 722 924 q 814 696 814 787 l 594 696 q 577 767 594 736 q 527 815 561 798 q 444 833 494 833 q 362 818 395 833 q 312 779 329 804 q 296 724 296 753 q 318 668 296 692 q 382 624 340 644 q 485 585 425 604 q 664 508 591 551 q 775 404 737 464 q 814 262 814 344 q 769 113 814 174 q 643 19 724 51 q 452 -14 562 -14 q 305 6 378 -14 q 174 65 233 25 q 80 167 115 105 q 45 315 45 229 l 267 315 q 279 239 267 270 q 316 189 292 208 q 375 162 340 170 q 452 154 410 154 q 533 168 502 154 q 578 206 564 182 q 593 260 593 231 m 520 -61 l 520 -109 q 492 -241 520 -175 q 424 -351 463 -308 l 322 -297 q 359 -220 345 -260 q 373 -120 373 -180 l 373 -61 l 520 -61 z "},"ș":{"ha":713,"x_min":31,"x_max":666,"o":"m 461 204 q 449 240 461 224 q 404 269 436 256 q 313 294 372 281 q 181 338 239 310 q 88 410 122 366 q 54 518 54 454 q 89 632 54 580 q 191 715 124 684 q 351 747 257 747 q 519 717 448 747 q 627 633 589 687 q 665 510 665 579 l 454 510 q 429 578 454 553 q 351 604 405 604 q 301 594 322 604 q 268 568 279 585 q 256 528 256 551 q 269 492 256 507 q 310 464 281 476 q 386 443 338 452 q 526 403 463 429 q 628 332 589 377 q 666 212 666 286 q 627 96 666 147 q 518 16 589 45 q 351 -14 448 -14 q 176 24 248 -14 q 67 118 104 61 q 31 234 31 174 l 230 234 q 249 174 231 197 q 294 141 266 151 q 356 130 321 130 q 414 140 391 130 q 449 166 437 149 q 461 204 461 182 m 425 -67 l 425 -115 q 397 -248 425 -181 q 329 -357 368 -314 l 227 -303 q 264 -226 250 -267 q 278 -126 278 -186 l 278 -67 l 425 -67 z "},"Ț":{"ha":869,"x_min":26,"x_max":842,"o":"m 541 987 l 541 0 l 321 0 l 321 987 l 541 987 m 842 987 l 842 816 l 26 816 l 26 987 l 842 987 m 504 -55 l 504 -103 q 475 -235 504 -169 q 408 -345 447 -302 l 306 -291 q 342 -214 328 -254 q 357 -114 357 -174 l 357 -55 l 504 -55 z "},"ț":{"ha":474,"x_min":8,"x_max":453,"o":"m 444 734 l 444 585 l 8 585 l 8 734 l 444 734 m 108 916 l 320 916 l 320 230 q 328 183 320 199 q 352 160 335 167 q 395 154 369 154 q 428 155 414 154 q 453 159 441 157 l 453 5 q 395 -8 426 -3 q 329 -14 365 -14 q 211 9 260 -14 q 134 80 161 31 q 108 206 108 128 l 108 916 m 363 -60 l 363 -109 q 335 -241 363 -174 q 267 -350 307 -307 l 165 -296 q 202 -219 188 -260 q 216 -119 216 -179 l 216 -60 l 363 -60 z "},"ȷ":{"ha":401,"x_min":-61,"x_max":311,"o":"m 98 734 l 311 734 l 311 -18 q 239 -225 311 -153 q 43 -296 168 -296 q -9 -294 15 -296 q -61 -285 -34 -292 l -51 -123 q -20 -130 -35 -127 q 16 -132 -5 -132 q 77 -103 56 -132 q 98 -18 98 -74 l 98 734 z "},"ʼ":{"ha":328,"x_min":43,"x_max":262,"o":"m 262 1042 l 262 935 q 244 843 262 890 q 199 754 227 795 q 138 683 172 712 l 43 736 q 84 824 66 777 q 102 935 102 871 l 102 1042 l 262 1042 z "},"ˉ":{"ha":709,"x_min":119,"x_max":587,"o":"m 587 987 l 587 873 l 119 873 l 119 987 l 587 987 z "},"˳":{"ha":446,"x_min":102,"x_max":359,"o":"m 102 -155 q 139 -71 102 -104 q 231 -38 177 -38 q 322 -71 285 -38 q 359 -155 359 -104 q 322 -237 359 -205 q 231 -269 285 -269 q 139 -237 177 -269 q 102 -155 102 -204 m 182 -155 q 196 -190 182 -176 q 231 -203 210 -203 q 264 -190 252 -203 q 277 -155 277 -176 q 264 -118 277 -132 q 231 -104 252 -104 q 196 -118 210 -104 q 182 -155 182 -132 z "},"̏":{"ha":0,"x_min":-715,"x_max":-104,"o":"m -349 849 l -522 849 l -715 1029 l -515 1029 l -349 849 m -104 849 l -277 849 l -443 1029 l -242 1029 l -104 849 z "},"،":{"ha":423,"x_min":82,"x_max":349,"o":"m 349 397 l 255 472 q 164 381 203 432 q 104 269 125 330 q 82 136 82 208 q 115 36 82 73 q 214 0 148 0 q 300 31 269 0 q 332 116 332 62 q 310 191 332 161 q 248 229 289 221 q 283 321 256 282 q 349 397 309 361 z "},"؍":{"ha":603,"x_min":37,"x_max":551,"o":"m 551 1025 l 152 -140 l 37 -104 l 435 1062 l 551 1025 z "},"ؐ":{"ha":0,"x_min":75,"x_max":572,"o":"m 315 945 l 274 945 q 331 1021 303 990 q 386 1066 359 1051 q 437 1082 412 1082 q 482 1064 465 1082 q 499 1021 499 1047 q 479 980 499 997 q 419 954 460 963 q 315 945 378 945 m 86 817 l 148 779 q 169 829 161 802 q 178 888 176 855 q 229 876 199 880 q 298 871 258 871 l 316 871 q 456 888 399 871 q 543 938 513 904 q 572 1023 572 972 q 533 1117 572 1079 q 435 1156 494 1156 q 314 1106 373 1156 q 196 956 255 1056 q 183 966 189 958 q 172 987 177 975 l 146 1067 l 75 1044 q 100 979 91 1012 q 109 912 109 945 q 103 859 109 882 q 86 817 97 836 z "},"ؑ":{"ha":0,"x_min":75,"x_max":522,"o":"m 180 871 l 200 871 q 355 885 275 871 q 522 926 434 899 l 522 1005 l 357 963 q 352 964 355 962 q 347 966 349 965 q 302 1006 311 981 q 294 1039 294 1030 q 321 1100 294 1075 q 390 1125 348 1125 q 436 1114 414 1124 q 482 1084 459 1103 l 512 1149 q 452 1190 486 1176 q 378 1204 419 1204 q 262 1156 304 1204 q 219 1042 219 1108 q 229 989 219 1010 q 252 949 239 968 l 199 949 q 181 963 190 950 q 166 993 173 975 l 146 1061 l 75 1036 q 100 972 91 1005 q 109 905 109 939 q 103 852 109 875 q 86 811 97 829 l 148 773 q 169 820 160 795 q 180 871 178 844 z "},"ؒ":{"ha":0,"x_min":58,"x_max":638,"o":"m 370 686 l 359 750 q 340 749 350 749 q 321 749 331 749 q 210 764 254 749 q 143 811 165 780 q 121 888 121 842 q 148 968 121 931 q 224 1033 176 1004 q 338 1080 273 1061 q 479 1105 404 1099 l 484 1168 q 413 1183 452 1170 q 315 1225 374 1197 q 254 1251 282 1241 q 201 1261 225 1261 q 123 1238 159 1261 q 63 1176 87 1215 l 58 1166 l 115 1138 l 125 1152 q 159 1182 138 1169 q 201 1194 179 1194 q 239 1185 214 1194 q 302 1161 264 1177 q 323 1152 317 1154 q 336 1147 330 1149 q 129 1045 199 1116 q 58 882 58 973 q 91 770 58 814 q 182 705 123 726 q 316 684 240 684 q 343 684 330 684 q 370 686 357 685 m 604 1104 l 543 1082 q 567 1010 558 1045 q 575 941 575 975 q 535 829 575 878 q 404 757 496 779 l 431 701 q 589 796 541 726 q 638 948 638 865 q 629 1026 638 987 q 604 1104 620 1066 z "},"ؕ":{"ha":0,"x_min":86,"x_max":524,"o":"m 275 938 l 224 937 q 284 1017 254 985 q 341 1067 313 1050 q 396 1084 370 1084 q 445 1065 426 1084 q 463 1018 463 1046 q 442 974 463 991 q 379 947 420 956 q 275 938 337 938 m 162 937 l 86 937 l 86 876 l 276 876 q 413 892 359 876 q 496 940 468 908 q 524 1021 524 972 q 488 1111 524 1075 q 393 1147 452 1147 q 316 1124 353 1147 q 245 1060 279 1102 l 245 1304 l 187 1304 l 187 977 q 175 958 181 968 q 162 937 168 947 z "},"؛":{"ha":423,"x_min":82,"x_max":349,"o":"m 87 120 q 123 35 87 68 q 212 1 159 1 q 300 35 263 1 q 336 120 336 68 q 300 205 336 172 q 212 239 263 239 q 123 205 160 239 q 87 120 87 172 m 349 731 l 255 806 q 164 715 203 766 q 104 603 125 664 q 82 470 82 543 q 115 371 82 407 q 214 334 148 334 q 300 365 269 334 q 332 450 332 396 q 310 525 332 496 q 248 563 289 555 q 283 656 256 616 q 349 731 309 695 z "},"؟":{"ha":608,"x_min":45,"x_max":573,"o":"m 45 684 q 59 597 45 631 q 96 539 73 562 q 143 499 119 517 q 191 463 168 482 q 228 416 214 444 q 242 347 242 389 l 242 332 l 425 332 l 425 347 q 405 458 425 413 q 354 533 385 503 q 294 587 324 564 q 243 633 264 610 q 223 683 223 655 q 256 738 223 715 q 337 761 289 761 q 411 745 372 761 q 489 694 450 730 l 573 850 q 455 928 517 904 q 332 953 392 953 q 190 919 255 953 q 85 825 125 885 q 45 684 45 764 m 208 120 q 244 35 208 68 q 333 1 280 1 q 421 35 385 1 q 457 120 457 69 q 421 205 457 172 q 333 239 385 239 q 245 205 281 239 q 208 120 208 172 z "},"ء":{"ha":608,"x_min":48,"x_max":552,"o":"m 256 330 q 285 377 256 359 q 345 396 314 396 q 414 384 381 396 q 480 355 448 372 l 537 498 q 449 549 492 530 q 336 568 405 568 q 214 535 267 568 q 131 446 161 502 q 100 323 100 391 q 117 233 100 275 q 163 159 134 191 q 105 133 135 146 q 48 106 75 120 l 77 -68 q 329 44 205 -2 q 552 113 452 90 l 552 289 q 476 274 510 281 q 407 258 443 267 q 323 233 372 249 q 276 278 297 250 q 256 330 256 306 z "},"آ":{"ha":368,"x_min":-111,"x_max":442,"o":"m 249 1055 l 161 1095 q 118 1112 138 1106 q 79 1118 98 1118 q 12 1094 46 1118 q -64 1027 -22 1070 l -111 980 l -30 907 l 14 951 q 56 991 39 977 q 92 1005 73 1005 q 106 1003 99 1005 q 123 996 114 1000 l 210 957 q 275 941 247 941 q 335 958 307 941 q 397 1008 363 976 l 442 1050 l 362 1124 l 322 1086 q 293 1061 306 1072 q 264 1051 280 1051 q 249 1055 258 1051 m 276 861 l 93 861 l 93 1 l 276 1 l 276 861 z "},"أ":{"ha":368,"x_min":36,"x_max":318,"o":"m 106 999 l 37 972 l 47 896 l 319 1003 l 307 1081 l 210 1046 q 207 1045 208 1045 q 204 1044 205 1044 q 151 1055 168 1040 q 134 1089 134 1071 q 157 1137 134 1120 q 207 1153 180 1153 q 246 1148 228 1153 q 286 1133 264 1143 l 285 1213 q 245 1230 265 1224 q 197 1236 226 1236 q 102 1197 144 1236 q 60 1098 60 1158 q 72 1040 60 1062 q 106 999 83 1017 m 276 861 l 93 861 l 93 1 l 276 1 l 276 861 z "},"ؤ":{"ha":651,"x_min":51,"x_max":596,"o":"m 240 711 l 170 684 l 181 608 l 452 715 l 441 793 l 343 758 q 340 757 341 758 q 338 757 339 757 q 285 768 302 752 q 267 802 268 783 q 290 849 267 833 q 340 865 313 865 q 380 861 361 865 q 419 845 398 856 l 418 925 q 379 943 399 937 q 331 949 359 949 q 235 910 277 949 q 193 810 193 871 q 205 752 193 774 q 240 711 217 730 m 596 151 q 579 302 596 229 q 528 435 562 375 q 440 529 493 494 q 313 564 387 564 q 202 535 250 564 q 121 458 153 506 q 72 354 89 410 q 56 243 56 297 q 130 56 56 113 q 332 -1 204 -1 q 366 1 347 -1 q 401 7 384 3 q 337 -78 385 -40 q 216 -143 289 -116 q 51 -189 143 -170 l 118 -370 q 372 -280 264 -342 q 538 -113 479 -218 q 596 151 596 -7 m 330 194 q 257 204 286 194 q 227 250 227 214 q 235 301 227 273 q 261 352 242 330 q 312 374 279 374 q 360 357 340 374 q 392 315 380 341 q 412 259 405 288 q 422 204 420 230 q 383 197 407 201 q 330 194 359 194 z "},"إ":{"ha":368,"x_min":32,"x_max":314,"o":"m 102 -306 l 33 -333 l 43 -409 l 315 -302 l 303 -224 l 205 -259 q 202 -260 203 -260 q 200 -260 201 -260 q 147 -250 164 -265 q 130 -216 130 -234 q 153 -168 130 -184 q 203 -152 176 -152 q 242 -157 224 -152 q 281 -172 260 -161 l 281 -92 q 241 -75 261 -81 q 193 -68 222 -68 q 98 -107 140 -68 q 56 -207 56 -146 q 67 -265 56 -243 q 102 -306 79 -288 m 277 951 l 94 951 l 94 1 l 277 1 l 277 951 z "},"ئ":{"ha":1008,"x_min":58,"x_max":961,"o":"m 259 579 l 189 552 l 200 476 l 471 583 l 460 661 l 362 626 q 359 625 360 625 q 357 625 358 625 q 304 635 321 620 q 286 669 287 651 q 309 717 286 701 q 359 733 332 733 q 399 728 380 733 q 438 713 417 724 l 437 793 q 398 810 418 804 q 350 817 378 817 q 254 778 296 817 q 212 678 212 739 q 224 620 212 642 q 259 579 236 597 m 484 -342 q 687 -314 598 -342 q 836 -237 775 -286 q 929 -124 897 -189 q 960 13 960 -60 q 942 111 960 68 q 879 178 923 154 q 756 203 834 203 l 657 203 q 628 208 640 203 q 616 231 616 213 q 634 316 616 278 q 688 376 653 354 q 772 397 724 397 q 831 390 798 397 q 899 362 863 382 l 961 535 q 870 580 920 565 q 770 595 821 595 q 635 565 696 595 q 531 483 574 535 q 465 366 488 431 q 442 230 442 300 q 462 110 442 155 q 515 43 482 65 q 585 14 547 20 q 657 7 622 7 l 767 7 q 786 2 781 7 q 791 -13 791 -3 q 772 -54 791 -31 q 715 -99 753 -77 q 619 -134 677 -120 q 484 -148 562 -148 q 333 -116 388 -148 q 255 -29 278 -83 q 232 91 232 26 q 249 219 232 151 q 291 359 266 288 l 126 422 q 75 251 93 337 q 58 83 58 164 q 103 -134 58 -38 q 243 -286 149 -230 q 484 -342 338 -342 z "},"ا":{"ha":368,"x_min":93,"x_max":276,"o":"m 276 951 l 93 951 l 93 1 l 276 1 l 276 951 z "},"ب":{"ha":1249,"x_min":56,"x_max":1194,"o":"m 642 -80 l 521 -202 l 642 -323 l 764 -202 l 642 -80 m 753 0 q 925 12 846 0 q 1065 57 1005 24 q 1160 153 1126 90 q 1194 318 1194 216 q 1186 437 1194 374 q 1166 564 1179 500 l 987 519 q 1011 410 1000 467 q 1021 309 1021 353 q 1003 253 1021 275 q 951 218 985 231 q 867 201 916 206 q 755 196 818 196 l 597 196 q 456 201 522 196 q 340 221 391 206 q 260 267 290 237 q 231 349 231 298 q 243 429 231 387 q 267 503 255 471 l 103 564 q 69 457 83 515 q 56 338 56 399 q 96 169 56 235 q 209 66 136 103 q 381 15 282 29 q 597 0 479 0 l 753 0 z "},"ة":{"ha":682,"x_min":55,"x_max":627,"o":"m 454 267 q 425 213 454 231 q 340 196 395 196 q 259 213 289 196 q 229 262 229 231 q 245 312 229 285 q 285 366 261 339 q 333 414 309 393 q 387 368 359 394 q 434 316 415 342 q 454 267 454 289 m 199 530 q 97 395 138 461 q 55 244 55 330 q 128 72 55 140 q 341 3 201 3 q 489 35 424 3 q 590 126 553 66 q 627 269 627 185 q 596 392 627 334 q 516 502 566 450 q 407 603 467 554 q 286 699 347 651 l 172 553 l 199 530 m 437 981 l 321 866 l 437 749 l 553 866 l 437 981 m 208 981 l 92 866 l 208 749 l 324 866 l 208 981 z "},"ت":{"ha":1249,"x_min":56,"x_max":1194,"o":"m 753 0 q 925 12 846 0 q 1065 57 1005 24 q 1160 153 1126 90 q 1194 318 1194 216 q 1186 437 1194 374 q 1166 564 1179 500 l 987 519 q 1011 410 1000 467 q 1021 309 1021 353 q 1003 253 1021 275 q 951 218 985 231 q 867 201 916 206 q 755 196 818 196 l 597 196 q 456 201 522 196 q 340 221 391 206 q 260 267 290 237 q 231 349 231 298 q 243 429 231 387 q 267 503 255 471 l 103 564 q 69 457 83 515 q 56 338 56 399 q 96 169 56 235 q 209 66 136 103 q 381 15 282 29 q 597 0 479 0 l 753 0 m 744 744 l 628 629 l 744 512 l 860 629 l 744 744 m 515 744 l 399 629 l 515 512 l 631 629 l 515 744 z "},"ث":{"ha":1249,"x_min":56,"x_max":1194,"o":"m 753 0 q 925 12 846 0 q 1065 57 1005 24 q 1160 153 1126 90 q 1194 318 1194 216 q 1186 437 1194 374 q 1166 564 1179 500 l 987 519 q 1011 410 1000 467 q 1021 309 1021 353 q 1003 253 1021 275 q 951 218 985 231 q 867 201 916 206 q 755 196 818 196 l 597 196 q 456 201 522 196 q 340 221 391 206 q 260 267 290 237 q 231 349 231 298 q 243 429 231 387 q 267 503 255 471 l 103 564 q 69 457 83 515 q 56 338 56 399 q 96 169 56 235 q 209 66 136 103 q 381 15 282 29 q 597 0 479 0 l 753 0 m 629 875 l 520 766 l 629 656 l 739 766 l 629 875 m 748 701 l 639 592 l 748 483 l 857 592 l 748 701 m 511 701 l 402 592 l 511 483 l 621 592 l 511 701 z "},"ج":{"ha":964,"x_min":36,"x_max":918,"o":"m 895 481 q 780 500 840 482 q 657 545 719 518 q 536 597 595 571 q 428 641 478 624 q 340 659 378 659 q 182 607 250 659 q 66 477 115 555 l 36 427 l 188 353 l 224 398 q 273 447 243 424 q 340 469 303 469 q 376 461 353 469 q 434 440 400 454 q 511 409 469 427 q 339 340 421 383 q 194 236 258 297 q 93 96 130 175 q 56 -81 56 16 q 93 -259 56 -186 q 196 -379 130 -333 q 347 -447 261 -425 q 532 -469 433 -469 q 727 -452 628 -469 q 918 -399 826 -435 l 863 -215 q 707 -260 793 -242 q 524 -278 620 -278 q 373 -255 440 -278 q 268 -188 307 -233 q 229 -77 229 -143 q 269 51 229 -7 q 380 152 310 108 q 536 228 450 197 q 716 279 623 260 q 895 306 809 298 l 895 481 m 577 112 l 456 -10 l 577 -132 l 699 -10 l 577 112 z "},"ح":{"ha":964,"x_min":36,"x_max":918,"o":"m 895 481 q 780 500 840 482 q 657 545 719 518 q 536 597 595 571 q 428 641 478 624 q 340 659 378 659 q 182 607 250 659 q 66 477 115 555 l 36 427 l 188 353 l 224 398 q 273 447 243 424 q 340 469 303 469 q 376 461 353 469 q 434 440 400 454 q 511 409 469 427 q 339 340 421 383 q 194 236 258 297 q 93 96 130 175 q 56 -81 56 16 q 93 -259 56 -186 q 196 -379 130 -333 q 347 -447 261 -425 q 532 -469 433 -469 q 727 -452 628 -469 q 918 -399 826 -435 l 863 -215 q 707 -260 793 -242 q 524 -278 620 -278 q 373 -255 440 -278 q 268 -188 307 -233 q 229 -77 229 -143 q 269 51 229 -7 q 380 152 310 108 q 536 228 450 197 q 716 279 623 260 q 895 306 809 298 l 895 481 z "},"خ":{"ha":964,"x_min":36,"x_max":918,"o":"m 409 976 l 288 854 l 409 732 l 531 854 l 409 976 m 895 481 q 780 500 840 482 q 657 545 719 518 q 536 597 595 571 q 428 641 478 624 q 340 659 378 659 q 182 607 250 659 q 66 477 115 555 l 36 427 l 188 353 l 224 398 q 273 447 243 424 q 340 469 303 469 q 376 461 353 469 q 434 440 400 454 q 511 409 469 427 q 339 340 421 383 q 194 236 258 297 q 93 96 130 175 q 56 -81 56 16 q 93 -259 56 -186 q 196 -379 130 -333 q 347 -447 261 -425 q 532 -469 433 -469 q 727 -452 628 -469 q 918 -399 826 -435 l 863 -215 q 707 -260 793 -242 q 524 -278 620 -278 q 373 -255 440 -278 q 268 -188 307 -233 q 229 -77 229 -143 q 269 51 229 -7 q 380 152 310 108 q 536 228 450 197 q 716 279 623 260 q 895 306 809 298 l 895 481 z "},"د":{"ha":699,"x_min":56,"x_max":643,"o":"m 238 194 q 150 200 201 194 q 56 214 100 205 l 56 19 q 147 5 100 9 q 248 1 194 1 q 456 31 368 1 q 594 127 545 61 q 643 302 643 194 q 610 446 643 381 q 522 565 578 511 q 398 662 467 618 q 257 741 329 706 l 174 565 q 320 481 253 528 q 429 386 387 434 q 470 294 470 337 q 435 232 470 253 q 347 202 401 210 q 238 194 294 194 z "},"ذ":{"ha":699,"x_min":56,"x_max":643,"o":"m 256 1053 l 134 930 l 256 809 l 378 930 l 256 1053 m 238 194 q 150 200 201 194 q 56 214 100 205 l 56 19 q 147 5 100 9 q 248 1 194 1 q 456 31 368 1 q 594 127 545 61 q 643 302 643 194 q 610 446 643 381 q 522 565 578 511 q 398 662 467 618 q 257 741 329 706 l 174 565 q 320 481 253 528 q 429 386 387 434 q 470 294 470 337 q 435 232 470 253 q 347 202 401 210 q 238 194 294 194 z "},"ر":{"ha":510,"x_min":-37,"x_max":456,"o":"m 33 -370 q 256 -281 161 -345 q 404 -116 351 -218 q 456 129 456 -14 q 443 293 456 208 q 402 452 429 378 l 219 393 q 261 250 241 327 q 281 111 281 172 q 242 -40 281 19 q 133 -133 204 -98 q -37 -189 62 -168 l 33 -370 z "},"ز":{"ha":510,"x_min":-37,"x_max":456,"o":"m 298 790 l 176 668 l 298 547 l 420 668 l 298 790 m 33 -370 q 256 -281 161 -345 q 404 -116 351 -218 q 456 129 456 -14 q 443 293 456 208 q 402 452 429 378 l 219 393 q 261 250 241 327 q 281 111 281 172 q 242 -40 281 19 q 133 -133 204 -98 q -37 -189 62 -168 l 33 -370 z "},"س":{"ha":1675,"x_min":58,"x_max":1619,"o":"m 1023 0 q 1126 25 1082 0 q 1204 87 1170 50 q 1274 25 1233 50 q 1377 0 1316 0 q 1522 45 1470 0 q 1596 164 1574 91 q 1619 322 1619 238 q 1610 442 1619 382 q 1588 557 1601 503 l 1412 509 q 1425 460 1417 494 q 1440 385 1433 426 q 1447 305 1447 344 q 1441 251 1447 275 q 1419 211 1434 226 q 1376 196 1403 196 q 1315 220 1332 196 q 1294 286 1297 244 l 1280 469 l 1109 448 q 1113 395 1111 424 q 1117 342 1116 366 q 1118 308 1118 318 q 1099 222 1118 248 q 1024 196 1080 196 q 939 230 969 197 q 893 310 909 262 l 848 450 l 667 382 q 719 234 696 311 q 743 83 743 157 q 719 -39 743 15 q 638 -123 694 -92 q 484 -155 582 -155 q 333 -122 388 -155 q 255 -36 278 -90 q 232 84 232 19 q 249 212 232 144 q 291 353 266 281 l 126 416 q 75 244 93 330 q 58 76 58 157 q 103 -141 58 -45 q 243 -293 149 -237 q 484 -349 338 -349 q 706 -302 614 -349 q 852 -170 799 -256 q 919 33 906 -84 q 966 10 941 20 q 1023 0 991 0 z "},"ش":{"ha":1675,"x_min":58,"x_max":1619,"o":"m 1167 969 l 1058 860 l 1167 751 l 1276 860 l 1167 969 m 1286 795 l 1177 686 l 1286 577 l 1395 686 l 1286 795 m 1049 795 l 940 686 l 1049 577 l 1158 686 l 1049 795 m 1023 0 q 1126 25 1082 0 q 1204 87 1170 50 q 1274 25 1233 50 q 1377 0 1316 0 q 1522 45 1470 0 q 1596 164 1574 91 q 1619 322 1619 238 q 1610 442 1619 382 q 1588 557 1601 503 l 1412 509 q 1425 460 1417 494 q 1440 385 1433 426 q 1447 305 1447 344 q 1441 251 1447 275 q 1419 211 1434 226 q 1376 196 1403 196 q 1315 220 1332 196 q 1294 286 1297 244 l 1280 469 l 1109 448 q 1113 395 1111 424 q 1117 342 1116 366 q 1118 308 1118 318 q 1099 222 1118 248 q 1024 196 1080 196 q 939 230 969 197 q 893 310 909 262 l 848 450 l 667 382 q 719 234 696 311 q 743 83 743 157 q 719 -39 743 15 q 638 -123 694 -92 q 484 -155 582 -155 q 333 -122 388 -155 q 255 -36 278 -90 q 232 84 232 19 q 249 212 232 144 q 291 353 266 281 l 126 416 q 75 244 93 330 q 58 76 58 157 q 103 -141 58 -45 q 243 -293 149 -237 q 484 -349 338 -349 q 706 -302 614 -349 q 852 -170 799 -256 q 919 33 906 -84 q 966 10 941 20 q 1023 0 991 0 z "},"ص":{"ha":1767,"x_min":58,"x_max":1712,"o":"m 484 -349 q 706 -302 614 -349 q 852 -170 799 -256 q 919 33 906 -84 q 984 16 950 23 q 1059 4 1019 9 q 1147 0 1099 0 l 1182 0 q 1389 17 1293 0 q 1557 71 1485 33 q 1671 173 1630 109 q 1712 332 1712 237 q 1674 478 1712 415 q 1570 578 1636 542 q 1418 615 1504 615 q 1278 583 1344 615 q 1154 495 1212 550 q 1044 369 1096 439 q 946 222 992 298 q 917 250 930 222 q 892 311 903 277 l 848 450 l 667 382 q 719 234 696 311 q 743 83 743 157 q 719 -39 743 15 q 638 -123 695 -92 q 484 -155 582 -155 q 333 -122 388 -155 q 255 -36 278 -90 q 232 84 232 19 q 249 212 232 144 q 291 353 266 281 l 126 416 q 75 244 93 330 q 58 76 58 157 q 103 -141 58 -45 q 243 -293 149 -237 q 484 -349 338 -349 m 1423 422 q 1502 394 1471 422 q 1534 319 1534 366 q 1507 256 1534 280 q 1431 219 1479 232 q 1321 201 1383 205 q 1191 196 1259 196 l 1129 196 q 1193 279 1159 239 q 1266 352 1227 319 q 1344 403 1304 384 q 1423 422 1383 422 z "},"ض":{"ha":1767,"x_min":58,"x_max":1712,"o":"m 1390 953 l 1268 831 l 1390 709 l 1512 831 l 1390 953 m 484 -349 q 706 -302 614 -349 q 852 -170 799 -256 q 919 33 906 -84 q 984 16 950 23 q 1059 4 1019 9 q 1147 0 1099 0 l 1182 0 q 1389 17 1293 0 q 1557 71 1485 33 q 1671 173 1630 109 q 1712 332 1712 237 q 1674 478 1712 415 q 1570 578 1636 542 q 1418 615 1504 615 q 1278 583 1344 615 q 1154 495 1212 550 q 1044 369 1096 439 q 946 222 992 298 q 917 250 930 222 q 892 311 903 277 l 848 450 l 667 382 q 719 234 696 311 q 743 83 743 157 q 719 -39 743 15 q 638 -123 695 -92 q 484 -155 582 -155 q 333 -122 388 -155 q 255 -36 278 -90 q 232 84 232 19 q 249 212 232 144 q 291 353 266 281 l 126 416 q 75 244 93 330 q 58 76 58 157 q 103 -141 58 -45 q 243 -293 149 -237 q 484 -349 338 -349 m 1423 422 q 1502 394 1471 422 q 1534 319 1534 366 q 1507 256 1534 280 q 1431 219 1479 232 q 1321 201 1383 205 q 1191 196 1259 196 l 1129 196 q 1193 279 1159 239 q 1266 352 1227 319 q 1344 403 1304 384 q 1423 422 1383 422 z "},"ط":{"ha":1063,"x_min":50,"x_max":1007,"o":"m 718 422 q 798 394 766 422 q 829 319 829 366 q 802 256 829 280 q 727 219 774 232 q 617 201 679 205 q 486 196 555 196 l 425 197 q 489 280 454 239 q 561 352 523 320 q 639 403 600 384 q 718 422 679 422 m 222 196 l 50 196 l 50 0 l 477 0 q 684 17 588 0 q 853 71 781 33 q 966 173 925 109 q 1007 332 1007 237 q 969 479 1007 415 q 866 578 932 543 q 713 614 800 614 q 640 605 675 614 q 572 579 605 596 q 508 538 539 562 q 445 484 477 514 l 445 951 l 262 951 l 262 254 q 242 225 252 239 q 222 196 232 211 z "},"ظ":{"ha":1063,"x_min":50,"x_max":1007,"o":"m 704 953 l 583 831 l 704 709 l 826 831 l 704 953 m 718 422 q 798 394 766 422 q 829 319 829 366 q 802 256 829 280 q 727 219 774 232 q 617 201 679 205 q 486 196 555 196 l 425 197 q 489 280 454 239 q 561 352 523 320 q 639 403 600 384 q 718 422 679 422 m 222 196 l 50 196 l 50 0 l 477 0 q 684 17 588 0 q 853 71 781 33 q 966 173 925 109 q 1007 332 1007 237 q 969 479 1007 415 q 866 578 932 543 q 713 614 800 614 q 640 605 675 614 q 572 579 605 596 q 508 538 539 562 q 445 484 477 514 l 445 951 l 262 951 l 262 254 q 242 225 252 239 q 222 196 232 211 z "},"ع":{"ha":893,"x_min":56,"x_max":843,"o":"m 770 353 q 708 357 736 356 q 651 359 680 359 q 548 355 599 359 q 436 343 498 351 q 410 369 423 353 q 388 406 397 385 q 378 453 378 427 q 420 534 378 505 q 514 563 463 563 q 611 544 568 563 q 699 499 654 526 l 770 659 q 636 733 704 706 q 501 760 569 760 q 354 719 422 760 q 244 610 286 678 q 201 463 201 543 q 210 393 201 426 q 231 331 218 359 q 262 281 245 303 q 148 184 195 239 q 79 63 102 130 q 56 -85 56 -3 q 92 -260 56 -187 q 190 -379 127 -334 q 334 -447 253 -425 q 503 -469 414 -469 q 676 -450 588 -469 q 843 -400 764 -432 l 791 -218 q 649 -262 722 -246 q 495 -279 577 -279 q 364 -257 425 -279 q 266 -190 303 -235 q 228 -79 228 -146 q 261 35 228 -12 q 354 111 294 81 q 493 155 414 141 q 665 169 573 169 q 708 169 686 169 q 759 168 730 169 l 770 353 z "},"غ":{"ha":893,"x_min":56,"x_max":843,"o":"m 489 1087 l 368 965 l 489 844 l 611 965 l 489 1087 m 770 353 q 708 357 736 356 q 651 359 680 359 q 548 355 599 359 q 436 343 498 351 q 410 369 423 353 q 388 406 397 385 q 378 453 378 427 q 420 534 378 505 q 514 563 463 563 q 611 544 568 563 q 699 499 654 526 l 770 659 q 636 733 704 706 q 501 760 569 760 q 354 719 422 760 q 244 610 286 678 q 201 463 201 543 q 210 393 201 426 q 231 331 218 359 q 262 281 245 303 q 148 184 195 239 q 79 63 102 130 q 56 -85 56 -3 q 92 -260 56 -187 q 190 -379 127 -334 q 334 -447 253 -425 q 503 -469 414 -469 q 676 -450 588 -469 q 843 -400 764 -432 l 791 -218 q 649 -262 722 -246 q 495 -279 577 -279 q 364 -257 425 -279 q 266 -190 303 -235 q 228 -79 228 -146 q 261 35 228 -12 q 354 111 294 81 q 493 155 414 141 q 665 169 573 169 q 708 169 686 169 q 759 168 730 169 l 770 353 z "},"ؽ":{"ha":1008,"x_min":58,"x_max":961,"o":"m 457 522 l 347 747 l 265 747 l 155 522 l 225 488 l 306 652 l 387 488 l 457 522 m 484 -342 q 687 -314 598 -342 q 836 -237 775 -286 q 929 -124 897 -189 q 960 13 960 -60 q 942 111 960 68 q 879 178 923 154 q 756 203 834 203 l 657 203 q 628 208 640 203 q 616 231 616 213 q 634 316 616 278 q 688 376 653 354 q 772 397 724 397 q 831 390 798 397 q 899 362 863 382 l 961 535 q 870 580 920 565 q 770 595 821 595 q 635 565 696 595 q 531 483 574 535 q 465 366 488 431 q 442 230 442 300 q 462 110 442 155 q 515 43 482 65 q 585 14 547 20 q 657 7 622 7 l 767 7 q 786 2 781 7 q 791 -13 791 -3 q 772 -54 791 -31 q 715 -99 753 -77 q 619 -134 677 -120 q 484 -148 562 -148 q 333 -116 388 -148 q 255 -29 278 -83 q 232 91 232 26 q 249 219 232 151 q 291 359 266 288 l 126 422 q 75 251 93 337 q 58 83 58 164 q 103 -134 58 -38 q 243 -286 149 -230 q 484 -342 338 -342 z "},"ـ":{"ha":383,"x_min":-14,"x_max":397,"o":"m -14 196 l -14 0 l 397 0 l 397 196 l -14 196 z "}}}
